<svg width="271" height="244" viewBox="0 0 271 244" fill="none" xmlns="http://www.w3.org/2000/svg">
<g filter="url(#filter0_d_1185_42473)">
<path d="M166.213 30.8818H69.5781V218.27H166.213V30.8818Z" fill="#FDFDFD"/>
<path d="M232.597 61.9736H166.213V218.27H232.597V61.9736Z" fill="#EBEBEB"/>
<path d="M197.348 74.1309H180.352V103.616H197.348V74.1309Z" fill="#A0DDF7"/>
<path d="M218.507 74.1309H201.511V103.616H218.507V74.1309Z" fill="#A0DDF7"/>
<path d="M197.348 107.021H180.352V136.504H197.348V107.021Z" fill="#A0DDF7"/>
<path d="M218.507 107.021H201.511V136.504H218.507V107.021Z" fill="#A0DDF7"/>
<path d="M197.348 139.878H180.352V169.362H197.348V139.878Z" fill="#A0DDF7"/>
<path d="M218.507 139.878H201.511V169.362H218.507V139.878Z" fill="#A0DDF7"/>
<path d="M197.348 172.737H180.352V202.222H197.348V172.737Z" fill="#A0DDF7"/>
<path d="M218.507 172.737H201.511V202.222H218.507V172.737Z" fill="#A0DDF7"/>
<path d="M102.556 90.5587C101.894 92.3561 101.705 94.2483 101.768 96.2034C101.768 96.6133 102.43 96.4559 102.777 96.4875C105.489 96.4875 108.106 96.4244 110.787 96.4875C110.976 96.4875 111.133 96.3611 111.102 96.235C111.007 95.1628 111.102 93.7758 111.544 92.7667C112.017 91.4107 114.192 89.4237 115.958 90.8743C117.472 92.1041 117.283 94.1851 117.535 96.0771C117.598 96.6448 118.103 96.4244 118.449 96.4559C119.301 96.4559 120.247 96.4559 121.13 96.4559C122.108 96.4559 123.18 96.519 124.031 96.4559C124.504 96.4559 132.829 96.4872 133.207 96.235C133.428 96.0773 133.302 94.5009 133.302 94.1856C133.302 92.8927 133.05 91.5998 132.608 90.3385L132.356 89.7387C131.883 88.635 131.284 87.5945 130.527 86.6169C129.897 85.797 129.202 85.1667 128.477 84.599L127.752 84.0317C127.468 83.8109 127.121 83.6212 126.774 83.5266C126.017 83.3059 125.229 83.1169 125.355 81.4456C126.175 81.2249 126.081 80.563 125.418 80.2161C124.725 79.8377 123.968 79.8057 123.18 79.7427C122.139 79.7427 120.94 79.6798 119.837 79.9005C119.238 80.0266 116.81 80.4993 117.977 81.13C118.197 82.7382 111.228 81.6977 108.517 83.5582C103.534 86.6801 102.525 90.5587 102.525 90.5587H102.556ZM125.229 80.8467C125.166 81.1935 118.576 81.0042 118.481 80.752C118.355 80.4997 120.562 80.2477 121.54 80.2477C122.738 80.2477 125.324 80.1529 125.197 80.8151L125.229 80.8467Z" fill="#EDE3D0"/>
<path d="M121.729 88.1305C120.436 86.3016 117.881 84.8825 114.949 84.9771C107.538 85.1979 104.795 91.6305 104.732 96.4552C104.732 96.4552 104.732 96.4552 104.7 96.4868C105.804 96.4868 106.876 96.4868 107.948 96.4868C108.011 93.2072 109.147 88.0357 114.665 87.8465C117.504 87.7519 119.332 89.7383 119.963 91.5988C120.531 93.0494 120.909 95.0045 120.972 96.2658C120.972 96.3604 120.972 96.4237 120.972 96.4868C121.035 96.4868 121.13 96.4868 121.193 96.4868C122.171 96.4868 123.243 96.5498 124.094 96.4868C124.094 96.3606 124.094 96.2342 124.063 96.1396C124.063 95.635 123.716 90.9686 121.729 88.1305Z" fill="#B79A82"/>
<path d="M120.972 96.2343C120.909 94.9729 120.531 93.0178 119.963 91.5673C119.332 89.7068 117.503 87.7203 114.665 87.8149C109.147 88.0041 108.043 93.1757 107.948 96.4552C108.894 96.4552 109.841 96.4552 110.787 96.4552C110.976 96.4552 111.133 96.3288 111.102 96.2027C111.007 95.1305 111.102 93.7435 111.544 92.7344C112.017 91.3784 114.192 89.3915 115.958 90.8421C117.472 92.0719 117.282 94.1528 117.535 96.0449C117.598 96.6125 118.102 96.3921 118.449 96.4237C119.206 96.4237 120.089 96.4237 120.909 96.4237C120.909 96.3606 120.909 96.2658 120.909 96.2027L120.972 96.2343Z" fill="#F2663C"/>
<path d="M107.255 76.9355C107.255 78.5122 105.962 79.8049 104.385 79.8049C102.809 79.8049 101.516 78.5122 101.516 76.9355C101.516 75.3588 102.809 74.0654 104.385 74.0654C105.962 74.0654 107.255 75.3588 107.255 76.9355Z" fill="#F8D62C"/>
<path d="M138.662 65.2694C138.662 66.1208 137.969 66.7829 137.149 66.7829C136.329 66.7829 135.635 66.0892 135.635 65.2694C135.635 64.4495 136.329 63.755 137.149 63.755C137.969 63.755 138.662 64.4495 138.662 65.2694Z" fill="#28449C"/>
<path d="M117.503 76.9363C117.503 77.5985 116.967 78.1658 116.274 78.1658C115.58 78.1658 115.043 77.6301 115.043 76.9363C115.043 76.2426 115.58 75.7061 116.274 75.7061C116.967 75.7061 117.503 76.2426 117.503 76.9363Z" fill="#EF3924"/>
<path d="M109.525 71.6055C109.525 72.2677 108.989 72.8357 108.296 72.8357C107.602 72.8357 107.065 72.2992 107.065 71.6055C107.065 70.9117 107.602 70.376 108.296 70.376C108.989 70.376 109.525 70.9117 109.525 71.6055Z" fill="#B0D235"/>
<path d="M84.2662 111.968C84.0454 111.968 83.9197 111.843 83.9197 111.622V107.459H82.9735C82.6582 108.941 81.46 109.856 79.9464 109.856C78.1174 109.856 76.793 108.594 76.793 106.608C76.793 104.621 78.1174 103.296 79.9464 103.296C81.46 103.296 82.6267 104.211 82.9735 105.662H83.9197V103.423C83.9197 103.202 84.0139 103.076 84.2662 103.076H85.6858C85.9066 103.076 86.0323 103.202 86.0323 103.423L85.7797 111.59C85.7797 111.811 85.654 111.937 85.4333 111.937H84.2977L84.2662 111.968ZM81.3653 106.608C81.3653 105.662 80.8611 105.094 80.1358 105.094C79.379 105.094 78.9055 105.662 78.9055 106.608C78.9055 107.554 79.4105 108.121 80.1358 108.121C80.8611 108.121 81.3653 107.554 81.3653 106.608Z" fill="#58595B"/>
<path d="M93.1273 108.246C93.1273 108.467 93.0648 108.562 92.844 108.625C91.7403 108.909 89.8476 109.003 88.2078 109.003C87.7033 109.003 87.3879 108.719 87.3879 108.215V106.008C87.3564 105.472 87.6717 105.188 88.1447 105.188H90.6676V104.589H87.9245C87.6722 104.589 87.5142 104.431 87.5142 104.178V103.39C87.5142 103.138 87.6722 102.981 87.9245 102.981H91.7716C92.2446 102.981 92.5915 103.264 92.5599 103.8L92.4968 105.85C92.4968 106.354 92.213 106.638 91.6769 106.67H89.2171V107.3C90.2578 107.3 91.5509 107.3 92.6231 107.142C92.8753 107.111 92.9695 107.206 92.9695 107.395L93.0642 108.183L93.1273 108.246ZM90.1318 113.04C89.6272 113.04 89.3434 112.756 89.3118 112.251L89.2487 109.981C89.2487 109.76 89.3436 109.634 89.5959 109.634H90.857C91.0777 109.634 91.2042 109.76 91.2042 109.981V111.4L95.5871 111.431C95.8394 111.431 95.9343 111.526 95.9343 111.716V112.598C95.9343 112.85 95.8079 112.945 95.6187 112.945L90.1633 113.04H90.1318ZM94.3892 109.949C94.1684 109.949 94.042 109.823 94.042 109.602L93.9788 103.107C93.9788 102.886 94.0738 102.76 94.326 102.76H95.7449C95.9657 102.76 96.0914 102.886 96.0914 103.107L95.9659 109.602C95.9659 109.823 95.8394 109.949 95.6187 109.949H94.4207H94.3892Z" fill="#58595B"/>
<path d="M96.9429 106.607C96.9429 104.652 98.362 103.296 100.159 103.296C101.957 103.296 103.376 104.652 103.376 106.607C103.376 108.562 101.988 109.855 100.159 109.855C98.3304 109.855 96.9429 108.562 96.9429 106.607ZM101.673 106.607C101.673 105.661 101.137 105.094 100.349 105.094C99.5289 105.094 99.0246 105.661 99.0246 106.607C99.0246 107.553 99.5605 108.121 100.349 108.121C101.137 108.121 101.673 107.553 101.673 106.607ZM104.417 111.968C104.196 111.968 104.07 111.842 104.07 111.622V103.454C104.07 103.233 104.165 103.107 104.417 103.107H105.836C106.056 103.107 106.183 103.233 106.183 103.454L105.93 111.622C105.93 111.842 105.804 111.968 105.583 111.968H104.448H104.417Z" fill="#58595B"/>
<path d="M108.169 108.751C107.665 108.751 107.476 108.593 107.476 108.057L107.318 103.485C107.318 103.264 107.413 103.138 107.665 103.138H108.768C108.989 103.138 109.116 103.264 109.116 103.485V104.463H110.282V103.453C110.282 103.233 110.377 103.107 110.629 103.107H111.733C111.954 103.107 112.08 103.233 112.08 103.453L111.985 107.994C111.985 108.499 111.827 108.688 111.291 108.688H108.201L108.169 108.751ZM110.282 105.976H109.116V107.142H110.282V105.976ZM114.918 113.166C114.697 113.166 114.571 113.04 114.571 112.819V111.021L109.588 111.116C109.431 111.116 109.305 110.99 109.305 110.833V109.729C109.305 109.571 109.431 109.444 109.588 109.444H115.863C116.273 109.444 116.557 109.666 116.557 110.139C116.557 111.116 116.526 111.904 116.4 112.85C116.4 113.071 116.274 113.198 116.053 113.198H114.887L114.918 113.166ZM115.359 109.003C115.138 109.003 115.012 108.877 115.012 108.656V106.638H114.413V108.656C114.382 108.877 114.256 109.003 114.035 109.003H113.089C112.868 109.003 112.742 108.877 112.742 108.656L112.615 103.201C112.615 102.98 112.71 102.854 112.963 102.854H114.192C114.413 102.854 114.539 102.98 114.539 103.201V105.03H115.044V103.107C115.044 102.886 115.139 102.76 115.391 102.76H116.62C116.841 102.76 116.968 102.886 116.968 103.107L116.715 108.688C116.715 108.908 116.589 109.035 116.369 109.035H115.422L115.359 109.003Z" fill="#58595B"/>
<path d="M122.013 110.297C122.013 110.297 121.665 110.423 121.508 110.297C121.066 109.887 120.72 109.414 120.404 108.878C119.963 109.445 119.458 109.981 118.859 110.486C118.639 110.644 118.386 110.707 118.228 110.486L117.724 109.855C117.566 109.666 117.598 109.414 117.755 109.288C119.048 108.153 119.868 106.639 120.057 105.252H118.26C118.039 105.315 117.913 105.157 117.913 104.936V103.801C117.913 103.58 118.039 103.454 118.26 103.454H121.666C122.012 103.454 122.201 103.674 122.201 103.99C122.138 105.03 121.886 106.134 121.381 107.238C121.823 107.869 122.296 108.373 122.863 108.909C123.053 109.067 122.99 109.288 122.895 109.414L122.044 110.297H122.013ZM123.526 111.968C123.306 111.968 123.179 111.842 123.179 111.622L123.116 107.617H122.359C122.107 107.617 121.95 107.459 121.95 107.206V106.229C121.95 105.977 122.107 105.819 122.359 105.819H123.084V103.58C123.053 103.359 123.148 103.233 123.368 103.233H124.661C124.882 103.233 125.008 103.359 125.008 103.58L124.882 111.622C124.882 111.842 124.756 111.968 124.535 111.968H123.526ZM125.828 111.968C125.608 111.968 125.481 111.842 125.481 111.622V103.454C125.481 103.233 125.576 103.107 125.828 103.107H127.121C127.342 103.107 127.468 103.233 127.468 103.454L127.216 111.622C127.216 111.842 127.089 111.968 126.868 111.968H125.86H125.828Z" fill="#58595B"/>
<path d="M132.861 110.265C132.861 110.265 132.577 110.454 132.387 110.391C131.914 110.202 131.347 109.856 130.842 109.414C130.369 109.887 129.833 110.328 129.234 110.644C128.982 110.801 128.73 110.77 128.603 110.549L128.162 109.918C128.036 109.698 128.099 109.477 128.289 109.351C129.644 108.531 130.464 107.301 130.685 106.008L128.635 106.103C128.414 106.103 128.289 105.976 128.289 105.756V104.81C128.289 104.589 128.414 104.463 128.635 104.463H129.613L129.771 103.138C129.802 102.886 129.959 102.792 130.212 102.823L131.253 103.044C131.505 103.076 131.63 103.233 131.567 103.517L131.379 104.463H132.009C132.356 104.463 132.545 104.684 132.545 104.999C132.514 106.229 132.198 107.301 131.662 108.247C132.135 108.531 132.608 108.72 133.113 108.878C133.365 108.972 133.365 109.162 133.27 109.351L132.798 110.328L132.861 110.265ZM133.964 111.968C133.743 111.968 133.618 111.842 133.618 111.621L133.554 108.184H132.924C132.672 108.184 132.514 108.027 132.514 107.774V106.797C132.514 106.544 132.672 106.386 132.924 106.386H133.523V103.548C133.491 103.328 133.586 103.201 133.839 103.201H135.131C135.352 103.201 135.478 103.328 135.478 103.548L135.352 111.59C135.352 111.811 135.226 111.936 135.005 111.936H133.996L133.964 111.968ZM136.266 111.968C136.045 111.968 135.92 111.842 135.92 111.621V103.454C135.92 103.233 136.014 103.107 136.266 103.107H137.559C137.78 103.107 137.906 103.233 137.906 103.454L137.654 111.621C137.654 111.842 137.528 111.968 137.307 111.968H136.298H136.266Z" fill="#58595B"/>
<path d="M143.898 104.999C144.245 105.346 144.402 105.818 144.402 106.355C144.402 107.647 143.393 108.688 141.816 108.688C140.239 108.688 139.199 107.616 139.199 106.355C139.199 105.881 139.357 105.409 139.609 105.093H139.01C138.789 105.093 138.663 104.967 138.663 104.746V103.801C138.663 103.58 138.789 103.454 139.01 103.454H140.776L140.902 102.381C140.934 102.129 141.091 102.035 141.343 102.066L142.636 102.224C142.888 102.256 143.015 102.413 142.952 102.697L142.794 103.454H144.434C144.591 103.454 144.718 103.58 144.718 103.738V104.652C144.718 104.81 144.591 104.936 144.434 104.936H143.866L143.898 104.999ZM141.312 113.198C140.965 113.198 140.744 112.977 140.744 112.63L140.681 109.792C140.681 109.445 140.902 109.225 141.249 109.225L146.925 109.13C147.272 109.13 147.524 109.35 147.492 109.697L147.429 112.693C147.429 113.04 147.209 113.166 146.862 113.166H141.312V113.198ZM142.92 106.229C142.92 105.598 142.478 105.188 141.879 105.188C141.28 105.188 140.839 105.63 140.839 106.229C140.839 106.828 141.28 107.269 141.879 107.269C142.478 107.269 142.92 106.828 142.92 106.229ZM145.569 110.549H142.667V111.779H145.569V110.549ZM146.073 108.688C145.853 108.688 145.726 108.562 145.726 108.342V107.017H145.001C144.749 107.017 144.591 106.859 144.591 106.607V105.692C144.591 105.44 144.749 105.283 145.001 105.283H145.695V103.107C145.695 102.886 145.79 102.76 146.01 102.76H147.429C147.65 102.76 147.776 102.886 147.776 103.107L147.65 108.342C147.65 108.562 147.524 108.688 147.303 108.688H146.105H146.073Z" fill="#58595B"/>
<path d="M155.155 108.656C155.155 108.877 155.029 108.94 154.84 108.972C153.011 109.192 151.245 109.287 149.195 109.287C148.975 109.287 148.848 109.161 148.848 108.94V108.12C148.848 107.899 148.975 107.774 149.195 107.774H150.142V106.071C150.142 105.85 150.236 105.724 150.456 105.724H151.687C151.907 105.724 152.033 105.819 152.033 106.071V107.774C152.948 107.774 153.862 107.711 154.777 107.648C154.998 107.648 155.093 107.742 155.124 107.962L155.187 108.656H155.155ZM152.979 107.174C152.759 107.174 152.664 106.954 152.696 106.67C152.728 106.102 152.759 105.314 152.696 104.652H149.574C149.416 104.652 149.29 104.526 149.29 104.368V103.39C149.29 103.232 149.416 103.107 149.574 103.107H153.894C154.304 103.107 154.588 103.327 154.588 103.8V103.926C154.588 104.967 154.493 106.008 154.336 106.922C154.304 107.112 154.146 107.3 153.894 107.269L152.979 107.174ZM151.56 113.04C151.056 113.04 150.772 112.756 150.741 112.251L150.677 110.202C150.677 109.981 150.772 109.855 151.025 109.855H152.286C152.506 109.855 152.633 109.981 152.633 110.202V111.4H157.142C157.394 111.4 157.489 111.495 157.489 111.716V112.629C157.489 112.882 157.363 112.977 157.174 112.977L151.592 113.071L151.56 113.04ZM155.943 110.107C155.723 110.107 155.597 109.981 155.597 109.76L155.502 103.107C155.502 102.886 155.597 102.76 155.849 102.76H157.268C157.489 102.76 157.615 102.886 157.615 103.107L157.552 105.503H158.498C158.75 105.503 158.908 105.661 158.908 105.913V106.859C158.908 107.111 158.75 107.269 158.498 107.269H157.489L157.426 109.792C157.426 110.012 157.3 110.139 157.079 110.139H155.943V110.107Z" fill="#58595B"/>
<path d="M82.8472 116.196C82.8472 116.196 82.7209 116.07 82.6263 116.038C82.5317 116.007 82.4375 115.975 82.3429 115.975C82.2168 115.975 82.0903 116.007 81.9642 116.07C81.8696 116.133 81.7755 116.228 81.7124 116.386C81.6493 116.512 81.6177 116.669 81.6177 116.858C81.6177 117.048 81.6493 117.205 81.7124 117.331C81.7755 117.457 81.8696 117.584 81.9642 117.647C82.0588 117.71 82.1853 117.741 82.3429 117.741C82.4375 117.741 82.5317 117.741 82.6263 117.678C82.7209 117.647 82.7841 117.584 82.8472 117.52C82.9103 117.457 82.9419 117.363 82.9735 117.269H83.3523C83.3523 117.426 83.2575 117.552 83.1629 117.678C83.0683 117.804 82.9733 117.899 82.8156 117.962C82.658 118.025 82.5322 118.057 82.3429 118.057C82.1222 118.057 81.9332 117.994 81.7755 117.899C81.6179 117.805 81.4914 117.647 81.3968 117.457C81.3022 117.268 81.2705 117.048 81.2705 116.795C81.2705 116.543 81.3022 116.322 81.3968 116.133C81.4914 115.944 81.6179 115.818 81.7755 115.692C81.9332 115.566 82.1222 115.534 82.3429 115.534C82.5006 115.534 82.658 115.566 82.8156 115.629C82.9418 115.692 83.0683 115.786 83.1629 115.912C83.2575 116.038 83.3207 116.196 83.3523 116.354H82.9735C82.9735 116.354 82.9103 116.165 82.8472 116.102V116.196Z" fill="#58595B"/>
<path d="M84.5503 118.057H84.2031V115.66H84.5503V116.542C84.5503 116.542 84.6451 116.354 84.7397 116.322C84.8343 116.259 84.9285 116.228 85.0862 116.228C85.2123 116.228 85.3072 116.228 85.4018 116.291C85.4964 116.354 85.5597 116.417 85.6228 116.512C85.6858 116.606 85.6859 116.732 85.6859 116.89V118.025H85.3387V116.921C85.3387 116.921 85.3071 116.7 85.244 116.606C85.1809 116.542 85.0868 116.512 84.9607 116.512C84.8661 116.512 84.8028 116.511 84.7397 116.574C84.6767 116.606 84.6134 116.669 84.5819 116.732C84.5504 116.795 84.5188 116.89 84.5188 116.984V118.057H84.5503Z" fill="#58595B"/>
<path d="M86.726 115.944C86.726 115.944 86.6629 115.912 86.6313 115.881C86.6313 115.849 86.6313 115.817 86.6313 115.786C86.6313 115.754 86.6313 115.724 86.6313 115.692C86.6313 115.661 86.6945 115.629 86.726 115.629C86.7576 115.629 86.7892 115.629 86.8523 115.629C86.9154 115.629 86.9155 115.629 86.9786 115.629C87.0416 115.629 87.0417 115.661 87.0733 115.692C87.0733 115.724 87.0733 115.754 87.0733 115.786C87.0733 115.817 87.0733 115.849 87.0733 115.881C87.0733 115.912 87.0101 115.944 86.9786 115.944C86.947 115.944 86.9154 115.944 86.8523 115.944C86.7892 115.944 86.7891 115.944 86.7576 115.944H86.726ZM86.6629 116.259H87.0101V118.057H86.6629V116.259Z" fill="#58595B"/>
<path d="M88.3025 118.057H87.9561V115.66H88.3025V118.057Z" fill="#58595B"/>
<path d="M89.5328 117.992C89.5328 117.992 89.3433 117.803 89.2802 117.677C89.2172 117.551 89.1855 117.362 89.1855 117.172C89.1855 116.983 89.2172 116.825 89.2802 116.667C89.3433 116.541 89.4382 116.416 89.5643 116.353C89.6905 116.289 89.8162 116.226 89.9423 116.226C90.0369 116.226 90.1318 116.226 90.1949 116.289C90.2579 116.321 90.3211 116.353 90.3527 116.416C90.3842 116.447 90.4158 116.51 90.4474 116.573V115.69H90.7938V118.087H90.4474V117.803C90.4474 117.803 90.3842 117.898 90.3527 117.961C90.3211 117.992 90.2579 118.056 90.1949 118.087C90.1318 118.119 90.0369 118.149 89.9423 118.149C89.7847 118.149 89.6589 118.119 89.5643 118.024L89.5328 117.992ZM89.5959 117.487C89.5959 117.487 89.6899 117.645 89.7529 117.708C89.816 117.771 89.9109 117.803 90.0055 117.803C90.1001 117.803 90.1949 117.803 90.258 117.708C90.3211 117.645 90.3843 117.582 90.4158 117.487C90.4473 117.393 90.4789 117.267 90.4789 117.141C90.4789 117.015 90.4789 116.92 90.4158 116.825C90.3843 116.731 90.3211 116.667 90.258 116.604C90.1949 116.541 90.1001 116.541 90.0055 116.541C89.9109 116.541 89.816 116.541 89.7529 116.636C89.6899 116.699 89.6274 116.762 89.5959 116.857C89.5644 116.951 89.5328 117.046 89.5328 117.172C89.5328 117.299 89.5328 117.393 89.5959 117.487Z" fill="#58595B"/>
<path d="M91.7718 116.258H92.1182V116.542C92.1182 116.542 92.213 116.385 92.2761 116.321C92.3707 116.258 92.4656 116.227 92.5602 116.227C92.6232 116.227 92.6549 116.227 92.718 116.227V116.573C92.718 116.573 92.6548 116.573 92.6233 116.573C92.5917 116.573 92.5601 116.573 92.5286 116.573C92.434 116.573 92.3707 116.573 92.3076 116.636C92.2446 116.668 92.1813 116.731 92.1498 116.794C92.1183 116.857 92.0867 116.92 92.0867 117.015V118.118H91.7402V116.321L91.7718 116.258Z" fill="#58595B"/>
<path d="M93.7896 117.995C93.7896 117.995 93.5694 117.805 93.5063 117.679C93.4432 117.553 93.4116 117.364 93.4116 117.207C93.4116 117.049 93.4432 116.859 93.5063 116.733C93.5694 116.607 93.6635 116.481 93.7896 116.418C93.9158 116.355 94.0739 116.292 94.2315 116.292C94.3892 116.292 94.515 116.292 94.6411 116.387C94.7673 116.45 94.8621 116.544 94.9252 116.67C94.9883 116.796 95.0199 116.986 95.0199 117.175V117.301H93.7265C93.7265 117.301 93.7266 117.522 93.7896 117.585C93.8212 117.679 93.8844 117.742 93.979 117.774C94.0421 117.806 94.1369 117.837 94.2315 117.837C94.3261 117.837 94.4202 117.837 94.4833 117.774C94.5464 117.711 94.6096 117.679 94.6411 117.648H94.9883C94.9883 117.648 94.9251 117.837 94.8305 117.9C94.7674 117.963 94.6726 118.027 94.578 118.058C94.4834 118.09 94.3577 118.12 94.2315 118.12C94.0423 118.12 93.9158 118.09 93.7896 117.995ZM94.6727 117.017C94.6727 117.017 94.6726 116.859 94.6095 116.765C94.578 116.702 94.5148 116.638 94.4517 116.607C94.3887 116.575 94.2946 116.544 94.2315 116.544C94.1685 116.544 94.0736 116.544 93.979 116.607C93.916 116.638 93.8527 116.702 93.8212 116.765C93.7897 116.828 93.7581 116.923 93.7581 117.017H94.6727Z" fill="#58595B"/>
<path d="M96.2175 118.056H95.8711V116.258H96.2175V116.542C96.2175 116.542 96.3123 116.353 96.4069 116.321C96.5015 116.258 96.5964 116.227 96.7226 116.227C96.8487 116.227 96.9429 116.227 97.0375 116.29C97.1321 116.353 97.1953 116.416 97.2584 116.511C97.3215 116.605 97.3215 116.731 97.3215 116.889V118.024H96.9743V116.92C96.9743 116.92 96.9427 116.699 96.8796 116.605C96.8166 116.542 96.7225 116.511 96.5963 116.511C96.5017 116.511 96.4384 116.51 96.3754 116.573C96.3123 116.605 96.2491 116.668 96.2175 116.731C96.186 116.794 96.1544 116.889 96.1544 116.984V118.056H96.2175Z" fill="#58595B"/>
<path d="M98.5826 116.512H98.2993V115.66H98.5826V116.512Z" fill="#58595B"/>
<path d="M100.412 116.573C100.412 116.573 100.286 116.511 100.191 116.511C100.128 116.511 100.065 116.51 100.002 116.542C99.9386 116.542 99.9077 116.605 99.8762 116.636C99.8762 116.668 99.8446 116.7 99.8446 116.763C99.8446 116.826 99.8447 116.857 99.9077 116.889C99.9393 116.92 100.033 116.952 100.128 116.984L100.412 117.047C100.57 117.078 100.695 117.141 100.79 117.236C100.885 117.331 100.916 117.425 100.916 117.551C100.916 117.646 100.916 117.772 100.822 117.835C100.759 117.93 100.664 117.993 100.57 118.024C100.475 118.056 100.317 118.088 100.191 118.088C99.9703 118.088 99.8129 118.056 99.6868 117.961C99.5606 117.867 99.4974 117.74 99.4658 117.582H99.813C99.8446 117.74 99.9703 117.835 100.159 117.835C100.286 117.835 100.38 117.835 100.444 117.772C100.507 117.74 100.538 117.677 100.538 117.582C100.538 117.519 100.538 117.488 100.475 117.425C100.444 117.393 100.349 117.362 100.254 117.33L99.9701 117.268C99.8124 117.236 99.6867 117.173 99.5921 117.078C99.4975 116.984 99.4658 116.889 99.4658 116.763C99.4658 116.668 99.4659 116.574 99.5605 116.479C99.6236 116.385 99.6869 116.321 99.813 116.29C99.9076 116.258 100.033 116.227 100.191 116.227C100.349 116.227 100.444 116.227 100.538 116.29C100.633 116.321 100.727 116.385 100.758 116.479C100.822 116.542 100.853 116.636 100.853 116.763H100.507C100.507 116.763 100.444 116.636 100.38 116.605L100.412 116.573Z" fill="#58595B"/>
<path d="M103.093 115.66H103.975C104.133 115.66 104.291 115.659 104.385 115.754C104.512 115.817 104.575 115.88 104.638 115.975C104.701 116.07 104.732 116.165 104.732 116.291C104.732 116.417 104.701 116.543 104.606 116.637C104.543 116.732 104.448 116.763 104.322 116.795C104.322 116.795 104.48 116.858 104.575 116.89C104.638 116.953 104.7 117.016 104.763 117.111C104.826 117.205 104.827 117.299 104.827 117.425C104.827 117.552 104.826 117.678 104.732 117.773C104.669 117.867 104.575 117.962 104.449 117.994C104.322 118.057 104.164 118.088 104.007 118.088H103.093V115.692V115.66ZM103.943 116.7C103.943 116.7 104.101 116.7 104.164 116.637C104.228 116.606 104.291 116.575 104.322 116.512C104.354 116.449 104.385 116.385 104.385 116.322C104.385 116.228 104.354 116.133 104.291 116.07C104.228 116.007 104.101 115.975 103.975 115.975H103.471V116.7H103.943ZM103.975 117.741C104.133 117.741 104.259 117.71 104.354 117.646C104.448 117.583 104.48 117.489 104.48 117.394C104.48 117.331 104.48 117.237 104.417 117.174C104.354 117.111 104.322 117.047 104.259 117.016C104.196 116.984 104.101 116.953 104.007 116.953H103.471V117.71H103.975V117.741Z" fill="#58595B"/>
<path d="M105.804 117.173C105.804 117.173 106.087 117.046 106.277 117.046C106.529 117.046 106.687 117.046 106.75 117.046V116.888C106.75 116.888 106.719 116.699 106.655 116.636C106.592 116.573 106.497 116.541 106.371 116.541C106.277 116.541 106.183 116.541 106.12 116.604C106.057 116.636 106.025 116.699 105.993 116.762H105.646C105.646 116.762 105.709 116.574 105.772 116.51C105.835 116.447 105.93 116.384 106.025 116.321C106.12 116.29 106.245 116.258 106.403 116.258C106.529 116.258 106.624 116.258 106.719 116.321C106.813 116.353 106.908 116.416 106.971 116.51C107.034 116.605 107.065 116.731 107.065 116.888V118.087H106.719V117.835C106.719 117.835 106.624 117.992 106.529 118.024C106.435 118.087 106.34 118.118 106.183 118.118C106.057 118.118 105.962 118.119 105.867 118.056C105.772 118.024 105.709 117.961 105.646 117.866C105.583 117.772 105.583 117.677 105.583 117.582C105.583 117.393 105.646 117.267 105.772 117.173H105.804ZM106.056 117.772C106.056 117.772 106.214 117.835 106.308 117.835C106.403 117.835 106.498 117.835 106.561 117.772C106.624 117.74 106.687 117.677 106.719 117.614C106.75 117.551 106.782 117.487 106.782 117.424V117.267H106.371C106.245 117.267 106.151 117.298 106.088 117.361C106.025 117.393 105.993 117.487 105.993 117.551C105.993 117.614 105.993 117.708 106.088 117.74L106.056 117.772Z" fill="#58595B"/>
<path d="M108.359 117.995C108.359 117.995 108.138 117.805 108.075 117.679C108.012 117.553 107.98 117.364 107.98 117.207C107.98 117.049 108.012 116.859 108.075 116.733C108.138 116.607 108.233 116.481 108.359 116.418C108.485 116.355 108.642 116.292 108.8 116.292C108.958 116.292 109.084 116.292 109.21 116.387C109.336 116.45 109.43 116.544 109.494 116.67C109.557 116.796 109.588 116.986 109.588 117.175V117.301H108.296C108.296 117.301 108.296 117.522 108.359 117.585C108.422 117.648 108.454 117.742 108.548 117.774C108.611 117.806 108.705 117.837 108.8 117.837C108.895 117.837 108.989 117.837 109.052 117.774C109.115 117.742 109.179 117.679 109.21 117.648H109.557C109.557 117.648 109.494 117.837 109.4 117.9C109.305 117.963 109.242 118.027 109.147 118.058C109.053 118.09 108.926 118.12 108.8 118.12C108.611 118.12 108.485 118.09 108.359 117.995ZM109.242 117.017C109.242 117.017 109.242 116.859 109.179 116.765C109.147 116.702 109.084 116.638 109.021 116.607C108.958 116.575 108.863 116.544 108.8 116.544C108.737 116.544 108.643 116.544 108.548 116.607C108.485 116.638 108.422 116.702 108.39 116.765C108.359 116.828 108.327 116.923 108.327 117.017H109.242Z" fill="#58595B"/>
<path d="M110.471 115.66H110.818V117.016L111.544 116.259H111.953L111.228 117.016L112.016 118.057H111.575L110.976 117.237L110.818 117.394V118.026H110.471V115.629V115.66Z" fill="#58595B"/>
<path d="M113.12 116.259V118.183C113.12 118.372 113.057 118.498 112.962 118.593C112.868 118.688 112.71 118.751 112.521 118.751H112.458V118.435H112.521C112.521 118.435 112.647 118.435 112.71 118.372C112.741 118.34 112.773 118.277 112.773 118.183V116.259H113.12ZM112.836 115.944C112.836 115.944 112.773 115.912 112.741 115.881C112.741 115.849 112.741 115.817 112.741 115.786C112.741 115.754 112.741 115.724 112.741 115.692C112.741 115.661 112.804 115.629 112.836 115.629C112.868 115.629 112.899 115.629 112.962 115.629C113.025 115.629 113.025 115.629 113.089 115.629C113.12 115.629 113.152 115.661 113.183 115.692C113.183 115.724 113.183 115.754 113.183 115.786C113.183 115.817 113.183 115.849 113.183 115.881C113.183 115.912 113.12 115.944 113.089 115.944C113.057 115.944 113.025 115.944 112.962 115.944C112.899 115.944 112.899 115.944 112.868 115.944H112.836Z" fill="#58595B"/>
<path d="M114.381 117.995C114.381 117.995 114.161 117.805 114.098 117.679C114.035 117.553 114.003 117.364 114.003 117.207C114.003 117.049 114.035 116.859 114.098 116.733C114.161 116.607 114.255 116.481 114.381 116.418C114.508 116.355 114.666 116.292 114.823 116.292C114.981 116.292 115.107 116.292 115.233 116.387C115.359 116.481 115.454 116.544 115.517 116.67C115.58 116.796 115.643 116.986 115.643 117.175V117.301H114.35C114.35 117.301 114.35 117.522 114.413 117.585C114.476 117.648 114.508 117.742 114.602 117.774C114.665 117.806 114.76 117.837 114.855 117.837C114.95 117.837 115.044 117.837 115.107 117.774C115.17 117.742 115.233 117.679 115.264 117.648H115.612C115.612 117.648 115.548 117.837 115.454 117.9C115.391 117.963 115.296 118.027 115.201 118.058C115.107 118.09 114.981 118.12 114.855 118.12C114.666 118.12 114.539 118.09 114.413 117.995H114.381ZM115.264 117.017C115.264 117.017 115.264 116.859 115.201 116.765C115.17 116.702 115.107 116.638 115.044 116.607C114.98 116.575 114.886 116.544 114.823 116.544C114.76 116.544 114.665 116.544 114.571 116.607C114.508 116.638 114.445 116.702 114.413 116.765C114.381 116.828 114.35 116.923 114.35 117.017H115.264Z" fill="#58595B"/>
<path d="M117.819 115.66H119.332V115.975H118.197V116.7H119.269V117.016H118.197V117.741H119.364V118.057H117.85V115.66H117.819Z" fill="#58595B"/>
<path d="M120.941 116.952L121.35 116.258H121.729L121.162 117.141L121.729 118.056H121.35L120.941 117.393L120.53 118.056H120.152L120.72 117.141L120.152 116.258H120.53L120.941 116.952Z" fill="#58595B"/>
<path d="M122.549 116.259H122.895V116.542C122.895 116.542 122.958 116.448 122.99 116.385C123.022 116.353 123.085 116.29 123.148 116.259C123.211 116.227 123.306 116.196 123.4 116.196C123.558 116.196 123.684 116.227 123.778 116.322C123.873 116.416 123.968 116.511 124.062 116.637C124.157 116.763 124.157 116.953 124.157 117.142C124.157 117.331 124.125 117.488 124.062 117.646C123.999 117.772 123.904 117.899 123.81 117.962C123.684 118.025 123.558 118.088 123.432 118.088C123.274 118.088 123.179 118.056 123.116 117.993C123.053 117.93 122.99 117.867 122.927 117.772V118.718H122.58V116.227L122.549 116.259ZM122.958 117.488C122.958 117.488 123.053 117.646 123.116 117.709C123.179 117.772 123.274 117.804 123.369 117.804C123.463 117.804 123.557 117.804 123.62 117.709C123.684 117.646 123.747 117.583 123.778 117.488C123.81 117.394 123.841 117.299 123.841 117.173C123.841 117.047 123.841 116.952 123.778 116.858C123.747 116.763 123.684 116.7 123.62 116.637C123.557 116.574 123.463 116.542 123.369 116.542C123.274 116.542 123.179 116.542 123.116 116.605C123.053 116.668 122.99 116.731 122.958 116.826C122.927 116.921 122.895 117.016 122.895 117.142C122.895 117.268 122.895 117.394 122.958 117.488Z" fill="#58595B"/>
<path d="M125.355 117.995C125.355 117.995 125.135 117.805 125.072 117.679C125.009 117.553 124.977 117.364 124.977 117.207C124.977 117.049 125.009 116.859 125.072 116.733C125.135 116.607 125.229 116.481 125.355 116.418C125.481 116.355 125.639 116.292 125.797 116.292C125.955 116.292 126.08 116.292 126.207 116.387C126.333 116.481 126.428 116.544 126.491 116.67C126.554 116.796 126.585 116.986 126.585 117.175V117.301H125.292C125.292 117.301 125.292 117.522 125.355 117.585C125.418 117.648 125.45 117.742 125.544 117.774C125.608 117.806 125.702 117.837 125.797 117.837C125.892 117.837 125.986 117.837 126.049 117.774C126.112 117.742 126.175 117.679 126.207 117.648H126.554C126.554 117.648 126.491 117.837 126.396 117.9C126.333 117.963 126.238 118.027 126.143 118.058C126.049 118.09 125.923 118.12 125.797 118.12C125.608 118.12 125.481 118.09 125.355 117.995ZM126.238 117.017C126.238 117.017 126.238 116.859 126.175 116.765C126.112 116.67 126.08 116.638 126.017 116.607C125.954 116.575 125.86 116.544 125.797 116.544C125.734 116.544 125.639 116.544 125.544 116.607C125.481 116.638 125.418 116.702 125.387 116.765C125.355 116.828 125.323 116.923 125.323 117.017H126.238Z" fill="#58595B"/>
<path d="M127.469 116.258H127.815V116.542C127.815 116.542 127.91 116.385 127.973 116.321C128.067 116.258 128.162 116.227 128.257 116.227C128.32 116.227 128.351 116.227 128.414 116.227V116.573C128.414 116.573 128.352 116.573 128.32 116.573C128.289 116.573 128.257 116.573 128.225 116.573C128.131 116.573 128.067 116.573 128.004 116.636C127.941 116.668 127.878 116.731 127.847 116.794C127.815 116.857 127.783 116.92 127.783 117.015V118.118H127.437V116.321L127.469 116.258Z" fill="#58595B"/>
<path d="M129.266 115.944C129.266 115.944 129.202 115.912 129.171 115.881C129.171 115.849 129.171 115.817 129.171 115.786C129.171 115.754 129.171 115.724 129.171 115.692C129.171 115.661 129.234 115.629 129.266 115.629C129.297 115.629 129.329 115.629 129.392 115.629C129.455 115.629 129.455 115.629 129.518 115.629C129.55 115.629 129.581 115.661 129.613 115.692C129.613 115.724 129.613 115.754 129.613 115.786C129.613 115.817 129.613 115.849 129.613 115.881C129.613 115.912 129.55 115.944 129.518 115.944C129.487 115.944 129.455 115.944 129.392 115.944C129.329 115.944 129.329 115.944 129.297 115.944H129.266ZM129.202 116.259H129.55V118.057H129.202V116.259Z" fill="#58595B"/>
<path d="M130.811 117.995C130.811 117.995 130.59 117.805 130.527 117.679C130.464 117.553 130.433 117.364 130.433 117.207C130.433 117.049 130.464 116.859 130.527 116.733C130.59 116.607 130.684 116.481 130.811 116.418C130.937 116.355 131.095 116.292 131.253 116.292C131.41 116.292 131.536 116.292 131.662 116.387C131.788 116.45 131.883 116.544 131.946 116.67C132.009 116.796 132.041 116.986 132.041 117.175V117.301H130.747C130.747 117.301 130.748 117.522 130.811 117.585C130.874 117.648 130.905 117.742 131 117.774C131.063 117.806 131.158 117.837 131.253 117.837C131.347 117.837 131.441 117.837 131.504 117.774C131.567 117.711 131.631 117.679 131.662 117.648H132.009C132.009 117.648 131.946 117.837 131.851 117.9C131.788 117.963 131.694 118.027 131.599 118.058C131.504 118.09 131.379 118.12 131.253 118.12C131.063 118.12 130.937 118.09 130.811 117.995ZM131.694 117.017C131.694 117.017 131.694 116.859 131.631 116.765C131.567 116.67 131.537 116.638 131.473 116.607C131.41 116.575 131.316 116.544 131.253 116.544C131.189 116.544 131.095 116.544 131 116.607C130.937 116.638 130.874 116.702 130.842 116.765C130.811 116.828 130.779 116.923 130.779 117.017H131.694Z" fill="#58595B"/>
<path d="M133.239 118.056H132.892V116.258H133.239V116.542C133.239 116.542 133.333 116.353 133.428 116.321C133.523 116.258 133.617 116.227 133.744 116.227C133.87 116.227 133.964 116.227 134.058 116.29C134.153 116.353 134.216 116.416 134.279 116.511C134.342 116.605 134.343 116.731 134.343 116.889V118.024H133.995V116.92C133.995 116.92 133.964 116.699 133.901 116.605C133.838 116.542 133.743 116.511 133.617 116.511C133.523 116.511 133.459 116.51 133.396 116.573C133.333 116.605 133.27 116.668 133.239 116.731C133.207 116.794 133.175 116.889 133.175 116.984V118.056H133.239Z" fill="#58595B"/>
<path d="M135.667 117.995C135.667 117.995 135.447 117.805 135.384 117.679C135.321 117.553 135.289 117.364 135.289 117.207C135.289 117.049 135.321 116.859 135.384 116.733C135.447 116.607 135.541 116.481 135.667 116.418C135.793 116.355 135.951 116.292 136.109 116.292C136.235 116.292 136.361 116.292 136.487 116.355C136.582 116.418 136.676 116.481 136.74 116.575C136.803 116.67 136.834 116.765 136.866 116.891H136.519C136.519 116.891 136.455 116.733 136.392 116.67C136.329 116.607 136.235 116.575 136.141 116.575C136.046 116.575 135.951 116.575 135.888 116.638C135.825 116.702 135.762 116.765 135.73 116.859C135.699 116.954 135.667 117.049 135.667 117.175C135.667 117.301 135.667 117.427 135.73 117.521C135.793 117.616 135.825 117.679 135.888 117.742C135.951 117.806 136.046 117.806 136.141 117.806C136.235 117.806 136.329 117.805 136.392 117.711C136.455 117.616 136.519 117.585 136.519 117.49H136.866C136.866 117.49 136.803 117.711 136.74 117.806C136.676 117.9 136.582 117.963 136.487 118.027C136.392 118.09 136.267 118.09 136.109 118.09C135.951 118.09 135.793 118.058 135.667 117.963V117.995Z" fill="#58595B"/>
<path d="M138.001 117.995C138.001 117.995 137.78 117.805 137.717 117.679C137.654 117.553 137.623 117.364 137.623 117.207C137.623 117.049 137.654 116.859 137.717 116.733C137.78 116.607 137.874 116.481 138.001 116.418C138.127 116.355 138.285 116.292 138.442 116.292C138.6 116.292 138.726 116.292 138.852 116.387C138.978 116.45 139.073 116.544 139.136 116.67C139.199 116.796 139.231 116.986 139.231 117.175V117.301H137.937C137.937 117.301 137.937 117.522 138.001 117.585C138.032 117.679 138.095 117.742 138.19 117.774C138.253 117.806 138.348 117.837 138.442 117.837C138.537 117.837 138.631 117.837 138.694 117.774C138.757 117.711 138.821 117.679 138.852 117.648H139.199C139.199 117.648 139.136 117.837 139.041 117.9C138.978 117.963 138.884 118.027 138.789 118.058C138.694 118.09 138.569 118.12 138.442 118.12C138.253 118.12 138.127 118.09 138.001 117.995ZM138.884 117.017C138.884 117.017 138.884 116.859 138.82 116.765C138.789 116.702 138.726 116.638 138.663 116.607C138.6 116.575 138.506 116.544 138.442 116.544C138.379 116.544 138.285 116.544 138.19 116.607C138.127 116.638 138.064 116.702 138.032 116.765C138.001 116.828 137.969 116.923 137.969 117.017H138.884Z" fill="#58595B"/>
<path d="M142.951 116.196C142.951 116.196 142.825 116.07 142.73 116.038C142.636 116.007 142.542 115.975 142.447 115.975C142.321 115.975 142.194 116.007 142.068 116.07C141.974 116.133 141.879 116.228 141.816 116.386C141.753 116.512 141.722 116.669 141.722 116.858C141.722 117.048 141.721 117.205 141.816 117.331C141.879 117.457 141.974 117.584 142.068 117.647C142.163 117.71 142.289 117.741 142.447 117.741C142.542 117.741 142.636 117.741 142.73 117.678C142.825 117.647 142.888 117.583 142.951 117.52C143.014 117.457 143.046 117.363 143.078 117.269H143.456C143.456 117.426 143.362 117.552 143.299 117.678C143.204 117.804 143.078 117.899 142.951 117.962C142.825 118.025 142.668 118.057 142.479 118.057C142.258 118.057 142.068 117.994 141.911 117.899C141.753 117.805 141.627 117.646 141.533 117.457C141.438 117.268 141.406 117.047 141.406 116.795C141.406 116.543 141.438 116.322 141.533 116.133C141.627 115.944 141.753 115.818 141.911 115.692C142.068 115.597 142.258 115.534 142.479 115.534C142.636 115.534 142.794 115.566 142.951 115.629C143.078 115.692 143.204 115.786 143.299 115.912C143.393 116.038 143.456 116.196 143.487 116.354H143.109C143.109 116.354 143.046 116.165 142.983 116.102L142.951 116.196Z" fill="#58595B"/>
<path d="M144.623 117.995C144.623 117.995 144.402 117.805 144.339 117.679C144.276 117.553 144.244 117.364 144.244 117.207C144.244 117.049 144.276 116.859 144.339 116.733C144.402 116.607 144.497 116.481 144.623 116.418C144.749 116.355 144.906 116.292 145.064 116.292C145.222 116.292 145.348 116.292 145.474 116.387C145.601 116.45 145.695 116.544 145.758 116.67C145.821 116.796 145.852 116.986 145.852 117.175V117.301H144.56C144.56 117.301 144.56 117.522 144.623 117.585C144.654 117.679 144.718 117.742 144.812 117.774C144.875 117.806 144.969 117.837 145.064 117.837C145.159 117.837 145.254 117.837 145.317 117.774C145.38 117.711 145.443 117.679 145.474 117.648H145.821C145.821 117.648 145.758 117.837 145.664 117.9C145.601 117.963 145.506 118.027 145.411 118.058C145.317 118.09 145.19 118.12 145.064 118.12C144.875 118.12 144.749 118.09 144.623 117.995ZM145.506 117.017C145.506 117.017 145.506 116.859 145.443 116.765C145.411 116.702 145.348 116.638 145.285 116.607C145.222 116.575 145.127 116.544 145.064 116.544C145.001 116.544 144.907 116.544 144.812 116.607C144.749 116.638 144.686 116.702 144.654 116.765C144.623 116.828 144.591 116.923 144.591 117.017H145.506Z" fill="#58595B"/>
<path d="M147.083 118.056H146.735V116.258H147.083V116.542C147.083 116.542 147.177 116.353 147.271 116.321C147.366 116.258 147.461 116.227 147.587 116.227C147.713 116.227 147.808 116.227 147.902 116.29C147.997 116.353 148.06 116.416 148.123 116.511C148.186 116.605 148.186 116.731 148.186 116.889V118.024H147.839V116.92C147.839 116.92 147.808 116.699 147.745 116.605C147.682 116.542 147.587 116.511 147.461 116.511C147.366 116.511 147.303 116.51 147.24 116.573C147.177 116.605 147.114 116.668 147.083 116.731C147.051 116.794 147.019 116.889 147.019 116.984V118.056H147.083Z" fill="#58595B"/>
<path d="M150.015 116.542H149.636V117.52C149.636 117.52 149.636 117.678 149.699 117.71C149.731 117.741 149.794 117.773 149.857 117.773C149.92 117.773 149.984 117.773 150.047 117.773V118.088C150.047 118.088 149.92 118.088 149.826 118.088C149.731 118.088 149.637 118.088 149.574 118.025C149.479 117.994 149.416 117.931 149.384 117.867C149.321 117.804 149.321 117.71 149.321 117.615V116.542H149.069V116.259H149.321V115.817H149.668V116.259H150.047V116.542H150.015Z" fill="#58595B"/>
<path d="M151.151 117.995C151.151 117.995 150.93 117.805 150.867 117.679C150.804 117.553 150.772 117.364 150.772 117.207C150.772 117.049 150.804 116.859 150.867 116.733C150.93 116.607 151.025 116.481 151.151 116.418C151.277 116.355 151.434 116.292 151.592 116.292C151.75 116.292 151.875 116.292 152.001 116.387C152.128 116.481 152.222 116.544 152.286 116.67C152.349 116.796 152.38 116.986 152.38 117.175V117.301H151.088C151.088 117.301 151.088 117.522 151.151 117.585C151.214 117.648 151.245 117.742 151.339 117.774C151.402 117.806 151.497 117.837 151.592 117.837C151.686 117.837 151.781 117.837 151.844 117.774C151.907 117.742 151.97 117.679 152.001 117.648H152.349C152.349 117.648 152.285 117.837 152.191 117.9C152.128 117.963 152.034 118.027 151.939 118.058C151.845 118.09 151.718 118.12 151.592 118.12C151.403 118.12 151.277 118.09 151.151 117.995ZM152.033 117.017C152.033 117.017 152.034 116.859 151.971 116.765C151.939 116.702 151.876 116.638 151.813 116.607C151.75 116.575 151.655 116.544 151.592 116.544C151.529 116.544 151.434 116.544 151.339 116.607C151.276 116.638 151.214 116.702 151.182 116.765C151.151 116.828 151.119 116.923 151.119 117.017H152.033Z" fill="#58595B"/>
<path d="M153.263 116.258H153.609V116.542C153.609 116.542 153.704 116.385 153.767 116.321C153.862 116.258 153.957 116.227 154.051 116.227C154.114 116.227 154.146 116.227 154.209 116.227V116.573C154.209 116.573 154.146 116.573 154.114 116.573C154.083 116.573 154.051 116.573 154.02 116.573C153.925 116.573 153.862 116.573 153.799 116.636C153.736 116.668 153.673 116.731 153.641 116.794C153.609 116.857 153.578 116.92 153.578 117.015V118.118H153.231V116.321L153.263 116.258Z" fill="#58595B"/>
<path d="M101.484 67.3796L100.884 67.0639C100.884 67.0639 100.727 67.0324 100.633 67.0639L100.033 67.3796C99.8438 67.4742 99.6234 67.3162 99.655 67.0955L99.7812 66.4334C99.7812 66.4334 99.7812 66.2755 99.7181 66.2125L99.2446 65.7398C99.2446 65.7398 99.1817 65.3294 99.4024 65.2978L100.065 65.2039C100.065 65.2039 100.222 65.1407 100.254 65.0777L100.57 64.4787C100.664 64.2895 100.948 64.2895 101.042 64.4787L101.358 65.0777C101.358 65.0777 101.452 65.2039 101.547 65.2039L102.209 65.2978C102.43 65.2978 102.493 65.5821 102.335 65.7398L101.831 66.2125C101.831 66.2125 101.736 66.3703 101.768 66.4334L101.894 67.0955C101.925 67.3162 101.705 67.4742 101.516 67.3796H101.484Z" fill="#DC2226"/>
<path d="M134.532 79.7417L133.555 79.2374C133.555 79.2374 133.302 79.1744 133.176 79.2374L132.199 79.7417C131.884 79.8994 131.536 79.6474 131.599 79.3006L131.789 78.2281C131.789 78.2281 131.789 77.9447 131.662 77.8501L130.874 77.0933C130.622 76.8411 130.78 76.4304 131.095 76.3989L132.167 76.2418C132.167 76.2418 132.419 76.147 132.482 76.0209L132.956 75.0431C133.113 74.7278 133.555 74.7278 133.681 75.0431L134.154 76.0209C134.154 76.0209 134.343 76.2418 134.469 76.2418L135.541 76.3989C135.888 76.462 136.014 76.8726 135.762 77.0933L134.974 77.8501C134.974 77.8501 134.816 78.0705 134.847 78.2281L135.037 79.3006C135.1 79.6474 134.753 79.8994 134.438 79.7417H134.532Z" fill="#49A1DA"/>
<path d="M132.45 52.3374C132.261 52.1482 132.04 51.9593 131.82 51.8016C130.779 51.0448 129.676 50.7923 129.676 50.7923C128.635 49.7832 127.185 49.6253 125.955 49.7199C124.756 49.8145 123.81 50.1618 123.652 50.1933C122.769 51.3601 121.981 52.9684 121.792 54.9866C125.166 54.3244 128.792 53.4726 132.419 52.3059L132.45 52.3374Z" fill="#28449C"/>
<path d="M121.824 55.0197C122.013 52.97 122.769 51.3933 123.684 50.2265C122.927 49.8481 122.17 49.5642 121.476 49.375C116.967 48.1136 113.783 50.0998 112.427 51.2035C112.111 52.7171 111.827 54.5151 111.638 56.5018C114.634 56.2179 118.103 55.745 121.855 55.0197H121.824Z" fill="#EF3924"/>
<path d="M112.363 51.2021C111.89 51.5806 111.67 51.865 111.67 51.865C111.638 51.865 111.575 51.865 111.512 51.865C109.115 51.7704 105.93 53.1891 104.731 57.0047C106.434 56.9416 108.768 56.8158 111.543 56.532C111.733 54.5454 112.016 52.7474 112.332 51.2337L112.363 51.2021Z" fill="#00AACC"/>
<path d="M123.021 67.7913C121.823 68.8319 120.814 69.8415 120.026 70.6929C120.341 70.6929 120.625 70.7561 120.909 70.7876C122.864 71.0399 124.189 71.6705 122.643 73.058C122.17 73.4679 121.823 73.8459 121.508 74.2243C118.481 77.8508 122.517 79.3017 122.517 79.3017C120.814 76.3375 123.305 75.4229 126.206 74.4453C128.54 73.6569 131.158 72.8058 132.072 70.7876C132.072 70.7561 132.072 70.7245 132.104 70.6929C132.388 70.0307 132.608 69.4313 132.734 68.8637C129.171 68.643 125.923 68.2958 122.99 67.8228L123.021 67.7913Z" fill="#EE396F"/>
<path d="M132.766 68.8307C133.049 67.664 133.049 66.6866 132.797 65.8667C132.671 65.4252 132.451 65.0149 132.198 64.6365C131.788 64.0688 131.252 63.596 130.59 63.2491C127.626 64.2898 125.039 66.0555 122.99 67.7899C125.922 68.2314 129.171 68.61 132.734 68.8307H132.766Z" fill="#F8D62C"/>
<path d="M122.044 58.3922C123.022 58.6445 123.936 58.9599 124.662 59.3068C125.734 59.8114 126.743 60.1268 127.657 60.2214C131.568 60.6629 133.965 57.7936 133.681 55.0186C133.555 53.8203 133.05 52.9686 132.419 52.3379C128.761 53.5047 125.167 54.3564 121.792 55.0186C121.698 56.0277 121.793 57.1624 122.013 58.3922H122.044Z" fill="#F9A13F"/>
<path d="M123.021 67.7908C118.607 67.0971 114.854 66.214 111.827 65.3311C112.11 67.0339 112.584 68.737 113.278 70.3137C114.445 70.629 115.453 70.7555 116.084 70.6925C116.147 70.6925 116.21 70.6925 116.273 70.6925C117.283 70.6294 118.701 70.5979 119.994 70.6925C120.783 69.8411 121.792 68.8314 122.99 67.7908H123.021Z" fill="#8759A5"/>
<path d="M121.824 55.018C118.071 55.7433 114.571 56.2162 111.607 56.5C111.354 59.2435 111.322 62.3332 111.859 65.329C114.886 66.2119 118.607 67.1265 123.053 67.7887C125.103 66.0543 127.689 64.2886 130.654 63.248C130.433 63.1219 130.211 63.0277 129.959 62.9015C127.783 61.9871 124.883 61.9867 122.707 62.5543C119.995 63.2481 115.233 63.9732 115.737 60.8514C116.021 59.0855 117.188 58.329 118.67 58.1083C119.743 57.9506 120.94 58.1078 122.107 58.36C121.855 57.1302 121.792 55.9955 121.887 54.9865L121.824 55.018Z" fill="#49A1DA"/>
<path d="M104.606 62.7129C105.836 67.1592 110.156 69.4609 113.309 70.3123C112.616 68.7356 112.142 67.0325 111.858 65.3297C108.673 64.3837 106.246 63.4382 104.638 62.7129H104.606Z" fill="#B0D235"/>
<path d="M111.575 56.5021C108.8 56.7859 106.466 56.9117 104.763 56.9748C104.7 57.164 104.637 57.3214 104.606 57.5106C104.511 57.8575 104.448 58.2362 104.385 58.6146C104.227 59.7814 104.227 60.822 104.385 61.7996C104.448 62.1149 104.511 62.4304 104.574 62.7458C106.182 63.4711 108.61 64.4166 111.795 65.3626C111.29 62.3668 111.291 59.3086 111.543 56.5336L111.575 56.5021Z" fill="#32499E"/>
<path d="M116.116 167.784H95.8081V210.86H116.116V167.784Z" fill="#EBEBEB"/>
<path d="M138.569 167.784H118.26V210.86H138.569V167.784Z" fill="#EBEBEB"/>
<path d="M241 61.9736H232.597V218.27H241V61.9736Z" fill="#808285"/>
<path d="M240.613 61.2648V56.3768H166.571V61.9269H240.613V61.2648Z" fill="#808285"/>
<path d="M89.2175 139.878H73.6714V164.38H89.2175V139.878Z" fill="#A0DDF7"/>
<path d="M107.792 139.878H92.2446V164.38H107.792V139.878Z" fill="#A0DDF7"/>
<path d="M126.364 139.878H110.818V164.38H126.364V139.878Z" fill="#A0DDF7"/>
<path d="M144.938 139.878H129.392V164.38H144.938V139.878Z" fill="#A0DDF7"/>
<path d="M163.512 139.878H147.966V164.38H163.512V139.878Z" fill="#A0DDF7"/>
<path d="M169.913 25H66.6392V32.1891H169.913V25Z" fill="#808285"/>
<path d="M20 210.862H69.8557V111.466H34.3798L20 124.489V210.862Z" fill="#EBEBEB"/>
<path d="M69.8559 99.5791H32.4561V101.251H69.8559V99.5791Z" fill="#808285"/>
<path d="M67.6484 111.467V100.146H65.977V111.467H67.6484Z" fill="#808285"/>
<path d="M62.729 111.468V100.146H61.0576V111.468H62.729Z" fill="#808285"/>
<path d="M57.8408 111.436V100.115H56.1694V111.436H57.8408Z" fill="#808285"/>
<path d="M52.9214 111.436V100.115H51.25V111.436H52.9214Z" fill="#808285"/>
<path d="M48.0029 111.467V100.146H46.3315V111.467H48.0029Z" fill="#808285"/>
<path d="M43.083 111.467V100.146H41.4116V111.467H43.083Z" fill="#808285"/>
<path d="M38.1953 111.436V100.115H36.5239V111.436H38.1953Z" fill="#808285"/>
<path d="M44.1233 125.783H34.001V135.905H44.1233V125.783Z" fill="#A0DDF7"/>
<path d="M55.8225 125.783H45.7002V135.905H55.8225V125.783Z" fill="#A0DDF7"/>
<path d="M44.1233 137.481H34.001V147.604H44.1233V137.481Z" fill="#A0DDF7"/>
<path d="M55.8225 137.481H45.7002V147.604H55.8225V137.481Z" fill="#A0DDF7"/>
<path d="M44.1233 149.212H34.001V159.334H44.1233V149.212Z" fill="#A0DDF7"/>
<path d="M55.8225 149.212H45.7002V159.334H55.8225V149.212Z" fill="#A0DDF7"/>
<path d="M69.5779 170.373H20V218.27H69.5779V170.373Z" fill="#A7A9AC"/>
<path d="M51.2819 183.837H38.542V210.862H51.2819V183.837Z" fill="#6D6E71"/>
<path d="M171.08 130.64H64.936V141.14H171.08V130.64Z" fill="#939598"/>
</g>
<defs>
<filter id="filter0_d_1185_42473" x="0" y="0" width="271" height="243.27" filterUnits="userSpaceOnUse" color-interpolation-filters="sRGB">
<feFlood flood-opacity="0" result="BackgroundImageFix"/>
<feColorMatrix in="SourceAlpha" type="matrix" values="0 0 0 0 0 0 0 0 0 0 0 0 0 0 0 0 0 0 127 0" result="hardAlpha"/>
<feOffset dx="5"/>
<feGaussianBlur stdDeviation="12.5"/>
<feComposite in2="hardAlpha" operator="out"/>
<feColorMatrix type="matrix" values="0 0 0 0 0 0 0 0 0 0.145833 0 0 0 0 0.0933333 0 0 0 0.1 0"/>
<feBlend mode="normal" in2="BackgroundImageFix" result="effect1_dropShadow_1185_42473"/>
<feBlend mode="normal" in="SourceGraphic" in2="effect1_dropShadow_1185_42473" result="shape"/>
</filter>
</defs>
</svg>
