<svg width="163" height="133" viewBox="0 0 163 133" fill="none" xmlns="http://www.w3.org/2000/svg">
<path d="M142.204 7.30609C143.207 8.73978 144.823 9.15025 146.118 8.59721L145.612 7.8736C144.704 8.21658 143.579 7.87531 142.87 6.86091C142.004 5.62333 142.283 4.07873 143.548 3.19441C144.819 2.30537 146.355 2.57112 147.225 3.81546C147.915 4.80281 147.875 5.86823 147.271 6.63253L147.777 7.35614C148.715 6.27764 148.85 4.7431 147.871 3.34322C146.727 1.70665 144.688 1.33992 143.052 2.48433C141.415 3.62874 141.06 5.66952 142.204 7.30609Z" fill="#353F86"/>
<path d="M152.355 10.0023L146.332 13.1943L146.73 13.9453L148.888 12.8014C149.661 12.3918 150.625 12.5535 151.011 13.2827C151.371 13.9608 151.128 14.6125 150.282 15.0608L147.97 16.2858L148.368 17.0368L150.811 15.7422C151.934 15.1471 152.274 14.0796 151.752 13.0953C151.347 12.3297 150.665 12.0838 150.266 12.0711L152.753 10.7533L152.355 10.0023Z" fill="#353F86"/>
<path d="M156.53 18.1047C156.404 17.8083 156.091 17.681 155.794 17.8063C155.498 17.9315 155.37 18.2451 155.496 18.5416C155.624 18.8456 155.938 18.9729 156.234 18.8476C156.531 18.7224 156.658 18.4088 156.53 18.1047ZM150.334 21.1885L154.69 19.348L154.359 18.565L150.003 20.4056L150.334 21.1885Z" fill="#353F86"/>
<path d="M152.102 25.5854L158.538 23.3403L158.258 22.5378L151.822 24.7829L152.102 25.5854Z" fill="#353F86"/>
<path d="M153.783 31.1832C153.992 32.0156 154.532 32.4755 154.983 32.6092L154.302 32.7799L154.509 33.6043L161.121 31.9454L160.914 31.1209L158.2 31.8018C158.534 31.4713 158.794 30.8106 158.585 29.9782C158.26 28.6815 156.984 27.9721 155.616 28.3156C154.247 28.659 153.457 29.8866 153.783 31.1832ZM154.529 31.0725C154.298 30.152 154.866 29.363 155.818 29.124C156.771 28.885 157.644 29.3125 157.875 30.233C158.108 31.1614 157.548 31.9825 156.596 32.2215C155.643 32.4605 154.762 32.001 154.529 31.0725Z" fill="#353F86"/>
<path d="M160.063 36.9274L155.393 37.6137L155.516 38.4546L157.933 38.0995C158.782 37.9747 159.648 38.5314 159.788 39.4866C159.83 39.7724 159.815 40.0082 159.76 40.1998L160.56 40.0822C160.593 39.9105 160.59 39.7191 160.548 39.4334C160.414 38.519 159.849 38.0264 159.468 37.8739L160.186 37.7683L160.063 36.9274Z" fill="#353F86"/>
<path d="M156.28 45.9869C156.334 47.0665 156.962 47.8858 157.791 48.1L157.748 47.2346C157.351 47.0812 157.029 46.5934 156.997 45.9506C156.954 45.11 157.526 44.4944 158.329 44.3628L158.525 48.2198C158.641 48.2305 158.764 48.2242 158.871 48.2188C160.289 48.147 161.294 47.1129 161.225 45.7366C161.155 44.3602 160.05 43.4246 158.632 43.4964C157.215 43.5682 156.21 44.6106 156.28 45.9869ZM159.175 47.3689L159.022 44.3278C159.842 44.3771 160.465 44.924 160.508 45.7729C160.551 46.6217 159.995 47.2283 159.175 47.3689Z" fill="#353F86"/>
<path d="M161.331 52.0517L156.618 51.7919L156.571 52.6406L159.01 52.775C159.883 52.8231 160.625 53.4591 160.58 54.283C160.538 55.0493 159.993 55.4821 159.037 55.4294L156.425 55.2855L156.379 56.1341L159.139 56.2863C160.408 56.3562 161.25 55.6175 161.311 54.5052C161.359 53.64 160.902 53.0777 160.567 52.8608L161.284 52.9003L161.331 52.0517Z" fill="#353F86"/>
<path d="M161.868 61.1896L162.768 61.3118L162.894 60.3796L161.946 60.2508L161.883 60.7169C161.466 60.6602 161.221 60.4355 161.172 60.0624L160.714 60.0002C160.751 60.6465 161.222 61.1019 161.868 61.1896Z" fill="#353F86"/>
<path d="M159.867 66.5125C160.113 65.3838 159.778 64.4067 158.963 64.2289C158.157 64.0528 157.627 64.5452 157.183 65.7659C156.797 66.8387 156.502 67.1459 156.123 67.0632C155.712 66.9734 155.539 66.3698 155.694 65.6604C155.874 64.838 156.328 64.498 156.702 64.5289L156.88 63.7146C156.061 63.595 155.292 64.2548 155.022 65.4883C154.772 66.6331 155.098 67.6926 155.993 67.888C156.711 68.0447 157.27 67.6515 157.758 66.3054C158.158 65.2101 158.455 64.971 158.834 65.0537C159.181 65.1294 159.341 65.6712 159.195 66.3404C159.049 67.0095 158.66 67.4737 158.266 67.4214L158.088 68.2357C158.879 68.3662 159.62 67.6412 159.867 66.5125Z" fill="#353F86"/>
<path d="M158.456 78.4878L152.345 75.9694L151.222 78.6932C150.657 80.0665 150.998 81.1443 152.051 81.5782C152.806 81.8895 153.571 81.571 153.994 80.9333C153.898 81.5361 154.291 82.1623 154.863 82.3981C155.909 82.8289 156.872 82.3331 157.428 80.9827L158.456 78.4878ZM154.744 79.8499L155.433 78.179L157.432 79.0028L156.743 80.6737C156.394 81.5206 155.845 81.8566 155.197 81.5894C154.548 81.3221 154.395 80.6968 154.744 79.8499ZM151.926 78.9564L152.709 77.0566L154.769 77.9055L153.986 79.8053C153.634 80.6598 153.055 81.0461 152.384 80.7695C151.713 80.4928 151.574 79.8109 151.926 78.9564Z" fill="#353F86"/>
<path d="M147.859 85.7363C147.44 86.4854 147.519 87.191 147.755 87.5972L147.142 87.2549L146.728 87.9968L150.848 90.3002L151.262 89.5583L150.65 89.216C151.12 89.2044 151.762 88.9016 152.181 88.1525C152.833 86.9856 152.391 85.5946 151.159 84.906C149.928 84.2174 148.511 84.5695 147.859 85.7363ZM148.478 86.1676C148.941 85.3393 149.896 85.1543 150.753 85.6335C151.61 86.1127 151.952 87.0225 151.489 87.8508C151.022 88.6864 150.052 88.9002 149.194 88.421C148.337 87.9418 148.011 87.0031 148.478 86.1676Z" fill="#353F86"/>
<path d="M143.317 93.2027C142.69 94.0832 142.674 95.1154 143.191 95.7977L143.694 95.092C143.478 94.7258 143.528 94.1435 143.902 93.6192C144.39 92.9337 145.221 92.806 145.932 93.2012L143.691 96.3467C143.776 96.4272 143.877 96.499 143.964 96.5613C145.12 97.3848 146.55 97.1978 147.35 96.0754C148.149 94.9529 147.863 93.5335 146.707 92.71C145.551 91.8865 144.117 92.0802 143.317 93.2027ZM144.73 96.0835L146.497 93.6034C147.109 94.1513 147.258 94.9665 146.765 95.6588C146.272 96.3511 145.459 96.4816 144.73 96.0835Z" fill="#353F86"/>
<path d="M137.758 100.448L137.09 101.201L140.514 101.458L140.753 104.185L141.415 103.438L141.087 100.003L144.544 103.07L145.108 102.434L140.009 97.9106L139.445 98.5464L140.328 99.3295L140.444 100.679L137.758 100.448Z" fill="#353F86"/>
<path d="M138.244 108.313C138.004 108.54 137.994 108.878 138.215 109.112C138.436 109.346 138.774 109.356 139.014 109.129C139.248 108.908 139.258 108.57 139.037 108.336C138.816 108.102 138.478 108.092 138.244 108.313ZM133.436 102.082C132.885 102.603 132.906 103.286 133.433 103.844L137.206 107.84L137.824 107.256L134.079 103.291C133.824 103.021 133.82 102.74 134.054 102.519C134.168 102.412 134.294 102.316 134.43 102.244L133.926 101.71C133.765 101.805 133.598 101.929 133.436 102.082Z" fill="#353F86"/>
<path d="M129.22 108.481C128.374 109.154 128.074 110.141 128.382 110.94L129.06 110.401C128.954 109.989 129.163 109.443 129.667 109.043C130.326 108.519 131.159 108.625 131.734 109.202L128.711 111.606C128.77 111.707 128.847 111.803 128.914 111.887C129.798 112.998 131.224 113.213 132.302 112.356C133.381 111.498 133.498 110.055 132.615 108.944C131.731 107.833 130.299 107.623 129.22 108.481ZM129.782 111.64L132.165 109.744C132.603 110.44 132.521 111.265 131.855 111.794C131.19 112.323 130.374 112.224 129.782 111.64Z" fill="#353F86"/>
<path d="M123.86 120.564L120.72 114.747L116.523 117.013L116.887 117.688L120.322 115.834L121.38 117.795L118.265 119.476L118.63 120.152L121.745 118.47L122.733 120.3L119.363 122.119L119.728 122.794L123.86 120.564Z" fill="#353F86"/>
<path d="M112.649 121.527L113.518 118.594L112.608 118.962L111.953 121.195L109.93 120.046L108.967 120.436L111.661 121.945L110.83 124.774L111.74 124.406L112.356 122.278L114.264 123.384L115.228 122.994L112.649 121.527Z" fill="#353F86"/>
<path d="M103.235 122.266C101.947 122.625 101.272 123.919 101.651 125.278C102.03 126.638 103.277 127.395 104.565 127.036C105.392 126.805 105.837 126.253 105.959 125.799L106.148 126.474L106.966 126.246L105.16 119.768L104.341 119.996L105.068 122.603C104.729 122.278 104.062 122.036 103.235 122.266ZM103.508 122.97C104.43 122.713 105.266 123.251 105.53 124.197C105.793 125.142 105.357 126.035 104.435 126.292C103.521 126.547 102.717 126 102.453 125.054C102.19 124.108 102.594 123.225 103.508 122.97Z" fill="#353F86"/>
<path d="M95.1462 124.174C94.0785 124.343 93.3306 125.054 93.2056 125.901L94.0614 125.766C94.172 125.356 94.6227 124.984 95.2585 124.883C96.0898 124.751 96.7627 125.255 96.9788 126.039L93.1643 126.643C93.1661 126.76 93.1854 126.882 93.2022 126.988C93.4241 128.39 94.5591 129.28 95.9203 129.064C97.2814 128.849 98.0944 127.651 97.8725 126.249C97.6506 124.847 96.5074 123.958 95.1462 124.174ZM94.0796 127.2L97.0871 126.724C97.1252 127.545 96.6475 128.222 95.808 128.355C94.9685 128.488 94.3064 128 94.0796 127.2Z" fill="#353F86"/>
<path d="M89.6848 129.821L89.3945 125.11L88.5461 125.162L88.6964 127.6C88.7492 128.457 88.1215 129.273 87.1578 129.332C86.8696 129.35 86.6359 129.315 86.4496 129.244L86.4994 130.051C86.6676 130.098 86.8586 130.111 87.1469 130.093C88.0694 130.037 88.6077 129.516 88.7918 129.149L88.8365 129.874L89.6848 129.821Z" fill="#353F86"/>
<path d="M82.5539 132.32C82.8757 132.324 83.1177 132.087 83.1214 131.765C83.1251 131.444 82.8885 131.202 82.5667 131.198C82.2366 131.194 81.9946 131.431 81.9909 131.753C81.9873 132.074 82.2238 132.316 82.5539 132.32ZM82.2036 125.409L82.1496 130.137L82.9996 130.147L83.0535 125.418L82.2036 125.409Z" fill="#353F86"/>
<path d="M76.2901 125.073C75.214 124.97 74.3122 125.473 73.98 126.262L74.8426 126.344C75.0519 125.974 75.5812 125.726 76.222 125.787C77.0599 125.867 77.586 126.523 77.5996 127.336L73.7551 126.97C73.7277 127.083 73.7159 127.206 73.7057 127.313C73.571 128.726 74.4484 129.871 75.8202 130.002C77.1921 130.132 78.2781 129.175 78.4128 127.762C78.5475 126.349 77.662 125.204 76.2901 125.073ZM74.5025 127.737L77.5338 128.026C77.3659 128.831 76.7345 129.368 75.8884 129.287C75.0422 129.206 74.5228 128.568 74.5025 127.737Z" fill="#353F86"/>
<path d="M69.5942 129.199L70.5341 124.574L69.7012 124.405L69.2148 126.798C69.0406 127.655 68.3039 128.297 67.4952 128.133C66.7432 127.98 66.3938 127.379 66.5844 126.441L67.1053 123.877L66.2724 123.708L65.7219 126.417C65.4689 127.662 66.0777 128.603 67.1695 128.825C68.0186 128.997 68.6412 128.627 68.9043 128.327L68.7613 129.03L69.5942 129.199Z" fill="#353F86"/>
<path d="M58.1308 123.137L58.957 123.398C59.3096 122.912 59.9169 122.689 60.5542 122.89C61.4511 123.174 61.833 124.074 61.5369 125.01C61.2408 125.946 60.411 126.463 59.5141 126.179C58.8768 125.978 58.5216 125.458 58.5099 124.866L57.6837 124.605C57.6079 125.611 58.2254 126.559 59.2876 126.895C60.6173 127.316 61.9036 126.615 62.3316 125.261C62.7596 123.908 62.1025 122.592 60.7649 122.169C59.7185 121.838 58.6833 122.238 58.1308 123.137Z" fill="#353F86"/>
<path d="M53.3886 119.532C52.3985 119.098 51.3848 119.294 50.8226 119.939L51.6162 120.287C51.9306 120.001 52.5108 119.931 53.1004 120.19C53.8713 120.528 54.1661 121.315 53.9246 122.092L50.3875 120.542C50.326 120.641 50.2763 120.754 50.2332 120.852C49.6635 122.152 50.1389 123.514 51.4011 124.067C52.6633 124.62 53.9942 124.05 54.564 122.75C55.1337 121.45 54.6508 120.085 53.3886 119.532ZM50.8575 121.504L53.6464 122.727C53.2353 123.438 52.4678 123.751 51.6893 123.41C50.9108 123.068 50.6169 122.3 50.8575 121.504Z" fill="#353F86"/>
<path d="M41.3817 113.117C39.9379 112.13 38.2808 112.316 37.2643 113.29L37.993 113.789C38.7217 113.147 39.8945 113.07 40.9161 113.769C42.1625 114.621 42.446 116.165 41.5746 117.439C40.6986 118.719 39.1684 119.012 37.9153 118.155C36.9209 117.474 36.5829 116.463 36.8779 115.535L36.1492 115.037C35.6524 116.377 36.0671 117.86 37.4769 118.825C39.125 119.952 41.1621 119.576 42.2897 117.928C43.4174 116.28 43.0299 114.245 41.3817 113.117Z" fill="#353F86"/>
<path d="M33.8935 107.531C33.0848 106.814 32.0601 106.688 31.3266 107.129L31.9748 107.704C32.3618 107.529 32.9355 107.641 33.417 108.068C34.0467 108.627 34.0853 109.466 33.6165 110.131L30.7274 107.569C30.6384 107.644 30.5563 107.737 30.4851 107.817C29.5432 108.879 29.5769 110.321 30.6078 111.235C31.6387 112.15 33.0805 112.017 34.0223 110.955C34.9642 109.893 34.9244 108.446 33.8935 107.531ZM30.8786 108.629L33.1565 110.65C32.5465 111.201 31.7201 111.262 31.0842 110.698C30.4484 110.134 30.405 109.312 30.8786 108.629Z" fill="#353F86"/>
<path d="M26.1552 107.036L29.6364 103.849L29.0624 103.222L27.2609 104.871C26.6158 105.462 25.6425 105.548 25.0852 104.939C24.5669 104.373 24.6383 103.681 25.3442 103.035L27.2735 101.268L26.6995 100.641L24.6607 102.508C23.7234 103.366 23.6625 104.485 24.4148 105.307C25 105.946 25.7213 106.013 26.1107 105.925L25.5812 106.409L26.1552 107.036Z" fill="#353F86"/>
<path d="M18.787 98.4139L19.4137 99.2539L18.263 100.113L18.7713 100.794L19.9221 99.9351L20.5489 100.775L21.1507 100.326L20.5239 99.486L23.7051 97.1121L23.1967 96.4309L20.0156 98.8048L19.3888 97.9648L18.787 98.4139Z" fill="#353F86"/>
<path d="M19.4072 90.8383C18.8434 89.9159 17.9002 89.4963 17.0697 89.7041L17.5217 90.4434C17.943 90.389 18.459 90.6635 18.7947 91.2127C19.2337 91.9309 19.0252 92.745 18.3826 93.2442L16.3684 89.9491C16.2612 89.9952 16.1556 90.0598 16.0641 90.1157C14.853 90.856 14.464 92.2448 15.1827 93.4206C15.9015 94.5964 17.3191 94.8904 18.5302 94.1502C19.7412 93.4099 20.126 92.0141 19.4072 90.8383ZM16.203 91.0076L17.7912 93.6057C17.0468 93.9543 16.2386 93.7714 15.7953 93.0462C15.352 92.3209 15.5506 91.5225 16.203 91.0076Z" fill="#353F86"/>
<path d="M11.958 87.6786L16.2099 85.6289L15.8409 84.8632L13.6406 85.9239C12.8675 86.2966 11.8749 86.0239 11.4556 85.1542C11.3302 84.894 11.2745 84.6644 11.27 84.465L10.5415 84.8162C10.5612 84.9899 10.6213 85.1716 10.7467 85.4318C11.148 86.2644 11.8339 86.5658 12.2431 86.5976L11.5889 86.9129L11.958 87.6786Z" fill="#353F86"/>
<path d="M8.3256 76.7028C8.08951 76.7773 7.88905 76.8001 7.72422 76.7714C7.55249 76.739 7.41446 76.6672 7.31012 76.5559C7.20413 76.4393 7.12547 76.2997 7.07416 76.1371C7.02285 75.9745 7.00798 75.8176 7.02956 75.6666C7.05114 75.5156 7.12296 75.3775 7.24504 75.2525C7.36186 75.1291 7.53832 75.0302 7.77441 74.9557C8.00526 74.8829 8.20655 74.8626 8.37827 74.895C8.54476 74.929 8.68279 75.0008 8.79238 75.1105C8.89671 75.2218 8.97454 75.3587 9.02585 75.5214C9.07716 75.684 9.09286 75.8435 9.07293 75.9997C9.04611 76.1524 8.97428 76.2904 8.85746 76.4138C8.73373 76.5336 8.55644 76.6299 8.3256 76.7028Z" fill="#353F86"/>
<path d="M8.75718 62.5756C8.52193 60.8421 7.27278 59.7374 5.86836 59.6366L5.98709 60.5115C6.95146 60.6221 7.79533 61.4403 7.96178 62.6669C8.16485 64.1633 7.20964 65.4089 5.68052 65.6164C4.14322 65.825 2.8999 64.8861 2.69572 63.3815C2.53371 62.1877 3.05723 61.2589 3.94351 60.8555L3.82478 59.9805C2.49763 60.5104 1.67506 61.8129 1.90476 63.5055C2.1733 65.4844 3.81817 66.7435 5.79703 66.475C7.77589 66.2064 9.02572 64.5545 8.75718 62.5756Z" fill="#353F86"/>
<path d="M3.01613 52.2267L6.75117 53.7338L3.0595 55.3044L3.07264 56.2368L7.66485 54.1501L9.78206 55.0528L9.76997 54.1947L3.00368 51.3438L3.01613 52.2267Z" fill="#353F86"/>
<path d="M8.06963 45.0733C8.20133 43.743 7.24036 42.6445 5.83612 42.5055C4.43188 42.3665 3.27418 43.2552 3.14248 44.5856C3.05793 45.4396 3.41162 46.0551 3.79043 46.3331L1.00659 46.0575L0.922852 46.9033L7.7059 47.5748L7.78964 46.729L7.09162 46.6599C7.51758 46.4616 7.98509 45.9274 8.06963 45.0733ZM7.31503 45.0733C7.22073 46.0258 6.41662 46.6096 5.4394 46.5129C4.46218 46.4162 3.78814 45.686 3.88245 44.7334C3.97594 43.7891 4.77679 43.2381 5.75401 43.3349C6.73123 43.4316 7.40852 44.1289 7.31503 45.0733Z" fill="#353F86"/>
<path d="M9.13864 37.1101C9.3616 36.0523 8.9636 35.0998 8.21698 34.681L8.03827 35.5288C8.38203 35.7784 8.5689 36.3322 8.43615 36.962C8.26254 37.7856 7.55225 38.2347 6.74222 38.1567L7.53875 34.3778C7.4291 34.3378 7.30799 34.3123 7.20301 34.2902C5.81418 33.9974 4.57808 34.7404 4.29385 36.0889C4.00962 37.4374 4.83894 38.6242 6.22778 38.9169C7.61662 39.2097 8.85441 38.4586 9.13864 37.1101ZM6.69198 35.0342L6.06395 38.0138C5.28328 37.7564 4.82104 37.0687 4.99635 36.237C5.17165 35.4053 5.86409 34.9609 6.69198 35.0342Z" fill="#353F86"/>
<path d="M5.77062 30.0656L10.2763 31.4724L10.5296 30.6611L8.19801 29.9331C7.3788 29.6773 6.84004 28.8002 7.12781 27.8785C7.21389 27.6028 7.33002 27.397 7.4629 27.2483L6.69096 27.0073C6.58663 27.1476 6.50643 27.3214 6.42034 27.5971C6.14487 28.4793 6.43991 29.168 6.71713 29.4707L6.02395 29.2542L5.77062 30.0656Z" fill="#353F86"/>
<path d="M8.92577 20.9428L8.52648 21.9117L7.19892 21.3647L6.87508 22.1505L8.20264 22.6976L7.80335 23.6666L8.49765 23.9527L8.89694 22.9837L12.5668 24.496L12.8906 23.7101L9.22078 22.1978L9.62007 21.2289L8.92577 20.9428Z" fill="#353F86"/>
<path d="M11.266 15.4741C10.6137 16.716 11.0768 18.1058 12.3334 18.7658C13.5899 19.4258 14.997 19.0183 15.6494 17.7764C16.2979 16.5417 15.8347 15.152 14.5781 14.492C13.3216 13.832 11.9145 14.2394 11.266 15.4741ZM11.9308 15.8232C12.3644 14.9977 13.3212 14.7732 14.1906 15.2298C15.0599 15.6865 15.4182 16.6016 14.9846 17.4272C14.5471 18.26 13.5903 18.4845 12.7209 18.0279C11.8516 17.5713 11.4933 16.6561 11.9308 15.8232Z" fill="#353F86"/>
<path d="M20.7407 8.92398L16.825 6.28812L16.3504 6.99322L18.3767 8.35723C19.1023 8.84569 19.414 9.77174 18.9532 10.4563C18.5247 11.0929 17.8353 11.186 17.0412 10.6514L14.8712 9.19065L14.3966 9.89574L16.6898 11.4395C17.744 12.1491 18.8458 11.9458 19.4679 11.0216C19.9518 10.3028 19.8474 9.586 19.6705 9.22816L20.2661 9.62907L20.7407 8.92398Z" fill="#353F86"/>
<path d="M19.0829 3.07615L22.7311 6.07127L23.2705 5.41433L21.3826 3.86441C20.7193 3.31984 20.5491 2.30464 21.1617 1.55841C21.345 1.33518 21.5299 1.18802 21.7089 1.10006L21.0838 0.586914C20.9345 0.677821 20.7949 0.808806 20.6116 1.03204C20.0252 1.74637 20.0402 2.49539 20.1835 2.88L19.6222 2.41921L19.0829 3.07615Z" fill="#353F86"/>
</svg>
