<svg width="129" height="101" viewBox="0 0 129 101" fill="none" xmlns="http://www.w3.org/2000/svg">
<g clip-path="url(#clip0_1402_3816)">
<g filter="url(#filter0_d_1402_3816)">
<path d="M10.6768 78.2027L35.8141 25.4517C42.1251 12.1973 52.4605 12.1973 58.7716 25.4517L83.9013 78.2027" fill="url(#paint0_linear_1402_3816)"/>
<path d="M10.6768 78.2027L35.8141 25.4517C42.1251 12.1973 52.4605 12.1973 58.7716 25.4517L83.9013 78.2027H10.6768Z" fill="url(#paint1_linear_1402_3816)"/>
<path d="M61.3706 78.2019L79.4728 40.1983C84.0232 30.6536 91.4622 30.6536 96.0126 40.1983L114.115 78.2019" fill="url(#paint2_linear_1402_3816)"/>
<path d="M61.3706 78.2019L79.4728 40.1983C84.0232 30.6536 91.4622 30.6536 96.0126 40.1983L114.115 78.2019H61.3706Z" fill="url(#paint3_linear_1402_3816)"/>
</g>
<g filter="url(#filter1_d_1402_3816)">
<path d="M71.226 38.6462C74.8769 34.1671 75.5476 28.2331 73.4973 23.2437C68.1924 22.2534 62.514 24.1197 58.8707 28.5988C55.2198 33.0778 54.549 39.0119 56.607 44.0013C61.9119 44.9916 67.5826 43.1253 71.2336 38.6462H71.226Z" fill="url(#paint4_linear_1402_3816)"/>
<path opacity="0.8" d="M71.226 38.6462C74.8769 34.1671 75.5476 28.2331 73.4973 23.2437C68.1924 22.2534 62.514 24.1197 58.8707 28.5988C55.2198 33.0778 54.549 39.0119 56.607 44.0013C61.9119 44.9916 67.5826 43.1253 71.2336 38.6462H71.226Z" fill="url(#paint5_linear_1402_3816)"/>
</g>
<g filter="url(#filter2_d_1402_3816)">
<path d="M80.7534 13.0657C83.9851 15.6937 88.2686 16.1813 91.8739 14.7035C92.5903 10.8719 91.2412 6.7889 88.0095 4.16087C84.7778 1.53284 80.4942 1.04532 76.889 2.52311C76.1725 6.34709 77.5216 10.4377 80.7534 13.0657Z" fill="url(#paint6_linear_1402_3816)"/>
<path opacity="0.8" d="M80.7534 13.0657C83.9851 15.6937 88.2686 16.1813 91.8739 14.7035C92.5903 10.8719 91.2412 6.7889 88.0095 4.16087C84.7778 1.53284 80.4942 1.04532 76.889 2.52311C76.1725 6.34709 77.5216 10.4377 80.7534 13.0657Z" fill="url(#paint7_linear_1402_3816)"/>
</g>
<g filter="url(#filter3_d_1402_3816)">
<path d="M15.204 66.3878C18.4358 69.0158 22.7193 69.5033 26.3245 68.0255C27.041 64.2016 25.6919 60.111 22.4602 57.483C19.2285 54.8549 14.9449 54.3674 11.3397 55.8452C10.6232 59.6692 11.9723 63.7598 15.204 66.3878Z" fill="url(#paint8_linear_1402_3816)"/>
<path opacity="0.8" d="M15.204 66.3878C18.4358 69.0158 22.7193 69.5033 26.3245 68.0255C27.041 64.2016 25.6919 60.111 22.4602 57.483C19.2285 54.8549 14.9449 54.3674 11.3397 55.8452C10.6232 59.6692 11.9723 63.7598 15.204 66.3878Z" fill="url(#paint9_linear_1402_3816)"/>
</g>
<path d="M114.557 49.5755H113.437C113.383 45.3478 109.946 41.9352 105.708 41.9352C101.47 41.9352 98.0249 45.3478 97.9792 49.5755H92.7581C89.0539 49.5755 86.0508 52.5768 86.0508 56.2789C86.0508 59.981 89.0539 62.9823 92.7581 62.9823H114.565C118.269 62.9823 121.272 59.981 121.272 56.2789C121.272 52.5768 118.269 49.5755 114.565 49.5755H114.557Z" fill="url(#paint10_linear_1402_3816)"/>
</g>
<defs>
<filter id="filter0_d_1402_3816" x="-9.32324" y="0.510864" width="143.438" height="102.692" filterUnits="userSpaceOnUse" color-interpolation-filters="sRGB">
<feFlood flood-opacity="0" result="BackgroundImageFix"/>
<feColorMatrix in="SourceAlpha" type="matrix" values="0 0 0 0 0 0 0 0 0 0 0 0 0 0 0 0 0 0 127 0" result="hardAlpha"/>
<feOffset dy="5"/>
<feGaussianBlur stdDeviation="10"/>
<feComposite in2="hardAlpha" operator="out"/>
<feColorMatrix type="matrix" values="0 0 0 0 0 0 0 0 0 0.1125 0 0 0 0 0.0315 0 0 0 0.15 0"/>
<feBlend mode="normal" in2="BackgroundImageFix" result="effect1_dropShadow_1402_3816"/>
<feBlend mode="normal" in="SourceGraphic" in2="effect1_dropShadow_1402_3816" result="shape"/>
</filter>
<filter id="filter1_d_1402_3816" x="45.4561" y="17.9849" width="39.1865" height="41.2751" filterUnits="userSpaceOnUse" color-interpolation-filters="sRGB">
<feFlood flood-opacity="0" result="BackgroundImageFix"/>
<feColorMatrix in="SourceAlpha" type="matrix" values="0 0 0 0 0 0 0 0 0 0 0 0 0 0 0 0 0 0 127 0" result="hardAlpha"/>
<feOffset dy="5"/>
<feGaussianBlur stdDeviation="5"/>
<feColorMatrix type="matrix" values="0 0 0 0 0.00483333 0 0 0 0 0.241667 0 0 0 0 0 0 0 0 0.4 0"/>
<feBlend mode="normal" in2="BackgroundImageFix" result="effect1_dropShadow_1402_3816"/>
<feBlend mode="normal" in="SourceGraphic" in2="effect1_dropShadow_1402_3816" result="shape"/>
</filter>
<filter id="filter2_d_1402_3816" x="66.7017" y="-3.30121" width="35.3594" height="33.829" filterUnits="userSpaceOnUse" color-interpolation-filters="sRGB">
<feFlood flood-opacity="0" result="BackgroundImageFix"/>
<feColorMatrix in="SourceAlpha" type="matrix" values="0 0 0 0 0 0 0 0 0 0 0 0 0 0 0 0 0 0 127 0" result="hardAlpha"/>
<feOffset dy="5"/>
<feGaussianBlur stdDeviation="5"/>
<feColorMatrix type="matrix" values="0 0 0 0 0.00483333 0 0 0 0 0.241667 0 0 0 0 0 0 0 0 0.4 0"/>
<feBlend mode="normal" in2="BackgroundImageFix" result="effect1_dropShadow_1402_3816"/>
<feBlend mode="normal" in="SourceGraphic" in2="effect1_dropShadow_1402_3816" result="shape"/>
</filter>
<filter id="filter3_d_1402_3816" x="1.15234" y="50.0209" width="35.3594" height="33.829" filterUnits="userSpaceOnUse" color-interpolation-filters="sRGB">
<feFlood flood-opacity="0" result="BackgroundImageFix"/>
<feColorMatrix in="SourceAlpha" type="matrix" values="0 0 0 0 0 0 0 0 0 0 0 0 0 0 0 0 0 0 127 0" result="hardAlpha"/>
<feOffset dy="5"/>
<feGaussianBlur stdDeviation="5"/>
<feColorMatrix type="matrix" values="0 0 0 0 0.00483333 0 0 0 0 0.241667 0 0 0 0 0 0 0 0 0.4 0"/>
<feBlend mode="normal" in2="BackgroundImageFix" result="effect1_dropShadow_1402_3816"/>
<feBlend mode="normal" in="SourceGraphic" in2="effect1_dropShadow_1402_3816" result="shape"/>
</filter>
<linearGradient id="paint0_linear_1402_3816" x1="10.6768" y1="46.8568" x2="83.8937" y2="46.8568" gradientUnits="userSpaceOnUse">
<stop stop-color="#A1E698"/>
<stop offset="1" stop-color="#7DD765"/>
</linearGradient>
<linearGradient id="paint1_linear_1402_3816" x1="10.6768" y1="46.8568" x2="91.2791" y2="46.8568" gradientUnits="userSpaceOnUse">
<stop stop-color="#85FF4B"/>
<stop offset="0.588542" stop-color="#4DDA85"/>
<stop offset="1" stop-color="#028144"/>
</linearGradient>
<linearGradient id="paint2_linear_1402_3816" x1="61.3706" y1="55.6237" x2="114.115" y2="55.6237" gradientUnits="userSpaceOnUse">
<stop stop-color="#A1E698"/>
<stop offset="1" stop-color="#7DD765"/>
</linearGradient>
<linearGradient id="paint3_linear_1402_3816" x1="61.3706" y1="55.6209" x2="119.429" y2="55.6209" gradientUnits="userSpaceOnUse">
<stop stop-color="#85FF4B"/>
<stop offset="0.482693" stop-color="#4DDA85"/>
<stop offset="1" stop-color="#028144"/>
</linearGradient>
<linearGradient id="paint4_linear_1402_3816" x1="75.3418" y1="42.9729" x2="58.5824" y2="27.7281" gradientUnits="userSpaceOnUse">
<stop stop-color="#569824"/>
<stop offset="1" stop-color="#A9F339"/>
</linearGradient>
<linearGradient id="paint5_linear_1402_3816" x1="72.4817" y1="40.2969" x2="58.5808" y2="27.7298" gradientUnits="userSpaceOnUse">
<stop stop-color="#00784D"/>
<stop offset="0.489583" stop-color="#00794E"/>
<stop offset="0.791667" stop-color="#00D555"/>
</linearGradient>
<linearGradient id="paint6_linear_1402_3816" x1="77.6207" y1="16.0365" x2="88.6121" y2="3.9411" gradientUnits="userSpaceOnUse">
<stop stop-color="#569824"/>
<stop offset="1" stop-color="#A9F339"/>
</linearGradient>
<linearGradient id="paint7_linear_1402_3816" x1="79.488" y1="18.7773" x2="93.3778" y2="4.58995" gradientUnits="userSpaceOnUse">
<stop stop-color="#00784D"/>
<stop offset="0.489583" stop-color="#00794E"/>
<stop offset="0.791667" stop-color="#00D555"/>
</linearGradient>
<linearGradient id="paint8_linear_1402_3816" x1="12.0714" y1="69.3586" x2="23.0628" y2="57.2632" gradientUnits="userSpaceOnUse">
<stop stop-color="#569824"/>
<stop offset="1" stop-color="#A9F339"/>
</linearGradient>
<linearGradient id="paint9_linear_1402_3816" x1="12.5006" y1="67.28" x2="20.0245" y2="56.5875" gradientUnits="userSpaceOnUse">
<stop stop-color="#00784D"/>
<stop offset="0.489583" stop-color="#00794E"/>
<stop offset="0.791667" stop-color="#00D555"/>
</linearGradient>
<linearGradient id="paint10_linear_1402_3816" x1="103.661" y1="65.5722" x2="103.661" y2="41.9352" gradientUnits="userSpaceOnUse">
<stop stop-color="#3EABFA"/>
<stop offset="0.520222" stop-color="#ECF9FF"/>
</linearGradient>
<clipPath id="clip0_1402_3816">
<rect width="129" height="101" fill="white"/>
</clipPath>
</defs>
</svg>
