<svg width="130" height="101" viewBox="0 0 130 101" fill="none" xmlns="http://www.w3.org/2000/svg">
<path d="M38.702 66.0896H94.1306V11.8823H38.702C34.4178 11.8823 30.9028 15.1559 30.4945 19.3504C30.465 19.6177 30.4531 74.3716 30.4531 74.3716C30.4531 69.7969 34.1456 66.0896 38.702 66.0896Z" fill="url(#paint0_linear_1402_3841)"/>
<path d="M32.5301 74.6809L32.5183 74.461C32.5183 70.9439 35.2877 68.1575 38.702 68.1575H94.1306V66.084H38.702C34.1456 66.084 30.4531 69.7913 30.4531 74.366C30.4531 74.5026 30.465 74.6393 30.4709 74.7759C30.6839 79.1605 34.2817 82.648 38.702 82.648H94.1306V80.5745H38.702C35.406 80.5745 32.6899 77.9842 32.5301 74.6749V74.6809Z" fill="#F0C302"/>
<path d="M38.7018 68.1634C35.2874 68.1634 32.5122 70.9498 32.5181 74.467L32.5299 74.6868C32.6897 77.996 35.4058 80.5864 38.7018 80.5864H94.1304V68.1634H38.7018Z" fill="#ECEFFD"/>
<path d="M57.4839 89.0642L51.5606 83.7587L45.6372 89.0642V80.2831V71.4961H51.5606H57.4839V80.2831V89.0642Z" fill="url(#paint1_linear_1402_3841)"/>
<g opacity="0.8">
<path d="M55.5725 22.9745H80.6387C82.0826 22.9745 83.2483 24.1508 83.2483 25.5945V30.3118C83.2483 31.7615 82.0767 32.9319 80.6387 32.9319H55.5725C54.1286 32.9319 52.9629 31.7555 52.9629 30.3118V25.5945C52.9629 24.1449 54.1345 22.9745 55.5725 22.9745Z" fill="white"/>
</g>
<path d="M112.499 35.9619C114.368 33.9954 114.297 30.8763 112.339 28.9929L108.12 24.941C106.155 23.0577 103.048 23.1349 101.178 25.1015L83.2842 43.8993L94.6042 54.7598L112.499 35.9679V35.9619Z" fill="url(#paint2_linear_1402_3841)"/>
<path d="M112.499 35.9619C114.368 33.9954 114.297 30.8763 112.339 28.9929L108.12 24.941C106.155 23.0577 103.048 23.1349 101.178 25.1015L83.2842 43.8993L94.6042 54.7598L112.499 35.9679V35.9619Z" fill="url(#paint3_linear_1402_3841)"/>
<path d="M94.6041 54.7598L88.9471 49.3237L83.2841 43.8934L81.4023 51.8665L86.7576 57.0056L94.6041 54.7598Z" fill="url(#paint4_linear_1402_3841)"/>
<path d="M86.7577 57.0056L81.4024 51.8665L79.7041 59.0316L86.7577 57.0056Z" fill="url(#paint5_linear_1402_3841)"/>
<defs>
<linearGradient id="paint0_linear_1402_3841" x1="121.682" y1="43.127" x2="20.6243" y2="43.127" gradientUnits="userSpaceOnUse">
<stop stop-color="#FFDC00"/>
<stop offset="0.59" stop-color="#FFDC00"/>
<stop offset="0.697917" stop-color="#FFE244"/>
<stop offset="0.77" stop-color="#F4D95E"/>
<stop offset="0.78" stop-color="#F2D556"/>
<stop offset="0.8" stop-color="#F0C31A"/>
<stop offset="0.84" stop-color="#F9CD34"/>
<stop offset="0.88" stop-color="#FFCF30"/>
<stop offset="1" stop-color="#FFCB1C"/>
</linearGradient>
<linearGradient id="paint1_linear_1402_3841" x1="51.5606" y1="83.2418" x2="51.5606" y2="71.8229" gradientUnits="userSpaceOnUse">
<stop stop-color="#7272FE"/>
<stop offset="0.41" stop-color="#6E6EEB"/>
<stop offset="0.67" stop-color="#5C5CE3"/>
<stop offset="0.88" stop-color="#5D5DD6"/>
<stop offset="1" stop-color="#4343C8"/>
</linearGradient>
<linearGradient id="paint2_linear_1402_3841" x1="90.1818" y1="47.9391" x2="117.548" y2="19.4163" gradientUnits="userSpaceOnUse">
<stop stop-color="#5392B9"/>
<stop offset="1" stop-color="#73CBBE"/>
</linearGradient>
<linearGradient id="paint3_linear_1402_3841" x1="108.528" y1="47.2086" x2="93.6751" y2="32.4151" gradientUnits="userSpaceOnUse">
<stop stop-color="#0500E3"/>
<stop offset="1" stop-color="#00ACF4"/>
</linearGradient>
<linearGradient id="paint4_linear_1402_3841" x1="89.8998" y1="55.2173" x2="75.9381" y2="41.3115" gradientUnits="userSpaceOnUse">
<stop offset="0.17" stop-color="#D2CFF6"/>
<stop offset="0.29" stop-color="#F1F1F8"/>
</linearGradient>
<linearGradient id="paint5_linear_1402_3841" x1="85.5284" y1="57.2965" x2="82.1157" y2="53.8833" gradientUnits="userSpaceOnUse">
<stop stop-color="#0500E3"/>
<stop offset="1" stop-color="#00ACF4"/>
</linearGradient>
</defs>
</svg>
