<svg width="130" height="101" viewBox="0 0 130 101" fill="none" xmlns="http://www.w3.org/2000/svg">
<g clip-path="url(#clip0_1281_18328)">
<g filter="url(#filter0_d_1281_18328)">
<path d="M90.4396 80.818H40.8042C33.4784 80.818 27.5137 74.8293 27.5137 67.4741V28.708C27.5137 21.3528 33.4784 15.3641 40.8042 15.3641H90.4396C97.7654 15.3641 103.73 21.3528 103.73 28.708V67.4741C103.73 74.8293 97.7654 80.818 90.4396 80.818Z" fill="#D3D8F6"/>
<path d="M90.4394 80.7942H40.804C33.49 80.7942 27.5371 74.8174 27.5371 67.4741V28.7079C27.5371 21.3646 33.49 15.3878 40.804 15.3878H90.4394C97.7533 15.3878 103.706 21.3646 103.706 28.7079V67.4741C103.706 74.8174 97.7533 80.7942 90.4394 80.7942Z" fill="#D4D8F6"/>
<path d="M90.4397 80.7705H40.8042C33.5021 80.7705 27.561 74.8056 27.561 67.4741V28.708C27.561 21.3766 33.5021 15.4116 40.8042 15.4116H90.4397C97.7418 15.4116 103.683 21.3766 103.683 28.708V67.4741C103.683 74.8056 97.7418 80.7705 90.4397 80.7705Z" fill="#D4D9F6"/>
<path d="M90.4399 80.7467H40.8044C33.5142 80.7467 27.5908 74.7937 27.5908 67.4741V28.708C27.5908 21.3884 33.5142 15.4354 40.8044 15.4354H90.4399C97.7301 15.4354 103.659 21.3884 103.659 28.708V67.4741C103.659 74.7937 97.7301 80.7467 90.4399 80.7467Z" fill="#D5D9F6"/>
<path d="M90.4396 80.7229H40.8042C33.5317 80.7229 27.6143 74.7818 27.6143 67.48V28.7079C27.6143 21.4062 33.5317 15.4591 40.8042 15.4591H90.4396C97.7121 15.4591 103.63 21.4003 103.63 28.702V67.4682C103.63 74.7699 97.7121 80.711 90.4396 80.711V80.7229Z" fill="#D5D9F6"/>
<path d="M90.4394 80.6992H40.804C33.5433 80.6992 27.6377 74.7699 27.6377 67.4801V28.7079C27.6377 21.4181 33.5433 15.4888 40.804 15.4888H90.4394C97.7001 15.4888 103.606 21.4181 103.606 28.7079V67.4741C103.606 74.764 97.7001 80.6932 90.4394 80.6932V80.6992Z" fill="#D5DAF6"/>
<path d="M90.4396 80.6755H40.8042C33.5554 80.6755 27.6616 74.7581 27.6616 67.4801V28.708C27.6616 21.43 33.5554 15.5126 40.8042 15.5126H90.4396C97.6885 15.5126 103.582 21.43 103.582 28.708V67.4742C103.582 74.7521 97.6885 80.6695 90.4396 80.6695V80.6755Z" fill="#D6DAF6"/>
<path d="M90.4394 80.6457H40.804C33.5729 80.6457 27.6851 74.7343 27.6851 67.4741V28.708C27.6851 21.4419 33.5729 15.5364 40.804 15.5364H90.4394C97.6705 15.5364 103.558 21.4478 103.558 28.708V67.4741C103.558 74.7402 97.6705 80.6457 90.4394 80.6457Z" fill="#D6DAF6"/>
<path d="M90.4397 80.6219H40.8043C33.585 80.6219 27.709 74.7224 27.709 67.4741V28.7079C27.709 21.4597 33.585 15.5601 40.8043 15.5601H90.4397C97.6589 15.5601 103.535 21.4597 103.535 28.7079V67.4741C103.535 74.7224 97.6589 80.6219 90.4397 80.6219Z" fill="#D7DBF6"/>
<path d="M90.4394 80.5982H40.804C33.5966 80.5982 27.7324 74.7105 27.7324 67.4742V28.708C27.7324 21.4716 33.5966 15.5839 40.804 15.5839H90.4394C97.6469 15.5839 103.511 21.4716 103.511 28.708V67.4742C103.511 74.7105 97.6469 80.5982 90.4394 80.5982Z" fill="#D7DBF6"/>
<path d="M90.4397 80.5744H40.8043C33.6087 80.5744 27.7563 74.6986 27.7563 67.4741V28.708C27.7563 21.4835 33.6087 15.6077 40.8043 15.6077H90.4397C97.6353 15.6077 103.488 21.4835 103.488 28.708V67.4741C103.488 74.6986 97.6353 80.5744 90.4397 80.5744Z" fill="#D7DBF6"/>
<path d="M90.4394 80.5506H40.804C33.6261 80.5506 27.7856 74.6867 27.7856 67.4741V28.7079C27.7856 21.5013 33.6261 15.6314 40.804 15.6314H90.4394C97.6173 15.6314 103.464 21.4953 103.464 28.7079V67.4741C103.464 74.6808 97.6232 80.5506 90.4394 80.5506Z" fill="#D8DCF6"/>
<path d="M90.4397 80.5269H40.8042C33.6382 80.5269 27.8096 74.6749 27.8096 67.4801V28.708C27.8096 21.5132 33.6382 15.6552 40.8042 15.6552H90.4397C97.6057 15.6552 103.434 21.5073 103.434 28.702V67.4682C103.434 74.663 97.6057 80.515 90.4397 80.515V80.5269Z" fill="#D8DCF6"/>
<path d="M90.4394 80.5031H40.804C33.6498 80.5031 27.833 74.6629 27.833 67.4801V28.7079C27.833 21.5251 33.6498 15.6849 40.804 15.6849H90.4394C97.5936 15.6849 103.41 21.5251 103.41 28.7079V67.4741C103.41 74.657 97.5936 80.4972 90.4394 80.4972V80.5031Z" fill="#D8DCF6"/>
<path d="M90.4397 80.4734H40.8043C33.6619 80.4734 27.8569 74.6392 27.8569 67.4741V28.708C27.8569 21.537 33.6619 15.7087 40.8043 15.7087H90.4397C97.582 15.7087 103.387 21.5429 103.387 28.708V67.4741C103.387 74.6451 97.5761 80.4734 90.4397 80.4734Z" fill="#D9DDF7"/>
<path d="M90.4395 80.4497H40.804C33.6795 80.4497 27.8804 74.6273 27.8804 67.4741V28.708C27.8804 21.5548 33.6795 15.7324 40.804 15.7324H90.4395C97.564 15.7324 103.363 21.5548 103.363 28.708V67.4741C103.363 74.6273 97.564 80.4497 90.4395 80.4497Z" fill="#D9DDF7"/>
<path d="M90.4397 80.4259H40.8043C33.6915 80.4259 27.9043 74.6154 27.9043 67.4741V28.7079C27.9043 21.5666 33.6915 15.7562 40.8043 15.7562H90.4397C97.5525 15.7562 103.34 21.5666 103.34 28.7079V67.4741C103.34 74.6154 97.5525 80.4259 90.4397 80.4259Z" fill="#D9DDF7"/>
<path d="M90.4395 80.4021H40.8041C33.7031 80.4021 27.9277 74.6036 27.9277 67.4741V28.708C27.9277 21.5786 33.7031 15.78 40.8041 15.78H90.4395C97.5404 15.78 103.316 21.5786 103.316 28.708V67.4741C103.316 74.6036 97.5404 80.4021 90.4395 80.4021Z" fill="#DADEF7"/>
<path d="M90.4397 80.3784H40.8043C33.7211 80.3784 27.9575 74.5917 27.9575 67.4741V28.7079C27.9575 21.5964 33.7211 15.8037 40.8043 15.8037H90.4397C97.5228 15.8037 103.292 21.5904 103.292 28.7079V67.4741C103.292 74.5857 97.5288 80.3784 90.4397 80.3784Z" fill="#DADEF7"/>
<path d="M90.4394 80.3548H40.804C33.7327 80.3548 27.981 74.5799 27.981 67.4743V28.7081C27.981 21.6084 33.7327 15.8276 40.804 15.8276H90.4394C97.5108 15.8276 103.263 21.6025 103.263 28.7081V67.4743C103.263 74.574 97.5108 80.3548 90.4394 80.3548Z" fill="#DADEF7"/>
<path d="M90.4397 80.3308H40.8043C33.7448 80.3308 28.0049 74.5619 28.0049 67.4801V28.7079C28.0049 21.6201 33.7448 15.8572 40.8043 15.8572H90.4397C97.4992 15.8572 103.239 21.6261 103.239 28.7079V67.4741C103.239 74.5619 97.4933 80.3249 90.4397 80.3249V80.3308Z" fill="#DBDFF7"/>
<path d="M90.4395 80.3071H40.8041C33.7564 80.3071 28.0283 74.5501 28.0283 67.4801V28.708C28.0283 21.632 33.7623 15.881 40.8041 15.881H90.4395C97.4871 15.881 103.215 21.638 103.215 28.708V67.4742C103.215 74.5501 97.4812 80.3012 90.4395 80.3012V80.3071Z" fill="#DBDFF7"/>
<path d="M90.4397 80.2774H40.8043C33.7744 80.2774 28.0522 74.5323 28.0522 67.4741V28.708C28.0522 21.6498 33.7744 15.9047 40.8043 15.9047H90.4397C97.4696 15.9047 103.192 21.6498 103.192 28.708V67.4741C103.192 74.5323 97.4696 80.2774 90.4397 80.2774Z" fill="#DBDFF7"/>
<path d="M90.4395 80.2536H40.8041C33.786 80.2536 28.0757 74.5203 28.0757 67.4741V28.7079C28.0757 21.6617 33.786 15.9285 40.8041 15.9285H90.4395C97.4576 15.9285 103.168 21.6617 103.168 28.7079V67.4741C103.168 74.5203 97.4576 80.2536 90.4395 80.2536Z" fill="#DCE0F7"/>
<path d="M90.4398 80.2299H40.8043C33.7981 80.2299 28.0996 74.5085 28.0996 67.4742V28.708C28.0996 21.6736 33.7981 15.9523 40.8043 15.9523H90.4398C97.446 15.9523 103.144 21.6736 103.144 28.708V67.4742C103.144 74.5085 97.446 80.2299 90.4398 80.2299Z" fill="#DDE0F7"/>
<path d="M90.4395 80.2063H40.8041C33.8156 80.2063 28.123 74.4968 28.123 67.4743V28.7081C28.123 21.6916 33.8097 15.9762 40.8041 15.9762H90.4395C97.428 15.9762 103.121 21.6857 103.121 28.7081V67.4743C103.121 74.4908 97.4339 80.2063 90.4395 80.2063Z" fill="#DDE0F7"/>
<path d="M90.4397 80.1825H40.8043C33.8276 80.1825 28.1528 74.4849 28.1528 67.4743V28.7081C28.1528 21.7035 33.8276 15.9999 40.8043 15.9999H90.4397C97.4164 15.9999 103.097 21.6975 103.097 28.7081V67.4743C103.097 74.4789 97.4223 80.1825 90.4397 80.1825Z" fill="#DEE1F7"/>
<path d="M90.4395 80.1585H40.8041C33.8393 80.1585 28.1763 74.4669 28.1763 67.4801V28.708C28.1763 21.7152 33.8393 16.0295 40.8041 16.0295H90.4395C97.4043 16.0295 103.067 21.7211 103.067 28.708V67.4741C103.067 74.4669 97.3984 80.1526 90.4395 80.1526V80.1585Z" fill="#DEE1F7"/>
<path d="M90.4397 80.1348H40.8043C33.8513 80.1348 28.2002 74.455 28.2002 67.48V28.7079C28.2002 21.727 33.8573 16.0532 40.8043 16.0532H90.4397C97.3927 16.0532 103.044 21.733 103.044 28.7079V67.4741C103.044 74.455 97.3868 80.1288 90.4397 80.1288V80.1348Z" fill="#DEE1F7"/>
<path d="M90.4395 80.1051H40.8041C33.8689 80.1051 28.2236 74.4372 28.2236 67.4741V28.708C28.2236 21.7449 33.8689 16.077 40.8041 16.077H90.4395C97.3747 16.077 103.02 21.7449 103.02 28.708V67.4741C103.02 74.4372 97.3747 80.1051 90.4395 80.1051Z" fill="#DFE2F8"/>
<path d="M90.4398 80.0813H40.8043C33.881 80.0813 28.2476 74.4253 28.2476 67.4741V28.7079C28.2476 21.7568 33.881 16.1008 40.8043 16.1008H90.4398C97.3631 16.1008 102.997 21.7568 102.997 28.7079V67.4741C102.997 74.4253 97.3631 80.0813 90.4398 80.0813Z" fill="#DFE2F8"/>
<path d="M90.4395 80.0577H40.8041C33.8926 80.0577 28.271 74.4136 28.271 67.4743V28.7081C28.271 21.7688 33.8926 16.1247 40.8041 16.1247H90.4395C97.3511 16.1247 102.973 21.7688 102.973 28.7081V67.4743C102.973 74.4136 97.3511 80.0577 90.4395 80.0577Z" fill="#DFE2F8"/>
<path d="M90.4398 80.034H40.8044C33.9046 80.034 28.2949 74.4017 28.2949 67.4743V28.7081C28.2949 21.7807 33.9046 16.1485 40.8044 16.1485H90.4398C97.3395 16.1485 102.949 21.7807 102.949 28.7081V67.4743C102.949 74.4017 97.3395 80.034 90.4398 80.034Z" fill="#E0E3F8"/>
<path d="M90.4395 80.0102H40.8041C33.9222 80.0102 28.3184 74.3899 28.3184 67.4744V28.7082C28.3184 21.7986 33.9162 16.1723 40.8041 16.1723H90.4395C97.3215 16.1723 102.925 21.7927 102.925 28.7082V67.4744C102.925 74.3839 97.3274 80.0102 90.4395 80.0102Z" fill="#E0E3F8"/>
<path d="M90.4397 79.9865H40.8043C33.9342 79.9865 28.3481 74.372 28.3481 67.4743V28.7082C28.3481 21.8105 33.9401 16.196 40.8043 16.196H90.4397C97.3099 16.196 102.902 21.8105 102.902 28.7082V67.4743C102.902 74.372 97.3099 79.9865 90.4397 79.9865Z" fill="#E0E3F8"/>
<path d="M90.4395 79.9625H40.8041C33.9458 79.9625 28.3716 74.3599 28.3716 67.4801V28.7079C28.3716 21.8221 33.9458 16.2255 40.8041 16.2255H90.4395C97.2978 16.2255 102.872 21.8281 102.872 28.7079V67.4741C102.872 74.3599 97.2919 79.9565 90.4395 79.9565V79.9625Z" fill="#E1E4F8"/>
<path d="M90.4398 79.9387H40.8044C33.9638 79.9387 28.3955 74.3481 28.3955 67.4801V28.708C28.3955 21.84 33.9638 16.2493 40.8044 16.2493H90.4398C97.2803 16.2493 102.849 21.84 102.849 28.708V67.4742C102.849 74.3422 97.2803 79.9328 90.4398 79.9328V79.9387Z" fill="#E1E4F8"/>
<path d="M90.4395 79.9092H40.8041C33.9754 79.9092 28.4189 74.3304 28.4189 67.4743V28.7081C28.4189 21.852 33.9754 16.2733 40.8041 16.2733H90.4395C97.2683 16.2733 102.825 21.852 102.825 28.7081V67.4743C102.825 74.3304 97.2683 79.9092 90.4395 79.9092Z" fill="#E1E4F8"/>
<path d="M90.4398 79.8854H40.8044C33.9875 79.8854 28.4429 74.3185 28.4429 67.4743V28.7081C28.4429 21.8639 33.9875 16.297 40.8044 16.297H90.4398C97.2567 16.297 102.801 21.8639 102.801 28.7081V67.4743C102.801 74.3185 97.2567 79.8854 90.4398 79.8854Z" fill="#E2E5F8"/>
<path d="M90.4396 79.8617H40.8042C33.9991 79.8617 28.4663 74.3067 28.4663 67.4743V28.7082C28.4663 21.8758 33.9991 16.3208 40.8042 16.3208H90.4396C97.2446 16.3208 102.777 21.8758 102.777 28.7082V67.4743C102.777 74.3067 97.2446 79.8617 90.4396 79.8617Z" fill="#E2E5F8"/>
<path d="M90.4398 79.838H40.8044C34.0171 79.838 28.4902 74.2948 28.4902 67.4744V28.7082C28.4902 21.8937 34.0112 16.3446 40.8044 16.3446H90.4398C97.2271 16.3446 102.754 21.8877 102.754 28.7082V67.4744C102.754 74.2889 97.233 79.838 90.4398 79.838Z" fill="#E2E5F8"/>
<path d="M90.4396 79.8142H40.8042C34.0287 79.8142 28.5137 74.2771 28.5137 67.4744V28.7082C28.5137 21.9056 34.0228 16.3684 40.8042 16.3684H90.4396C97.2151 16.3684 102.73 21.9056 102.73 28.7082V67.4744C102.73 74.2771 97.2151 79.8142 90.4396 79.8142Z" fill="#E3E6F8"/>
<path d="M90.4398 79.7902H40.8044C34.0407 79.7902 28.5435 74.2649 28.5435 67.4801V28.7079C28.5435 21.9172 34.0467 16.3978 40.8044 16.3978H90.4398C97.2034 16.3978 102.701 21.9231 102.701 28.7079V67.4741C102.701 74.2649 97.1975 79.7842 90.4398 79.7842V79.7902Z" fill="#E3E6F8"/>
<path d="M90.4396 79.7666H40.8041C34.0583 79.7666 28.5669 74.2532 28.5669 67.4802V28.7081C28.5669 21.9352 34.0583 16.4218 40.8041 16.4218H90.4396C97.1854 16.4218 102.677 21.9352 102.677 28.7081V67.4743C102.677 74.2472 97.1854 79.7606 90.4396 79.7606V79.7666Z" fill="#E3E6F8"/>
<path d="M90.4398 79.7369H40.8044C34.0704 79.7369 28.5908 74.2354 28.5908 67.4743V28.7081C28.5908 21.9471 34.0704 16.4456 40.8044 16.4456H90.4398C97.1738 16.4456 102.653 21.9471 102.653 28.7081V67.4743C102.653 74.2354 97.1738 79.7369 90.4398 79.7369Z" fill="#E4E7F9"/>
<path d="M90.4396 79.7132H40.8042C34.082 79.7132 28.6143 74.2235 28.6143 67.4744V28.7082C28.6143 21.959 34.082 16.4694 40.8042 16.4694H90.4396C97.1618 16.4694 102.629 21.959 102.629 28.7082V67.4744C102.629 74.2235 97.1618 79.7132 90.4396 79.7132Z" fill="#E4E7F9"/>
<path d="M90.4398 79.6894H40.8044C34.0941 79.6894 28.6382 74.2116 28.6382 67.4743V28.7082C28.6382 21.9709 34.0941 16.4931 40.8044 16.4931H90.4398C97.1502 16.4931 102.606 21.9709 102.606 28.7082V67.4743C102.606 74.2116 97.1502 79.6894 90.4398 79.6894Z" fill="#E4E7F9"/>
<path d="M90.4396 79.6657H40.8042C34.1116 79.6657 28.6616 74.1998 28.6616 67.4744V28.7082C28.6616 21.9887 34.1057 16.5169 40.8042 16.5169H90.4396C97.1322 16.5169 102.582 21.9828 102.582 28.7082V67.4744C102.582 74.1938 97.1381 79.6657 90.4396 79.6657Z" fill="#E5E8F9"/>
<path d="M90.4399 79.6419H40.8044C34.1237 79.6419 28.6855 74.182 28.6855 67.4744V28.7082C28.6855 22.0007 34.1237 16.5407 40.8044 16.5407H90.4399C97.1206 16.5407 102.559 22.0007 102.559 28.7082V67.4744C102.559 74.182 97.1206 79.6419 90.4399 79.6419Z" fill="#E5E8F9"/>
<path d="M90.4396 79.6176H40.8042C34.1352 79.6176 28.7148 74.1696 28.7148 67.4738V28.7077C28.7148 22.012 34.1411 16.5639 40.8042 16.5639H90.4396C97.1085 16.5639 102.535 22.012 102.535 28.7077V67.4738C102.535 74.1696 97.1085 79.6176 90.4396 79.6176Z" fill="#E6E8F9"/>
<path d="M90.4398 79.5943H40.8044C34.1473 79.5943 28.7388 74.1581 28.7388 67.4802V28.7081C28.7388 22.0243 34.1532 16.5941 40.8044 16.5941H90.4398C97.0969 16.5941 102.505 22.0302 102.505 28.7081V67.4743C102.505 74.1581 97.091 79.5883 90.4398 79.5883V79.5943Z" fill="#E6E9F9"/>
<path d="M90.4396 79.5706H40.8042C34.1648 79.5706 28.7622 74.1463 28.7622 67.4803V28.7082C28.7622 22.0422 34.1648 16.6179 40.8042 16.6179H90.4396C97.079 16.6179 102.482 22.0422 102.482 28.7082V67.4743C102.482 74.1403 97.079 79.5646 90.4396 79.5646V79.5706Z" fill="#E6E9F9"/>
<path d="M90.4398 79.5409H40.8044C34.1769 79.5409 28.7861 74.1285 28.7861 67.4744V28.7082C28.7861 22.0541 34.1769 16.6417 40.8044 16.6417H90.4398C97.0674 16.6417 102.458 22.0541 102.458 28.7082V67.4744C102.458 74.1285 97.0674 79.5409 90.4398 79.5409Z" fill="#E7E9F9"/>
<path d="M90.4396 79.5172H40.8042C34.1885 79.5172 28.8096 74.1166 28.8096 67.4744V28.7082C28.8096 22.066 34.1885 16.6655 40.8042 16.6655H90.4396C97.0553 16.6655 102.434 22.066 102.434 28.7082V67.4744C102.434 74.1166 97.0553 79.5172 90.4396 79.5172Z" fill="#E7E9F9"/>
<path d="M90.4394 79.4934H40.804C34.206 79.4934 28.833 74.1047 28.833 67.4744V28.7082C28.833 22.0838 34.2001 16.6892 40.804 16.6892H90.4394C97.0373 16.6892 102.41 22.0838 102.41 28.7082V67.4744C102.41 74.0988 97.0432 79.4934 90.4394 79.4934Z" fill="#E7EAF9"/>
<path d="M90.4396 79.4691H40.8042C34.2181 79.4691 28.8569 74.0864 28.8569 67.4739V28.7077C28.8569 22.0952 34.2181 16.7125 40.8042 16.7125H90.4396C97.0257 16.7125 102.387 22.0952 102.387 28.7077V67.4739C102.387 74.0864 97.0257 79.4691 90.4396 79.4691Z" fill="#E8EAF9"/>
<path d="M90.4399 79.4453H40.8045C34.2302 79.4453 28.8809 74.0745 28.8809 67.4739V28.7077C28.8809 22.107 34.2302 16.7362 40.8045 16.7362H90.4399C97.0142 16.7362 102.364 22.107 102.364 28.7077V67.4739C102.364 74.0745 97.0142 79.4453 90.4399 79.4453Z" fill="#E8EAF9"/>
<path d="M90.4396 79.4221H40.8042C34.2418 79.4221 28.9102 74.0631 28.9102 67.4803V28.7082C28.9102 22.1194 34.2477 16.7664 40.8042 16.7664H90.4396C97.002 16.7664 102.334 22.1254 102.334 28.7082V67.4744C102.334 74.0631 96.9961 79.4161 90.4396 79.4161V79.4221Z" fill="#E9EBF9"/>
<path d="M90.4399 79.3983H40.8044C34.2598 79.3983 28.9341 74.0512 28.9341 67.4803V28.7082C28.9341 22.1372 34.2598 16.7902 40.8044 16.7902H90.4399C96.9845 16.7902 102.31 22.1372 102.31 28.7082V67.4743C102.31 74.0453 96.9845 79.3923 90.4399 79.3923V79.3983Z" fill="#E9EBF9"/>
<path d="M90.4396 79.3745H40.8042C34.2714 79.3745 28.9575 74.0394 28.9575 67.4803V28.7082C28.9575 22.1491 34.2714 16.814 40.8042 16.814H90.4396C96.9725 16.814 102.286 22.1491 102.286 28.7082V67.4744C102.286 74.0334 96.9725 79.3686 90.4396 79.3686V79.3745Z" fill="#E9EBF9"/>
<path d="M90.4394 79.3449H40.804C34.283 79.3449 28.981 74.0216 28.981 67.4744V28.7082C28.981 22.1611 34.283 16.8378 40.804 16.8378H90.4394C96.9604 16.8378 102.262 22.1611 102.262 28.7082V67.4744C102.262 74.0216 96.9604 79.3449 90.4394 79.3449Z" fill="#EAECFA"/>
<path d="M90.4397 79.3206H40.8042C34.301 79.3206 29.0049 74.0032 29.0049 67.4738V28.7077C29.0049 22.1783 34.301 16.861 40.8042 16.861H90.4397C96.9429 16.861 102.239 22.1783 102.239 28.7077V67.4738C102.239 74.0032 96.9429 79.3206 90.4397 79.3206Z" fill="#EAECFA"/>
<path d="M90.4399 79.2968H40.8045C34.3131 79.2968 29.0288 73.9914 29.0288 67.4739V28.7077C29.0288 22.1902 34.3131 16.8848 40.8045 16.8848H90.4399C96.9313 16.8848 102.216 22.1902 102.216 28.7077V67.4739C102.216 73.9914 96.9313 79.2968 90.4399 79.2968Z" fill="#EBECFA"/>
<path d="M90.4397 79.2731H40.8043C34.3247 79.2731 29.0522 73.9795 29.0522 67.4739V28.7077C29.0522 22.2022 34.3247 16.9086 40.8043 16.9086H90.4397C96.9193 16.9086 102.192 22.2022 102.192 28.7077V67.4739C102.192 73.9795 96.9193 79.2731 90.4397 79.2731Z" fill="#EBEDFA"/>
<path d="M90.4399 79.2493H40.8045C34.3367 79.2493 29.082 73.9676 29.082 67.4739V28.7077C29.082 22.214 34.3426 16.9323 40.8045 16.9323H90.4399C96.9076 16.9323 102.168 22.214 102.168 28.7077V67.4739C102.168 73.9676 96.9076 79.2493 90.4399 79.2493Z" fill="#EBEDFA"/>
<path d="M90.4396 79.2261H40.8042C34.3542 79.2261 29.1055 73.9562 29.1055 67.4803V28.7082C29.1055 22.2323 34.3542 16.9625 40.8042 16.9625H90.4396C96.8896 16.9625 102.138 22.2323 102.138 28.7082V67.4744C102.138 73.9503 96.8896 79.2201 90.4396 79.2201V79.2261Z" fill="#ECEDFA"/>
<path d="M90.4394 79.2023H40.804C34.3658 79.2023 29.1289 73.9443 29.1289 67.4803V28.7082C29.1289 22.2442 34.3658 16.9863 40.804 16.9863H90.4394C96.8776 16.9863 102.115 22.2442 102.115 28.7082V67.4744C102.115 73.9384 96.8776 79.1963 90.4394 79.1963V79.2023Z" fill="#ECEFFA"/>
<path d="M90.4397 79.1721H40.8043C34.3779 79.1721 29.1528 73.926 29.1528 67.4739V28.7077C29.1528 22.2556 34.3779 17.0095 40.8043 17.0095H90.4397C96.866 17.0095 102.091 22.2556 102.091 28.7077V67.4739C102.091 73.926 96.866 79.1721 90.4397 79.1721Z" fill="#EDEFFA"/>
<path d="M90.4394 79.1483H40.804C34.3954 79.1483 29.1763 73.9141 29.1763 67.4739V28.7077C29.1763 22.2674 34.3954 17.0333 40.804 17.0333H90.4394C96.848 17.0333 102.067 22.2734 102.067 28.7077V67.4739C102.067 73.9081 96.848 79.1483 90.4394 79.1483Z" fill="#EDEFFA"/>
<path d="M90.4397 79.1245H40.8043C34.4075 79.1245 29.2002 73.8963 29.2002 67.4739V28.7077C29.2002 22.2853 34.4075 17.0571 40.8043 17.0571H90.4397C96.8364 17.0571 102.044 22.2853 102.044 28.7077V67.4739C102.044 73.8963 96.8364 79.1245 90.4397 79.1245Z" fill="#EDF0FA"/>
<path d="M90.4395 79.1008H40.804C34.4191 79.1008 29.2236 73.8845 29.2236 67.4739V28.7078C29.2236 22.2972 34.4191 17.0809 40.804 17.0809H90.4395C96.8244 17.0809 102.02 22.2972 102.02 28.7078V67.4739C102.02 73.8845 96.8244 79.1008 90.4395 79.1008Z" fill="#EEF0FA"/>
<path d="M90.4397 79.0771H40.8043C34.4312 79.0771 29.2476 73.8726 29.2476 67.474V28.7078C29.2476 22.3091 34.4312 17.1047 40.8043 17.1047H90.4397C96.8128 17.1047 101.996 22.3091 101.996 28.7078V67.474C101.996 73.8726 96.8128 79.0771 90.4397 79.0771Z" fill="#EEF0FA"/>
<path d="M90.4394 79.0533H40.804C34.4487 79.0533 29.2769 73.8607 29.2769 67.4799V28.7078C29.2769 22.3269 34.4487 17.1284 40.804 17.1284H90.4394C96.7947 17.1284 101.972 22.321 101.972 28.7078V67.4739C101.972 73.8548 96.8007 79.0474 90.4394 79.0474V79.0533Z" fill="#EEF1FA"/>
<path d="M90.4397 79.0294H40.8043C34.4608 79.0294 29.3008 73.8487 29.3008 67.4798V28.7077C29.3008 22.3387 34.4608 17.158 40.8043 17.158H90.4397C96.7832 17.158 101.943 22.3387 101.943 28.7077V67.4738C101.943 73.8428 96.7832 79.0235 90.4397 79.0235V79.0294Z" fill="#EFF1FA"/>
<path d="M90.4394 79.0057H40.804C34.4724 79.0057 29.3242 73.8369 29.3242 67.4798V28.7077C29.3242 22.3506 34.4724 17.1818 40.804 17.1818H90.4394C96.7711 17.1818 101.919 22.3506 101.919 28.7077V67.4739C101.919 73.8309 96.7711 78.9998 90.4394 78.9998V79.0057Z" fill="#EFF1FA"/>
<path d="M90.4397 78.976H40.8043C34.4845 78.976 29.3481 73.8132 29.3481 67.4739V28.7077C29.3481 22.3626 34.4845 17.2056 40.8043 17.2056H90.4397C96.7595 17.2056 101.896 22.3685 101.896 28.7077V67.4739C101.896 73.8191 96.7536 78.976 90.4397 78.976Z" fill="#F0F2FC"/>
<path d="M90.4395 78.9523H40.8041C34.502 78.9523 29.3716 73.8013 29.3716 67.4739V28.7077C29.3716 22.3804 34.502 17.2294 40.8041 17.2294H90.4395C96.7415 17.2294 101.872 22.3804 101.872 28.7077V67.4739C101.872 73.8013 96.7415 78.9523 90.4395 78.9523Z" fill="#F0F2FC"/>
<path d="M90.4397 78.9285H40.8043C34.5141 78.9285 29.3955 73.7894 29.3955 67.4739V28.7078C29.3955 22.3923 34.5141 17.2532 40.8043 17.2532H90.4397C96.73 17.2532 101.849 22.3923 101.849 28.7078V67.4739C101.849 73.7894 96.73 78.9285 90.4397 78.9285Z" fill="#F0F2FC"/>
<path d="M90.4395 78.9048H40.8041C34.5257 78.9048 29.4189 73.7776 29.4189 67.474V28.7078C29.4189 22.4042 34.5257 17.277 40.8041 17.277H90.4395C96.7179 17.277 101.825 22.4042 101.825 28.7078V67.474C101.825 73.7776 96.7179 78.9048 90.4395 78.9048Z" fill="#F1F3FC"/>
<path d="M90.4398 78.8812H40.8043C34.5437 78.8812 29.4429 73.7658 29.4429 67.4741V28.708C29.4429 22.4222 34.5378 17.3009 40.8043 17.3009H90.4398C96.7004 17.3009 101.801 22.4163 101.801 28.708V67.4741C101.801 73.7599 96.7063 78.8812 90.4398 78.8812Z" fill="#F1F3FC"/>
<path d="M90.4395 78.8571H40.804C34.5552 78.8571 29.4722 73.7537 29.4722 67.4798V28.7077C29.4722 22.4338 34.5552 17.3303 40.804 17.3303H90.4395C96.6883 17.3303 101.771 22.4338 101.771 28.7077V67.4739C101.771 73.7477 96.6883 78.8512 90.4395 78.8512V78.8571Z" fill="#F2F3FC"/>
<path d="M90.4397 78.8334H40.8043C34.5673 78.8334 29.4961 73.7418 29.4961 67.4798V28.7077C29.4961 22.4457 34.5673 17.3541 40.8043 17.3541H90.4397C96.6767 17.3541 101.748 22.4457 101.748 28.7077V67.4739C101.748 73.7359 96.6767 78.8275 90.4397 78.8275V78.8334Z" fill="#F2F4FC"/>
<path d="M90.4395 78.8097H40.8041C34.5789 78.8097 29.5195 73.724 29.5195 67.4799V28.7078C29.5195 22.4576 34.5849 17.3779 40.8041 17.3779H90.4395C96.6646 17.3779 101.724 22.4636 101.724 28.7078V67.4739C101.724 73.724 96.6646 78.8038 90.4395 78.8038V78.8097Z" fill="#F2F4FC"/>
<path d="M90.4397 78.78H40.8043C34.5969 78.78 29.5435 73.7063 29.5435 67.474V28.7078C29.5435 22.4755 34.5969 17.4017 40.8043 17.4017H90.4397C96.6471 17.4017 101.701 22.4755 101.701 28.7078V67.474C101.701 73.7063 96.6471 78.78 90.4397 78.78Z" fill="#F3F4FC"/>
<path d="M90.4395 78.7562H40.8041C34.6085 78.7562 29.5669 73.6944 29.5669 67.4739V28.7078C29.5669 22.4874 34.6085 17.4255 40.8041 17.4255H90.4395C96.6351 17.4255 101.677 22.4874 101.677 28.7078V67.4739C101.677 73.6944 96.6351 78.7562 90.4395 78.7562Z" fill="#F3F5FC"/>
<path d="M90.4398 78.7326H40.8044C34.6206 78.7326 29.5908 73.6826 29.5908 67.4741V28.7079C29.5908 22.4994 34.6206 17.4494 40.8044 17.4494H90.4398C96.6235 17.4494 101.653 22.4994 101.653 28.7079V67.4741C101.653 73.6826 96.6235 78.7326 90.4398 78.7326Z" fill="#F4F5FC"/>
<path d="M90.4395 78.7089H40.8041C34.6382 78.7089 29.6143 73.6708 29.6143 67.4741V28.708C29.6143 22.5173 34.6322 17.4732 40.8041 17.4732H90.4395C96.6055 17.4732 101.629 22.5113 101.629 28.708V67.4741C101.629 73.6648 96.6114 78.7089 90.4395 78.7089Z" fill="#F4F5FC"/>
<path d="M90.4398 78.6851H40.8044C34.6502 78.6851 29.6382 73.6589 29.6382 67.4741V28.7079C29.6382 22.5291 34.6443 17.4969 40.8044 17.4969H90.4398C96.5939 17.4969 101.606 22.5232 101.606 28.7079V67.4741C101.606 73.6529 96.5998 78.6851 90.4398 78.6851Z" fill="#F4F6FC"/>
<path d="M90.4395 78.6611H40.8041C34.6618 78.6611 29.6675 73.6468 29.6675 67.4798V28.7077C29.6675 22.5408 34.6618 17.5264 40.8041 17.5264H90.4395C96.5818 17.5264 101.576 22.5408 101.576 28.7077V67.4739C101.576 73.6408 96.5818 78.6552 90.4395 78.6552V78.6611Z" fill="#F5F6FC"/>
<path d="M90.4398 78.6374H40.8043C34.6739 78.6374 29.6914 73.629 29.6914 67.4799V28.7078C29.6914 22.5527 34.6798 17.5502 40.8043 17.5502H90.4398C96.5702 17.5502 101.553 22.5586 101.553 28.7078V67.4739C101.553 73.629 96.5643 78.6315 90.4398 78.6315V78.6374Z" fill="#F5F6FC"/>
<path d="M90.4395 78.6077H40.8041C34.6914 78.6077 29.7148 73.6112 29.7148 67.474V28.7078C29.7148 22.5706 34.6914 17.574 40.8041 17.574H90.4395C96.5522 17.574 101.529 22.5706 101.529 28.7078V67.474C101.529 73.6112 96.5522 78.6077 90.4395 78.6077Z" fill="#F5F7FD"/>
<path d="M90.4398 78.5841H40.8044C34.7035 78.5841 29.7388 73.5995 29.7388 67.4741V28.708C29.7388 22.5826 34.7035 17.598 40.8044 17.598H90.4398C96.5407 17.598 101.505 22.5826 101.505 28.708V67.4741C101.505 73.5995 96.5407 78.5841 90.4398 78.5841Z" fill="#F6F7FD"/>
<path d="M90.4395 78.5604H40.8041C34.7151 78.5604 29.7622 73.5876 29.7622 67.4741V28.7079C29.7622 22.5945 34.7151 17.6217 40.8041 17.6217H90.4395C96.5286 17.6217 101.481 22.5945 101.481 28.7079V67.4741C101.481 73.5876 96.5286 78.5604 90.4395 78.5604Z" fill="#F6F7FD"/>
<path d="M90.4398 78.5366H40.8044C34.7272 78.5366 29.7861 73.5757 29.7861 67.4742V28.708C29.7861 22.6064 34.7272 17.6455 40.8044 17.6455H90.4398C96.517 17.6455 101.458 22.6064 101.458 28.708V67.4742C101.458 73.5757 96.517 78.5366 90.4398 78.5366Z" fill="#F7F8FD"/>
<path d="M90.4396 78.5128H40.8042C34.7447 78.5128 29.8096 73.5638 29.8096 67.4741V28.708C29.8096 22.6242 34.7388 17.6693 40.8042 17.6693H90.4396C96.499 17.6693 101.434 22.6183 101.434 28.708V67.4741C101.434 73.5579 96.5049 78.5128 90.4396 78.5128Z" fill="#F7F8FD"/>
<path d="M90.4398 78.4891H40.8044C34.7567 78.4891 29.8394 73.5519 29.8394 67.4801V28.7079C29.8394 22.6361 34.7567 17.693 40.8044 17.693H90.4398C96.4874 17.693 101.405 22.6361 101.405 28.7079V67.4741C101.405 73.546 96.4874 78.4831 90.4398 78.4831V78.4891Z" fill="#F7F8FD"/>
<path d="M90.4395 78.4651H40.8041C34.7683 78.4651 29.8628 73.5339 29.8628 67.4799V28.7078C29.8628 22.6478 34.7743 17.7225 40.8041 17.7225H90.4395C96.4753 17.7225 101.381 22.6537 101.381 28.7078V67.4739C101.381 73.5339 96.4694 78.4592 90.4395 78.4592V78.4651Z" fill="#F8F9FD"/>
<path d="M90.4398 78.4356H40.8044C34.7864 78.4356 29.8867 73.5163 29.8867 67.4741V28.7079C29.8867 22.6658 34.7864 17.7465 40.8044 17.7465H90.4398C96.4578 17.7465 101.357 22.6658 101.357 28.7079V67.4741C101.357 73.5163 96.4578 78.4356 90.4398 78.4356Z" fill="#F8F9FD"/>
<path d="M90.4396 78.4119H40.8041C34.798 78.4119 29.9102 73.5044 29.9102 67.4741V28.708C29.9102 22.6777 34.798 17.7703 40.8041 17.7703H90.4396C96.4458 17.7703 101.334 22.6777 101.334 28.708V67.4741C101.334 73.5044 96.4458 78.4119 90.4396 78.4119Z" fill="#F9F9FD"/>
<path d="M90.4398 78.3881H40.8044C34.81 78.3881 29.9341 73.4925 29.9341 67.4741V28.7079C29.9341 22.6895 34.81 17.794 40.8044 17.794H90.4398C96.4342 17.794 101.31 22.6895 101.31 28.7079V67.4741C101.31 73.4925 96.4342 78.3881 90.4398 78.3881Z" fill="#F9FAFD"/>
<path d="M90.4396 78.3643H40.8042C34.8216 78.3643 29.9575 73.4807 29.9575 67.4742V28.708C29.9575 22.7015 34.8216 17.8178 40.8042 17.8178H90.4396C96.4221 17.8178 101.286 22.7015 101.286 28.708V67.4742C101.286 73.4807 96.4221 78.3643 90.4396 78.3643Z" fill="#F9FAFD"/>
<path d="M90.4398 78.3406H40.8044C34.8397 78.3406 29.9814 73.4688 29.9814 67.4741V28.708C29.9814 22.7193 34.8337 17.8416 40.8044 17.8416H90.4398C96.4046 17.8416 101.263 22.7133 101.263 28.708V67.4741C101.263 73.4628 96.4105 78.3406 90.4398 78.3406Z" fill="#FAFAFD"/>
<path d="M90.4396 78.3168H40.8042C34.8513 78.3168 30.0049 73.4569 30.0049 67.4741V28.7079C30.0049 22.7311 34.8453 17.8653 40.8042 17.8653H90.4396C96.3925 17.8653 101.239 22.7311 101.239 28.7079V67.4741C101.239 73.4509 96.3985 78.3168 90.4396 78.3168Z" fill="#FAFBFD"/>
<path d="M90.4398 78.293H40.8044C34.8633 78.293 30.0347 73.4391 30.0347 67.4801V28.708C30.0347 22.743 34.8692 17.895 40.8044 17.895H90.4398C96.3809 17.895 101.21 22.749 101.21 28.708V67.4741C101.21 73.4391 96.375 78.2871 90.4398 78.2871V78.293Z" fill="#FBFBFD"/>
<path d="M90.4396 78.2692H40.8042C34.8808 78.2692 30.0581 73.4272 30.0581 67.4801V28.7079C30.0581 22.7608 34.8808 17.9188 40.8042 17.9188H90.4396C96.3688 17.9188 101.186 22.7608 101.186 28.7079V67.4741C101.186 73.4212 96.3629 78.2633 90.4396 78.2633V78.2692Z" fill="#FBFBFD"/>
<path d="M90.4398 78.2396H40.8044C34.8929 78.2396 30.082 73.4094 30.082 67.4742V28.708C30.082 22.7727 34.8929 17.9426 40.8044 17.9426H90.4398C96.3513 17.9426 101.162 22.7727 101.162 28.708V67.4742C101.162 73.4094 96.3513 78.2396 90.4398 78.2396Z" fill="#FBFCFF"/>
<path d="M90.4396 78.2158H40.8042C34.9045 78.2158 30.1055 73.3975 30.1055 67.4741V28.708C30.1055 22.7846 34.9045 17.9663 40.8042 17.9663H90.4396C96.3393 17.9663 101.138 22.7846 101.138 28.708V67.4741C101.138 73.3975 96.3393 78.2158 90.4396 78.2158Z" fill="#FCFCFF"/>
<path d="M90.4399 78.192H40.8044C34.9166 78.192 30.1294 73.3856 30.1294 67.4741V28.7079C30.1294 22.7965 34.9166 17.9901 40.8044 17.9901H90.4399C96.3277 17.9901 101.115 22.7965 101.115 28.7079V67.4741C101.115 73.3856 96.3277 78.192 90.4399 78.192Z" fill="#FCFCFF"/>
<path d="M90.4396 78.1683H40.8042C34.9341 78.1683 30.1528 73.3737 30.1528 67.4741V28.708C30.1528 22.8143 34.9282 18.0139 40.8042 18.0139H90.4396C96.3097 18.0139 101.091 22.8084 101.091 28.708V67.4741C101.091 73.3678 96.3156 78.1683 90.4396 78.1683Z" fill="#FCFDFF"/>
<path d="M90.4399 78.1445H40.8045C34.9462 78.1445 30.1768 73.3559 30.1768 67.4741V28.7079C30.1768 22.8262 34.9462 18.0376 40.8045 18.0376H90.4399C96.2981 18.0376 101.068 22.8262 101.068 28.7079V67.4741C101.068 73.3559 96.304 78.1445 90.4399 78.1445Z" fill="#FDFDFF"/>
<path d="M90.4396 78.1207H40.8042C34.9578 78.1207 30.2061 73.344 30.2061 67.4801V28.708C30.2061 22.8381 34.9637 18.0673 40.8042 18.0673H90.4396C96.286 18.0673 101.044 22.844 101.044 28.708V67.4741C101.044 73.344 96.286 78.1148 90.4396 78.1148V78.1207Z" fill="#FDFDFF"/>
<path d="M90.4398 78.097H40.8044C34.9698 78.097 30.23 73.3321 30.23 67.4801V28.7079C30.23 22.8499 34.9758 18.0911 40.8044 18.0911H90.4398C96.2744 18.0911 101.014 22.8559 101.014 28.7079V67.4741C101.014 73.3321 96.2685 78.091 90.4398 78.091V78.097Z" fill="white"/>
<path d="M90.4396 78.0732H40.8042C34.9874 78.0732 30.2534 73.3203 30.2534 67.4801V28.708C30.2534 22.8678 34.9874 18.1149 40.8042 18.1149H90.4396C96.2565 18.1149 100.99 22.8678 100.99 28.708V67.4742C100.99 73.3143 96.2565 78.0673 90.4396 78.0673V78.0732Z" fill="white"/>
<path d="M103.949 28.7077C103.949 21.2278 97.8899 15.144 90.4398 15.144H40.8044C33.3544 15.144 27.2949 21.2278 27.2949 28.7077V33.0032H103.949V28.7077Z" fill="url(#paint0_linear_1281_18328)"/>
<path d="M48.6214 22.4458C48.6214 25.3213 46.2958 27.6562 43.4318 27.6562C40.5677 27.6562 38.2422 25.3213 38.2422 22.4458C38.2422 19.5702 40.5677 17.2354 43.4318 17.2354C46.2958 17.2354 48.6214 19.5702 48.6214 22.4458Z" fill="url(#paint1_radial_1281_18328)"/>
<path d="M46.2309 21.8066C46.2309 23.5432 44.9052 24.9529 43.2722 24.9529C41.6392 24.9529 40.3135 23.5432 40.3135 21.8066V11.464C40.3135 9.7274 41.6392 8.31763 43.2722 8.31763C44.9052 8.31763 46.2309 9.7274 46.2309 11.464V21.8066Z" fill="url(#paint2_linear_1281_18328)"/>
<path d="M93.0022 22.4458C93.0022 25.3213 90.6767 27.6562 87.8126 27.6562C84.9486 27.6562 82.623 25.3213 82.623 22.4458C82.623 19.5702 84.9486 17.2354 87.8126 17.2354C90.6767 17.2354 93.0022 19.5702 93.0022 22.4458Z" fill="url(#paint3_radial_1281_18328)"/>
<path d="M90.6118 21.8066C90.6118 23.5432 89.2861 24.9529 87.6531 24.9529C86.02 24.9529 84.6943 23.5432 84.6943 21.8066V11.464C84.6943 9.7274 86.02 8.31763 87.6531 8.31763C89.2861 8.31763 90.6118 9.7274 90.6118 11.464V21.8066Z" fill="url(#paint4_linear_1281_18328)"/>
<path d="M49.1896 43.1149C49.1896 44.8676 47.7753 46.2935 46.0237 46.2935C44.2722 46.2935 42.8579 44.8735 42.8579 43.1149C42.8579 41.3563 44.2722 39.9364 46.0237 39.9364C47.7753 39.9364 49.1896 41.3563 49.1896 43.1149Z" fill="#E4E7F7"/>
<path d="M62.2555 43.1149C62.2555 44.8676 60.8412 46.2935 59.0897 46.2935C57.3381 46.2935 55.9238 44.8735 55.9238 43.1149C55.9238 41.3563 57.3381 39.9364 59.0897 39.9364C60.8412 39.9364 62.2555 41.3563 62.2555 43.1149Z" fill="#E4E7F7"/>
<path d="M75.3209 43.1149C75.3209 44.8676 73.9066 46.2935 72.1551 46.2935C70.4035 46.2935 68.9893 44.8735 68.9893 43.1149C68.9893 41.3563 70.4035 39.9364 72.1551 39.9364C73.9066 39.9364 75.3209 41.3563 75.3209 43.1149Z" fill="#E4E7F7"/>
<path d="M88.3805 43.1149C88.3805 44.8676 86.9662 46.2935 85.2147 46.2935C83.4631 46.2935 82.0488 44.8735 82.0488 43.1149C82.0488 41.3563 83.4631 39.9364 85.2147 39.9364C86.9662 39.9364 88.3805 41.3563 88.3805 43.1149Z" fill="#E4E7F7"/>
<path d="M49.1896 55.1221C49.1896 56.8747 47.7753 58.3006 46.0237 58.3006C44.2722 58.3006 42.8579 56.8807 42.8579 55.1221C42.8579 53.3635 44.2722 51.9435 46.0237 51.9435C47.7753 51.9435 49.1896 53.3635 49.1896 55.1221Z" fill="#E4E7F7"/>
<path d="M62.2555 55.1221C62.2555 56.8747 60.8412 58.3006 59.0897 58.3006C57.3381 58.3006 55.9238 56.8807 55.9238 55.1221C55.9238 53.3635 57.3381 51.9435 59.0897 51.9435C60.8412 51.9435 62.2555 53.3635 62.2555 55.1221Z" fill="#E4E7F7"/>
<path d="M75.3209 55.1221C75.3209 56.8747 73.9066 58.3006 72.1551 58.3006C70.4035 58.3006 68.9893 56.8807 68.9893 55.1221C68.9893 53.3635 70.4035 51.9435 72.1551 51.9435C73.9066 51.9435 75.3209 53.3635 75.3209 55.1221Z" fill="#E4E7F7"/>
<path d="M88.3805 55.1221C88.3805 56.8747 86.9662 58.3006 85.2147 58.3006C83.4631 58.3006 82.0488 56.8807 82.0488 55.1221C82.0488 53.3635 83.4631 51.9435 85.2147 51.9435C86.9662 51.9435 88.3805 53.3635 88.3805 55.1221Z" fill="#E4E7F7"/>
<path d="M49.1896 67.1232C49.1896 68.8759 47.7753 70.3018 46.0237 70.3018C44.2722 70.3018 42.8579 68.8818 42.8579 67.1232C42.8579 65.3646 44.2722 63.9447 46.0237 63.9447C47.7753 63.9447 49.1896 65.3646 49.1896 67.1232Z" fill="#E4E7F7"/>
<path d="M62.2555 67.1232C62.2555 68.8759 60.8412 70.3018 59.0897 70.3018C57.3381 70.3018 55.9238 68.8818 55.9238 67.1232C55.9238 65.3646 57.3381 63.9447 59.0897 63.9447C60.8412 63.9447 62.2555 65.3646 62.2555 67.1232Z" fill="#E4E7F7"/>
<path d="M75.3209 67.1232C75.3209 68.8759 73.9066 70.3018 72.1551 70.3018C70.4035 70.3018 68.9893 68.8818 68.9893 67.1232C68.9893 65.3646 70.4035 63.9447 72.1551 63.9447C73.9066 63.9447 75.3209 65.3646 75.3209 67.1232Z" fill="#E4E7F7"/>
<path d="M88.3805 67.1232C88.3805 68.8759 86.9662 70.3018 85.2147 70.3018C83.4631 70.3018 82.0488 68.8818 82.0488 67.1232C82.0488 65.3646 83.4631 63.9447 85.2147 63.9447C86.9662 63.9447 88.3805 65.3646 88.3805 67.1232Z" fill="#E4E7F7"/>
<path d="M107.997 73.5874C107.997 81.81 101.358 88.47 93.1679 88.47C84.9782 88.47 78.3447 81.804 78.3447 73.5874C78.3447 65.3707 84.9841 58.6988 93.1679 58.6988C101.352 58.6988 107.997 65.3648 107.997 73.5874Z" fill="url(#paint5_linear_1281_18328)"/>
<path d="M107.944 73.5874C107.944 81.7803 101.328 88.4166 93.1679 88.4166C85.0077 88.4166 78.3979 81.7743 78.3979 73.5874C78.3979 65.4004 85.0136 58.7523 93.1679 58.7523C101.322 58.7523 107.944 65.3945 107.944 73.5874Z" fill="url(#paint6_linear_1281_18328)"/>
<path d="M107.89 73.5872C107.89 81.7504 101.298 88.3629 93.1737 88.3629C85.0491 88.3629 78.457 81.7444 78.457 73.5872C78.457 65.43 85.0431 58.8055 93.1737 58.8055C101.304 58.8055 107.89 65.424 107.89 73.5872Z" fill="url(#paint7_linear_1281_18328)"/>
<path d="M107.837 73.5871C107.837 81.7206 101.269 88.3094 93.1678 88.3094C85.0668 88.3094 78.5044 81.7147 78.5044 73.5871C78.5044 65.4596 85.0668 58.8589 93.1678 58.8589C101.269 58.8589 107.837 65.4537 107.837 73.5871Z" fill="url(#paint8_linear_1281_18328)"/>
<path d="M107.784 73.5876C107.784 81.6914 101.239 88.2564 93.1678 88.2564C85.0964 88.2564 78.5576 81.6854 78.5576 73.5876C78.5576 65.4898 85.0964 58.9129 93.1678 58.9129C101.239 58.9129 107.784 65.4838 107.784 73.5876Z" fill="url(#paint9_linear_1281_18328)"/>
<path d="M107.73 73.5874C107.73 81.6614 101.215 88.2027 93.1736 88.2027C85.1318 88.2027 78.6167 81.6555 78.6167 73.5874C78.6167 65.5192 85.1318 58.9661 93.1736 58.9661C101.215 58.9661 107.73 65.5133 107.73 73.5874Z" fill="url(#paint10_linear_1281_18328)"/>
<path d="M107.678 73.5874C107.678 81.6317 101.186 88.1492 93.174 88.1492C85.1618 88.1492 78.6704 81.6258 78.6704 73.5874C78.6704 65.5489 85.1618 59.0196 93.174 59.0196C101.186 59.0196 107.678 65.543 107.678 73.5874Z" fill="url(#paint11_linear_1281_18328)"/>
<path d="M107.624 73.5874C107.624 81.602 101.157 88.0957 93.174 88.0957C85.1914 88.0957 78.7236 81.5961 78.7236 73.5874C78.7236 65.5786 85.1914 59.0731 93.174 59.0731C101.157 59.0731 107.624 65.5668 107.624 73.5874Z" fill="url(#paint12_linear_1281_18328)"/>
<path d="M107.571 73.5876C107.571 81.5726 101.127 88.0425 93.174 88.0425C85.2209 88.0425 78.7769 81.5666 78.7769 73.5876C78.7769 65.6086 85.2209 59.1328 93.174 59.1328C101.127 59.1328 107.571 65.6027 107.571 73.5876Z" fill="url(#paint13_linear_1281_18328)"/>
<path d="M107.518 73.5876C107.518 81.5428 101.097 87.989 93.1739 87.989C85.2505 87.989 78.8301 81.5428 78.8301 73.5876C78.8301 65.6323 85.2505 59.1862 93.1739 59.1862C101.097 59.1862 107.518 65.6323 107.518 73.5876Z" fill="url(#paint14_linear_1281_18328)"/>
<path d="M107.459 73.5874C107.459 81.5129 101.062 87.9353 93.168 87.9353C85.2742 87.9353 78.8774 81.5129 78.8774 73.5874C78.8774 65.6619 85.2742 59.2394 93.168 59.2394C101.062 59.2394 107.459 65.6619 107.459 73.5874Z" fill="url(#paint15_linear_1281_18328)"/>
<path d="M107.405 73.5874C107.405 81.4832 101.032 87.8818 93.168 87.8818C85.3037 87.8818 78.9307 81.4832 78.9307 73.5874C78.9307 65.6916 85.3037 59.2929 93.168 59.2929C101.032 59.2929 107.405 65.6916 107.405 73.5874Z" fill="url(#paint16_linear_1281_18328)"/>
<path d="M107.352 73.5874C107.352 81.4535 101.003 87.8284 93.168 87.8284C85.3333 87.8284 78.9839 81.4535 78.9839 73.5874C78.9839 65.7213 85.3333 59.3464 93.168 59.3464C101.003 59.3464 107.352 65.7213 107.352 73.5874Z" fill="url(#paint17_linear_1281_18328)"/>
<path d="M107.299 73.5872C107.299 81.4236 100.973 87.7747 93.1679 87.7747C85.3628 87.7747 79.0371 81.4236 79.0371 73.5872C79.0371 65.7508 85.3628 59.3997 93.1679 59.3997C100.973 59.3997 107.299 65.7508 107.299 73.5872Z" fill="url(#paint18_linear_1281_18328)"/>
<path d="M107.245 73.5871C107.245 81.3938 100.943 87.7212 93.1679 87.7212C85.3924 87.7212 79.0903 81.3938 79.0903 73.5871C79.0903 65.7804 85.3924 59.4531 93.1679 59.4531C100.943 59.4531 107.245 65.7804 107.245 73.5871Z" fill="url(#paint19_linear_1281_18328)"/>
<path d="M107.192 73.5876C107.192 81.3646 100.914 87.6682 93.1679 87.6682C85.4219 87.6682 79.1436 81.3646 79.1436 73.5876C79.1436 65.8106 85.4219 59.507 93.1679 59.507C100.914 59.507 107.192 65.8106 107.192 73.5876Z" fill="url(#paint20_linear_1281_18328)"/>
<path d="M107.139 73.5874C107.139 81.3347 100.884 87.6145 93.1678 87.6145C85.4515 87.6145 79.1968 81.3347 79.1968 73.5874C79.1968 65.8401 85.4515 59.5602 93.1678 59.5602C100.884 59.5602 107.139 65.8401 107.139 73.5874Z" fill="url(#paint21_linear_1281_18328)"/>
<path d="M107.086 73.5874C107.086 81.3049 100.855 87.561 93.1678 87.561C85.4811 87.561 79.25 81.3049 79.25 73.5874C79.25 65.8698 85.4811 59.6137 93.1678 59.6137C100.855 59.6137 107.086 65.8698 107.086 73.5874Z" fill="url(#paint22_linear_1281_18328)"/>
<path d="M107.032 73.5874C107.032 81.2752 100.825 87.5075 93.1678 87.5075C85.5106 87.5075 79.3032 81.2752 79.3032 73.5874C79.3032 65.8995 85.5106 59.6672 93.1678 59.6672C100.825 59.6672 107.032 65.8995 107.032 73.5874Z" fill="url(#paint23_linear_1281_18328)"/>
<path d="M106.979 73.5872C106.979 81.2454 100.795 87.4539 93.1677 87.4539C85.5402 87.4539 79.3564 81.2454 79.3564 73.5872C79.3564 65.9291 85.5402 59.7205 93.1677 59.7205C100.795 59.7205 106.979 65.9291 106.979 73.5872Z" fill="url(#paint24_linear_1281_18328)"/>
<path d="M106.926 73.5871C106.926 81.2156 100.766 87.4003 93.1677 87.4003C85.5697 87.4003 79.4097 81.2156 79.4097 73.5871C79.4097 65.9586 85.5697 59.7739 93.1677 59.7739C100.766 59.7739 106.926 65.9586 106.926 73.5871Z" fill="url(#paint25_linear_1281_18328)"/>
<path d="M106.872 73.5876C106.872 81.1863 100.736 87.3474 93.1677 87.3474C85.5993 87.3474 79.4629 81.1863 79.4629 73.5876C79.4629 65.9888 85.5993 59.8278 93.1677 59.8278C100.736 59.8278 106.872 65.9888 106.872 73.5876Z" fill="url(#paint26_linear_1281_18328)"/>
<path d="M106.82 73.5874C106.82 81.1565 100.707 87.2937 93.1681 87.2937C85.6293 87.2937 79.5166 81.1565 79.5166 73.5874C79.5166 66.0183 85.6293 59.8811 93.1681 59.8811C100.707 59.8811 106.82 66.0183 106.82 73.5874Z" fill="url(#paint27_linear_1281_18328)"/>
<path d="M106.766 73.5874C106.766 81.1268 100.677 87.2402 93.1681 87.2402C85.6589 87.2402 79.5698 81.1268 79.5698 73.5874C79.5698 66.048 85.6589 59.9346 93.1681 59.9346C100.677 59.9346 106.766 66.048 106.766 73.5874Z" fill="url(#paint28_linear_1281_18328)"/>
<path d="M106.713 73.5874C106.713 81.097 100.648 87.1867 93.168 87.1867C85.6884 87.1867 79.623 81.097 79.623 73.5874C79.623 66.0777 85.6884 59.988 93.168 59.988C100.648 59.988 106.713 66.0777 106.713 73.5874Z" fill="url(#paint29_linear_1281_18328)"/>
<path d="M106.66 73.5874C106.66 81.0673 100.618 87.1333 93.168 87.1333C85.718 87.1333 79.6763 81.0673 79.6763 73.5874C79.6763 66.1074 85.718 60.0415 93.168 60.0415C100.618 60.0415 106.66 66.1074 106.66 73.5874Z" fill="url(#paint30_linear_1281_18328)"/>
<path d="M106.606 73.5871C106.606 81.0374 100.588 87.0796 93.168 87.0796C85.7475 87.0796 79.7295 81.0374 79.7295 73.5871C79.7295 66.1369 85.7475 60.0947 93.168 60.0947C100.588 60.0947 106.606 66.1369 106.606 73.5871Z" fill="url(#paint31_linear_1281_18328)"/>
<path d="M106.553 73.5876C106.553 81.0082 100.559 87.0266 93.1679 87.0266C85.7771 87.0266 79.7827 81.0082 79.7827 73.5876C79.7827 66.1671 85.7771 60.1487 93.1679 60.1487C100.559 60.1487 106.553 66.1671 106.553 73.5876Z" fill="url(#paint32_linear_1281_18328)"/>
<path d="M106.5 73.5876C106.5 80.9784 100.529 86.973 93.1679 86.973C85.8066 86.973 79.8359 80.9784 79.8359 73.5876C79.8359 66.1967 85.8066 60.2021 93.1679 60.2021C100.529 60.2021 106.5 66.1967 106.5 73.5876Z" fill="url(#paint33_linear_1281_18328)"/>
<path d="M106.447 73.5874C106.447 80.9485 100.5 86.9194 93.1679 86.9194C85.8362 86.9194 79.8892 80.9485 79.8892 73.5874C79.8892 66.2263 85.8362 60.2554 93.1679 60.2554C100.5 60.2554 106.447 66.2263 106.447 73.5874Z" fill="url(#paint34_linear_1281_18328)"/>
<path d="M106.393 73.5874C106.393 80.9188 100.47 86.8659 93.1678 86.8659C85.8657 86.8659 79.9424 80.9188 79.9424 73.5874C79.9424 66.256 85.8598 60.3088 93.1678 60.3088C100.476 60.3088 106.393 66.256 106.393 73.5874Z" fill="url(#paint35_linear_1281_18328)"/>
<path d="M106.34 73.5874C106.34 80.8891 100.446 86.8124 93.1678 86.8124C85.8894 86.8124 79.9956 80.8891 79.9956 73.5874C79.9956 66.2857 85.8894 60.3623 93.1678 60.3623C100.446 60.3623 106.34 66.2857 106.34 73.5874Z" fill="url(#paint36_linear_1281_18328)"/>
<path d="M106.287 73.5872C106.287 80.8592 100.417 86.7588 93.1678 86.7588C85.9189 86.7588 80.0488 80.8592 80.0488 73.5872C80.0488 66.3152 85.9189 60.4156 93.1678 60.4156C100.417 60.4156 106.287 66.3152 106.287 73.5872Z" fill="url(#paint37_linear_1281_18328)"/>
<path d="M106.233 73.5877C106.233 80.83 100.387 86.7058 93.1677 86.7058C85.9485 86.7058 80.1021 80.83 80.1021 73.5877C80.1021 66.3454 85.9485 60.4695 93.1677 60.4695C100.387 60.4695 106.233 66.3454 106.233 73.5877Z" fill="url(#paint38_linear_1281_18328)"/>
<path d="M106.18 73.5875C106.18 80.8001 100.357 86.6522 93.1677 86.6522C85.978 86.6522 80.1553 80.8001 80.1553 73.5875C80.1553 66.3749 85.978 60.5229 93.1677 60.5229C100.357 60.5229 106.18 66.369 106.18 73.5875Z" fill="url(#paint39_linear_1281_18328)"/>
<path d="M106.127 73.5874C106.127 80.7702 100.328 86.5985 93.1677 86.5985C86.0076 86.5985 80.2085 80.7702 80.2085 73.5874C80.2085 66.4045 86.0076 60.5762 93.1677 60.5762C100.328 60.5762 106.127 66.3985 106.127 73.5874Z" fill="url(#paint40_linear_1281_18328)"/>
<path d="M106.074 73.5874C106.074 80.7406 100.299 86.5451 93.1681 86.5451C86.0376 86.5451 80.2622 80.7465 80.2622 73.5874C80.2622 66.4283 86.0376 60.6297 93.1681 60.6297C100.299 60.6297 106.074 66.4283 106.074 73.5874Z" fill="url(#paint41_linear_1281_18328)"/>
<path d="M106.021 73.5874C106.021 80.7109 100.269 86.4916 93.1681 86.4916C86.0672 86.4916 80.3154 80.7168 80.3154 73.5874C80.3154 66.458 86.0672 60.6832 93.1681 60.6832C100.269 60.6832 106.021 66.458 106.021 73.5874Z" fill="url(#paint42_linear_1281_18328)"/>
<path d="M105.967 73.5872C105.967 80.681 100.239 86.438 93.1681 86.438C86.0967 86.438 80.3687 80.6869 80.3687 73.5872C80.3687 66.4875 86.0967 60.7365 93.1681 60.7365C100.239 60.7365 105.967 66.4875 105.967 73.5872Z" fill="url(#paint43_linear_1281_18328)"/>
<path d="M105.914 73.5871C105.914 80.6511 100.21 86.3844 93.168 86.3844C86.1263 86.3844 80.4219 80.6571 80.4219 73.5871C80.4219 66.5171 86.1263 60.7898 93.168 60.7898C100.21 60.7898 105.914 66.5171 105.914 73.5871Z" fill="url(#paint44_linear_1281_18328)"/>
<path d="M105.861 73.5876C105.861 80.6219 100.18 86.3314 93.168 86.3314C86.1558 86.3314 80.4751 80.6279 80.4751 73.5876C80.4751 66.5473 86.1558 60.8438 93.168 60.8438C100.18 60.8438 105.861 66.5473 105.861 73.5876Z" fill="url(#paint45_linear_1281_18328)"/>
<path d="M105.808 73.5874C105.808 80.592 100.151 86.2777 93.168 86.2777C86.1854 86.2777 80.5283 80.598 80.5283 73.5874C80.5283 66.5768 86.1854 60.897 93.168 60.897C100.151 60.897 105.808 66.5768 105.808 73.5874Z" fill="url(#paint46_linear_1281_18328)"/>
<path d="M105.754 73.5874C105.754 80.5623 100.121 86.2243 93.1679 86.2243C86.2149 86.2243 80.5815 80.5683 80.5815 73.5874C80.5815 66.6065 86.2149 60.9505 93.1679 60.9505C100.121 60.9505 105.754 66.6065 105.754 73.5874Z" fill="url(#paint47_linear_1281_18328)"/>
<path d="M105.701 73.5874C105.701 80.5326 100.091 86.1708 93.1679 86.1708C86.2445 86.1708 80.6348 80.5386 80.6348 73.5874C80.6348 66.6362 86.2445 61.004 93.1679 61.004C100.091 61.004 105.701 66.6362 105.701 73.5874Z" fill="url(#paint48_linear_1281_18328)"/>
<path d="M105.648 73.5872C105.648 80.5027 100.062 86.1171 93.1678 86.1171C86.274 86.1171 80.688 80.5087 80.688 73.5872C80.688 66.6657 86.274 61.0573 93.1678 61.0573C100.062 61.0573 105.648 66.6657 105.648 73.5872Z" fill="url(#paint49_linear_1281_18328)"/>
<path d="M105.594 73.5871C105.594 80.473 100.032 86.0636 93.1678 86.0636C86.3036 86.0636 80.7412 80.4789 80.7412 73.5871C80.7412 66.6954 86.3036 61.1107 93.1678 61.1107C100.032 61.1107 105.594 66.6954 105.594 73.5871Z" fill="url(#paint50_linear_1281_18328)"/>
<path d="M105.541 73.5876C105.541 80.4437 100.002 86.0106 93.1678 86.0106C86.3331 86.0106 80.7944 80.4497 80.7944 73.5876C80.7944 66.7256 86.3331 61.1646 93.1678 61.1646C100.002 61.1646 105.541 66.7256 105.541 73.5876Z" fill="url(#paint51_linear_1281_18328)"/>
<path d="M105.488 73.5874C105.488 80.4138 99.9728 85.9569 93.1677 85.9569C86.3627 85.9569 80.8477 80.4197 80.8477 73.5874C80.8477 66.755 86.3627 61.2178 93.1677 61.2178C99.9728 61.2178 105.488 66.755 105.488 73.5874Z" fill="url(#paint52_linear_1281_18328)"/>
<path d="M105.435 73.5874C105.435 80.3841 99.9432 85.9034 93.1677 85.9034C86.3923 85.9034 80.9009 80.39 80.9009 73.5874C80.9009 66.7847 86.3923 61.2713 93.1677 61.2713C99.9432 61.2713 105.435 66.7847 105.435 73.5874Z" fill="url(#paint53_linear_1281_18328)"/>
<path d="M105.381 73.5874C105.381 80.3603 99.9136 85.844 93.1677 85.844C86.4218 85.844 80.9541 80.3544 80.9541 73.5874C80.9541 66.8204 86.4218 61.3248 93.1677 61.3248C99.9136 61.3248 105.381 66.8144 105.381 73.5874Z" fill="url(#paint54_linear_1281_18328)"/>
<path d="M105.328 73.5874C105.328 80.3306 99.8843 85.7905 93.1739 85.7905C86.4636 85.7905 81.0195 80.3247 81.0195 73.5874C81.0195 66.8501 86.4636 61.3782 93.1739 61.3782C99.8843 61.3782 105.328 66.8441 105.328 73.5874Z" fill="url(#paint55_linear_1281_18328)"/>
<path d="M105.275 73.5872C105.275 80.3007 99.8547 85.7369 93.174 85.7369C86.4932 85.7369 81.0669 80.2948 81.0669 73.5872C81.0669 66.8796 86.4873 61.4315 93.174 61.4315C99.8607 61.4315 105.275 66.8736 105.275 73.5872Z" fill="url(#paint56_linear_1281_18328)"/>
<path d="M92.2331 78.6968C91.168 78.6968 90.091 78.2809 89.2744 77.467L86.3453 74.5261C85.7358 73.9142 85.7358 72.9279 86.3453 72.316C86.9548 71.7041 87.943 71.7041 88.5466 72.316L91.4816 75.2569C91.6947 75.4708 91.955 75.5718 92.2331 75.5718C92.5053 75.5718 92.7716 75.4708 92.9847 75.2569L95.9138 72.3101L98.8488 69.3692C99.4524 68.7572 100.441 68.7572 101.05 69.3692C101.66 69.9811 101.66 70.9673 101.05 71.5793L98.121 74.5202L95.1859 77.467C94.3753 78.2809 93.2983 78.6968 92.2391 78.6968H92.2331Z" fill="white"/>
</g>
</g>
<defs>
<filter id="filter0_d_1281_18328" x="7.29492" y="-6.68237" width="120.702" height="120.152" filterUnits="userSpaceOnUse" color-interpolation-filters="sRGB">
<feFlood flood-opacity="0" result="BackgroundImageFix"/>
<feColorMatrix in="SourceAlpha" type="matrix" values="0 0 0 0 0 0 0 0 0 0 0 0 0 0 0 0 0 0 127 0" result="hardAlpha"/>
<feOffset dy="5"/>
<feGaussianBlur stdDeviation="10"/>
<feColorMatrix type="matrix" values="0 0 0 0 0 0 0 0 0 0.0635822 0 0 0 0 0.195833 0 0 0 0.15 0"/>
<feBlend mode="normal" in2="BackgroundImageFix" result="effect1_dropShadow_1281_18328"/>
<feBlend mode="normal" in="SourceGraphic" in2="effect1_dropShadow_1281_18328" result="shape"/>
</filter>
<linearGradient id="paint0_linear_1281_18328" x1="65.6221" y1="36.3006" x2="65.6221" y2="10.4327" gradientUnits="userSpaceOnUse">
<stop stop-color="#3F3BD7"/>
<stop offset="1" stop-color="#949BFF"/>
</linearGradient>
<radialGradient id="paint1_radial_1281_18328" cx="0" cy="0" r="1" gradientUnits="userSpaceOnUse" gradientTransform="translate(43.4259 22.4458) scale(5.18959 5.21041)">
<stop offset="0.63" stop-color="#8378FA"/>
<stop offset="0.64" stop-color="#9F98FA"/>
<stop offset="0.65" stop-color="#B7B3FB"/>
<stop offset="0.66" stop-color="#CAC9FC"/>
<stop offset="0.67" stop-color="#D9DAFC"/>
<stop offset="0.69" stop-color="#E4E6FC"/>
<stop offset="0.71" stop-color="#EAEDFC"/>
<stop offset="0.77" stop-color="white"/>
<stop offset="1" stop-color="#CBCFFC"/>
</radialGradient>
<linearGradient id="paint2_linear_1281_18328" x1="40.3436" y1="8.31763" x2="47.3939" y2="8.31763" gradientUnits="userSpaceOnUse">
<stop stop-color="#EAFAFF"/>
<stop offset="1" stop-color="#86E2FF"/>
</linearGradient>
<radialGradient id="paint3_radial_1281_18328" cx="0" cy="0" r="1" gradientUnits="userSpaceOnUse" gradientTransform="translate(87.8067 22.4458) scale(5.18959 5.21041)">
<stop offset="0.63" stop-color="#8378FA"/>
<stop offset="0.64" stop-color="#9F98FA"/>
<stop offset="0.65" stop-color="#B7B3FB"/>
<stop offset="0.66" stop-color="#CAC9FC"/>
<stop offset="0.67" stop-color="#D9DAFC"/>
<stop offset="0.69" stop-color="#E4E6FC"/>
<stop offset="0.71" stop-color="#EAEDFC"/>
<stop offset="0.77" stop-color="white"/>
<stop offset="1" stop-color="#CBCFFC"/>
</radialGradient>
<linearGradient id="paint4_linear_1281_18328" x1="84.7245" y1="8.31763" x2="91.7748" y2="8.31763" gradientUnits="userSpaceOnUse">
<stop stop-color="#EAFAFF"/>
<stop offset="1" stop-color="#86E2FF"/>
</linearGradient>
<linearGradient id="paint5_linear_1281_18328" x1="85.2622" y1="60.4574" x2="108.476" y2="98.6956" gradientUnits="userSpaceOnUse">
<stop stop-color="#A4A7F5"/>
<stop offset="1" stop-color="#5E63EF"/>
</linearGradient>
<linearGradient id="paint6_linear_1281_18328" x1="85.4515" y1="60.4633" x2="108.137" y2="98.74" gradientUnits="userSpaceOnUse">
<stop stop-color="#A4A7F5"/>
<stop offset="1" stop-color="#5E63EF"/>
</linearGradient>
<linearGradient id="paint7_linear_1281_18328" x1="85.6408" y1="60.4631" x2="107.792" y2="98.7783" gradientUnits="userSpaceOnUse">
<stop stop-color="#A4A7F5"/>
<stop offset="1" stop-color="#5E63EF"/>
</linearGradient>
<linearGradient id="paint8_linear_1281_18328" x1="85.8302" y1="60.469" x2="107.453" y2="98.8107" gradientUnits="userSpaceOnUse">
<stop stop-color="#A4A7F5"/>
<stop offset="1" stop-color="#5E63EF"/>
</linearGradient>
<linearGradient id="paint9_linear_1281_18328" x1="86.0136" y1="60.4814" x2="107.12" y2="98.8436" gradientUnits="userSpaceOnUse">
<stop stop-color="#A4A7F5"/>
<stop offset="1" stop-color="#5E63EF"/>
</linearGradient>
<linearGradient id="paint10_linear_1281_18328" x1="86.2028" y1="60.4871" x2="106.781" y2="98.8699" gradientUnits="userSpaceOnUse">
<stop stop-color="#A4A7F5"/>
<stop offset="1" stop-color="#5E63EF"/>
</linearGradient>
<linearGradient id="paint11_linear_1281_18328" x1="86.3867" y1="60.4989" x2="106.448" y2="98.8904" gradientUnits="userSpaceOnUse">
<stop stop-color="#A4A7F5"/>
<stop offset="1" stop-color="#5E63EF"/>
</linearGradient>
<linearGradient id="paint12_linear_1281_18328" x1="86.5701" y1="60.5168" x2="106.109" y2="98.9109" gradientUnits="userSpaceOnUse">
<stop stop-color="#A4A7F5"/>
<stop offset="1" stop-color="#5E63EF"/>
</linearGradient>
<linearGradient id="paint13_linear_1281_18328" x1="86.7536" y1="60.5349" x2="105.776" y2="98.9257" gradientUnits="userSpaceOnUse">
<stop stop-color="#A4A7F5"/>
<stop offset="1" stop-color="#5E63EF"/>
</linearGradient>
<linearGradient id="paint14_linear_1281_18328" x1="86.931" y1="60.5526" x2="105.442" y2="98.9342" gradientUnits="userSpaceOnUse">
<stop stop-color="#A4A7F5"/>
<stop offset="1" stop-color="#5E63EF"/>
</linearGradient>
<linearGradient id="paint15_linear_1281_18328" x1="87.1086" y1="60.5762" x2="105.115" y2="98.9425" gradientUnits="userSpaceOnUse">
<stop stop-color="#A4A7F5"/>
<stop offset="1" stop-color="#5E63EF"/>
</linearGradient>
<linearGradient id="paint16_linear_1281_18328" x1="87.292" y1="60.6" x2="104.787" y2="98.945" gradientUnits="userSpaceOnUse">
<stop stop-color="#A4A7F5"/>
<stop offset="1" stop-color="#5E63EF"/>
</linearGradient>
<linearGradient id="paint17_linear_1281_18328" x1="87.4636" y1="60.6237" x2="104.459" y2="98.9415" gradientUnits="userSpaceOnUse">
<stop stop-color="#A4A7F5"/>
<stop offset="1" stop-color="#5E63EF"/>
</linearGradient>
<linearGradient id="paint18_linear_1281_18328" x1="87.6411" y1="60.6473" x2="104.132" y2="98.9379" gradientUnits="userSpaceOnUse">
<stop stop-color="#A4A7F5"/>
<stop offset="1" stop-color="#5E63EF"/>
</linearGradient>
<linearGradient id="paint19_linear_1281_18328" x1="87.8185" y1="60.6769" x2="103.804" y2="98.9283" gradientUnits="userSpaceOnUse">
<stop stop-color="#A4A7F5"/>
<stop offset="1" stop-color="#5E63EF"/>
</linearGradient>
<linearGradient id="paint20_linear_1281_18328" x1="87.9901" y1="60.7131" x2="103.482" y2="98.9133" gradientUnits="userSpaceOnUse">
<stop stop-color="#A4A7F5"/>
<stop offset="1" stop-color="#5E63EF"/>
</linearGradient>
<linearGradient id="paint21_linear_1281_18328" x1="88.1617" y1="60.7425" x2="103.16" y2="98.8976" gradientUnits="userSpaceOnUse">
<stop stop-color="#A4A7F5"/>
<stop offset="1" stop-color="#5E63EF"/>
</linearGradient>
<linearGradient id="paint22_linear_1281_18328" x1="88.3273" y1="60.7782" x2="102.837" y2="98.8761" gradientUnits="userSpaceOnUse">
<stop stop-color="#A4A7F5"/>
<stop offset="1" stop-color="#5E63EF"/>
</linearGradient>
<linearGradient id="paint23_linear_1281_18328" x1="88.4989" y1="60.8138" x2="102.521" y2="98.8485" gradientUnits="userSpaceOnUse">
<stop stop-color="#A4A7F5"/>
<stop offset="1" stop-color="#5E63EF"/>
</linearGradient>
<linearGradient id="paint24_linear_1281_18328" x1="88.6646" y1="60.8553" x2="102.205" y2="98.8208" gradientUnits="userSpaceOnUse">
<stop stop-color="#A4A7F5"/>
<stop offset="1" stop-color="#5E63EF"/>
</linearGradient>
<linearGradient id="paint25_linear_1281_18328" x1="88.8302" y1="60.8967" x2="101.889" y2="98.7931" gradientUnits="userSpaceOnUse">
<stop stop-color="#A4A7F5"/>
<stop offset="1" stop-color="#5E63EF"/>
</linearGradient>
<linearGradient id="paint26_linear_1281_18328" x1="88.9959" y1="60.9388" x2="101.572" y2="98.754" gradientUnits="userSpaceOnUse">
<stop stop-color="#A4A7F5"/>
<stop offset="1" stop-color="#5E63EF"/>
</linearGradient>
<linearGradient id="paint27_linear_1281_18328" x1="89.1561" y1="60.9802" x2="101.262" y2="98.7142" gradientUnits="userSpaceOnUse">
<stop stop-color="#A4A7F5"/>
<stop offset="1" stop-color="#5E63EF"/>
</linearGradient>
<linearGradient id="paint28_linear_1281_18328" x1="89.3218" y1="61.0277" x2="100.951" y2="98.6746" gradientUnits="userSpaceOnUse">
<stop stop-color="#A4A7F5"/>
<stop offset="1" stop-color="#5E63EF"/>
</linearGradient>
<linearGradient id="paint29_linear_1281_18328" x1="89.4815" y1="61.0753" x2="100.641" y2="98.6289" gradientUnits="userSpaceOnUse">
<stop stop-color="#A4A7F5"/>
<stop offset="1" stop-color="#5E63EF"/>
</linearGradient>
<linearGradient id="paint30_linear_1281_18328" x1="89.6353" y1="61.1287" x2="100.336" y2="98.5772" gradientUnits="userSpaceOnUse">
<stop stop-color="#A4A7F5"/>
<stop offset="1" stop-color="#5E63EF"/>
</linearGradient>
<linearGradient id="paint31_linear_1281_18328" x1="89.795" y1="61.176" x2="100.031" y2="98.5252" gradientUnits="userSpaceOnUse">
<stop stop-color="#A4A7F5"/>
<stop offset="1" stop-color="#5E63EF"/>
</linearGradient>
<linearGradient id="paint32_linear_1281_18328" x1="89.9489" y1="61.23" x2="99.7324" y2="98.4679" gradientUnits="userSpaceOnUse">
<stop stop-color="#A4A7F5"/>
<stop offset="1" stop-color="#5E63EF"/>
</linearGradient>
<linearGradient id="paint33_linear_1281_18328" x1="90.1027" y1="61.2834" x2="99.4275" y2="98.4041" gradientUnits="userSpaceOnUse">
<stop stop-color="#A4A7F5"/>
<stop offset="1" stop-color="#5E63EF"/>
</linearGradient>
<linearGradient id="paint34_linear_1281_18328" x1="90.2506" y1="61.3426" x2="99.1346" y2="98.34" gradientUnits="userSpaceOnUse">
<stop stop-color="#A4A7F5"/>
<stop offset="1" stop-color="#5E63EF"/>
</linearGradient>
<linearGradient id="paint35_linear_1281_18328" x1="90.4044" y1="61.3961" x2="98.8356" y2="98.2762" gradientUnits="userSpaceOnUse">
<stop stop-color="#A4A7F5"/>
<stop offset="1" stop-color="#5E63EF"/>
</linearGradient>
<linearGradient id="paint36_linear_1281_18328" x1="90.5523" y1="61.4555" x2="98.5425" y2="98.2062" gradientUnits="userSpaceOnUse">
<stop stop-color="#A4A7F5"/>
<stop offset="1" stop-color="#5E63EF"/>
</linearGradient>
<linearGradient id="paint37_linear_1281_18328" x1="90.7002" y1="61.5147" x2="98.2495" y2="98.1301" gradientUnits="userSpaceOnUse">
<stop stop-color="#A4A7F5"/>
<stop offset="1" stop-color="#5E63EF"/>
</linearGradient>
<linearGradient id="paint38_linear_1281_18328" x1="90.8422" y1="61.5805" x2="97.9623" y2="98.0546" gradientUnits="userSpaceOnUse">
<stop stop-color="#A4A7F5"/>
<stop offset="1" stop-color="#5E63EF"/>
</linearGradient>
<linearGradient id="paint39_linear_1281_18328" x1="90.9901" y1="61.6398" x2="97.6751" y2="97.9725" gradientUnits="userSpaceOnUse">
<stop stop-color="#A4A7F5"/>
<stop offset="1" stop-color="#5E63EF"/>
</linearGradient>
<linearGradient id="paint40_linear_1281_18328" x1="91.1321" y1="61.705" x2="97.3879" y2="97.8903" gradientUnits="userSpaceOnUse">
<stop stop-color="#A4A7F5"/>
<stop offset="1" stop-color="#5E63EF"/>
</linearGradient>
<linearGradient id="paint41_linear_1281_18328" x1="91.2686" y1="61.7704" x2="97.1072" y2="97.8082" gradientUnits="userSpaceOnUse">
<stop stop-color="#A4A7F5"/>
<stop offset="1" stop-color="#5E63EF"/>
</linearGradient>
<linearGradient id="paint42_linear_1281_18328" x1="91.4106" y1="61.8417" x2="96.8259" y2="97.7141" gradientUnits="userSpaceOnUse">
<stop stop-color="#A4A7F5"/>
<stop offset="1" stop-color="#5E63EF"/>
</linearGradient>
<linearGradient id="paint43_linear_1281_18328" x1="91.5467" y1="61.9069" x2="96.5506" y2="97.6257" gradientUnits="userSpaceOnUse">
<stop stop-color="#A4A7F5"/>
<stop offset="1" stop-color="#5E63EF"/>
</linearGradient>
<linearGradient id="paint44_linear_1281_18328" x1="91.6827" y1="61.978" x2="96.2752" y2="97.5313" gradientUnits="userSpaceOnUse">
<stop stop-color="#A4A7F5"/>
<stop offset="1" stop-color="#5E63EF"/>
</linearGradient>
<linearGradient id="paint45_linear_1281_18328" x1="91.8129" y1="62.0498" x2="95.9999" y2="97.4316" gradientUnits="userSpaceOnUse">
<stop stop-color="#A4A7F5"/>
<stop offset="1" stop-color="#5E63EF"/>
</linearGradient>
<linearGradient id="paint46_linear_1281_18328" x1="91.949" y1="62.1209" x2="95.7304" y2="97.3311" gradientUnits="userSpaceOnUse">
<stop stop-color="#A4A7F5"/>
<stop offset="1" stop-color="#5E63EF"/>
</linearGradient>
<linearGradient id="paint47_linear_1281_18328" x1="92.0791" y1="62.1981" x2="95.461" y2="97.2247" gradientUnits="userSpaceOnUse">
<stop stop-color="#A4A7F5"/>
<stop offset="1" stop-color="#5E63EF"/>
</linearGradient>
<linearGradient id="paint48_linear_1281_18328" x1="92.2033" y1="62.2694" x2="95.1976" y2="97.1183" gradientUnits="userSpaceOnUse">
<stop stop-color="#A4A7F5"/>
<stop offset="1" stop-color="#5E63EF"/>
</linearGradient>
<linearGradient id="paint49_linear_1281_18328" x1="92.3335" y1="62.3465" x2="94.9341" y2="97.0117" gradientUnits="userSpaceOnUse">
<stop stop-color="#A4A7F5"/>
<stop offset="1" stop-color="#5E63EF"/>
</linearGradient>
<linearGradient id="paint50_linear_1281_18328" x1="92.4577" y1="62.4237" x2="94.6766" y2="96.8992" gradientUnits="userSpaceOnUse">
<stop stop-color="#A4A7F5"/>
<stop offset="1" stop-color="#5E63EF"/>
</linearGradient>
<linearGradient id="paint51_linear_1281_18328" x1="92.582" y1="62.5014" x2="94.4191" y2="96.7871" gradientUnits="userSpaceOnUse">
<stop stop-color="#A4A7F5"/>
<stop offset="1" stop-color="#5E63EF"/>
</linearGradient>
<linearGradient id="paint52_linear_1281_18328" x1="92.7003" y1="62.5784" x2="94.1617" y2="96.6683" gradientUnits="userSpaceOnUse">
<stop stop-color="#A4A7F5"/>
<stop offset="1" stop-color="#5E63EF"/>
</linearGradient>
<linearGradient id="paint53_linear_1281_18328" x1="92.8186" y1="62.6615" x2="93.9102" y2="96.5497" gradientUnits="userSpaceOnUse">
<stop stop-color="#A4A7F5"/>
<stop offset="1" stop-color="#5E63EF"/>
</linearGradient>
<linearGradient id="paint54_linear_1281_18328" x1="92.9369" y1="62.7388" x2="93.6587" y2="96.4251" gradientUnits="userSpaceOnUse">
<stop stop-color="#A4A7F5"/>
<stop offset="1" stop-color="#5E63EF"/>
</linearGradient>
<linearGradient id="paint55_linear_1281_18328" x1="93.0556" y1="62.8219" x2="93.4135" y2="96.3064" gradientUnits="userSpaceOnUse">
<stop stop-color="#A4A7F5"/>
<stop offset="1" stop-color="#5E63EF"/>
</linearGradient>
<linearGradient id="paint56_linear_1281_18328" x1="93.168" y1="62.9049" x2="93.168" y2="96.1755" gradientUnits="userSpaceOnUse">
<stop stop-color="#A4A7F5"/>
<stop offset="1" stop-color="#5E63EF"/>
</linearGradient>
<clipPath id="clip0_1281_18328">
<rect width="129" height="101" fill="white" transform="translate(0.666504)"/>
</clipPath>
</defs>
</svg>
