<svg width="414" height="455" viewBox="0 0 414 455" fill="none" xmlns="http://www.w3.org/2000/svg">
<path d="M272.053 200.794C270.864 199.283 255.664 182.183 254.486 180.683C233.486 153.949 216.552 148.282 194.685 128.515C175.874 111.515 152.185 74.0591 141.807 41.4141L148.04 38.4364C148.04 38.4364 157.007 55.0144 158.007 56.8922C171.907 83.1704 182.907 100.515 204.052 118.893C228.33 140.004 249.897 155.994 277.642 173.072C279.042 173.927 286.876 179.338 289.931 178.694C292.976 178.049 293.998 174.86 296.02 171.171C317.632 131.682 324.143 115.049 338.787 92.5038L343.321 94.6928C333.298 121.571 326.154 143.471 315.698 167.894L302.187 211.839C302.187 211.839 288.153 221.306 272.053 200.805V200.794Z" fill="#73553D"/>
<path d="M221.419 137.329C176.407 138.195 104.673 126.651 77.8167 125.151L77.4614 120.129C105.773 115.462 170.574 127.995 196.963 124.929L221.419 137.329Z" fill="#73553D"/>
<path d="M371.632 424.277C370.999 406.754 365.332 323.331 364.488 305.808C362.566 266.008 353.721 250.93 345.254 238.741C330.71 217.807 318.254 201.351 299.287 184.307C297.887 183.051 291.109 181.729 289.22 181.729C287.876 181.729 279.942 181.062 278.764 181.729C270.942 186.129 268.331 184.518 268.753 193.473C269.02 199.229 273.887 204.762 278.764 207.84C283.631 210.918 292.476 220.429 297.465 228.796C303.398 238.741 313.676 251.663 317.965 264.285C323.776 281.408 323.576 295.741 323.165 314.253C323.021 320.886 318.387 394.799 317.509 401.388C316.321 410.277 317.854 415.388 316.665 424.277H371.644H371.632Z" fill="#73553D"/>
<path d="M314.41 141.549C322.365 140.494 336.421 138.305 342.043 135.794C345.699 134.16 348.199 131.494 350.277 128.072C354.699 120.794 357.766 112.727 359.821 104.46L362.566 105.004C361.799 107.449 358.41 119.338 357.388 121.682C353.455 130.738 355.388 127.76 351.366 133.971C350.088 135.938 347.554 138.216 345.643 139.583C343.654 141.005 341.199 141.594 338.81 142.138C330.477 144.072 322.143 146.005 313.81 147.938L314.41 141.538V141.549Z" fill="#73553D"/>
<path d="M166.052 85.3377C174.007 84.2822 188.063 82.0932 193.685 79.582C197.341 77.9487 199.841 75.282 201.919 71.8597C206.341 64.5819 209.408 56.5151 211.463 48.2483L214.208 48.7927C213.441 51.2372 210.052 63.1263 209.03 65.4708C205.097 74.5264 207.03 71.5487 203.008 77.7599C201.73 79.7266 199.197 82.0043 197.286 83.371C195.297 84.7932 192.83 85.3822 190.452 85.9378C182.119 87.8711 173.785 89.8045 165.452 91.7378L166.052 85.3377Z" fill="#73553D"/>
<path d="M163.407 71.6489C157.674 70.8822 147.552 69.3154 143.507 67.5043C140.874 66.3265 139.074 64.4042 137.574 61.9487C134.385 56.7041 132.174 50.893 130.696 44.9485L128.718 45.3485C129.262 47.1041 131.707 55.6708 132.44 57.3597C135.274 63.882 133.874 61.7376 136.785 66.2155C137.707 67.6266 139.529 69.2711 140.907 70.26C142.34 71.2822 144.107 71.7044 145.829 72.1044C151.83 73.4933 157.83 74.8933 163.841 76.2822L163.407 71.671V71.6489Z" fill="#73553D"/>
<path d="M247.986 50.4595C248.397 39.7705 243.93 28.3148 235.886 23.5703C227.986 18.9147 218.919 19.6257 210.341 20.8368C201.763 22.0479 192.919 23.6258 184.596 20.4702C178.785 18.2702 173.618 13.8924 168.207 10.3701C148.796 -2.21899 125.195 -3.41901 105.384 7.17003C97.1616 11.559 89.2839 18.3034 85.2727 28.4591C81.2616 38.6037 82.2392 52.6041 89.2949 59.8375C95.895 66.6043 105.229 65.7152 113.584 64.8597C149.007 61.2374 183.107 67.3709 218.208 72.7488C225.175 73.8155 232.552 73.871 238.719 69.7598C244.775 65.7153 247.697 58.3041 247.997 50.4595H247.986Z" fill="#008987"/>
<path d="M235.886 23.5809C227.986 18.9253 218.919 19.6363 210.341 20.8474C201.763 22.0586 192.918 23.6364 184.596 20.4808C178.785 18.2808 173.618 13.903 168.207 10.3807C148.796 -2.20837 125.195 -3.40839 105.384 7.18065C97.1615 11.5696 89.2838 18.314 85.2726 28.4698C84.7837 29.692 84.3836 30.9699 84.0391 32.2921C87.2392 29.3365 90.8169 26.9254 94.4503 24.9809C114.273 14.3919 137.873 15.6029 157.273 28.1808C162.696 31.692 167.852 36.07 173.663 38.2811C181.985 41.4367 190.83 39.8588 199.407 38.6477C207.985 37.4366 217.052 36.7254 224.952 41.381C232.986 46.1144 237.464 57.5814 237.052 68.2704C237.019 69.1371 236.952 70.0037 236.852 70.8593C237.475 70.5371 238.097 70.1704 238.697 69.7704C244.753 65.7259 247.675 58.3147 247.975 50.4701C248.386 39.7811 243.919 28.3254 235.875 23.5809H235.886Z" fill="#179491"/>
<path d="M369.977 198.706C370.377 188.339 366.033 177.217 358.244 172.628C350.577 168.117 341.788 168.806 333.465 169.984C325.143 171.161 316.565 172.695 308.487 169.628C302.843 167.495 297.843 163.239 292.587 159.828C273.765 147.616 250.864 146.45 231.642 156.717C223.664 160.972 216.019 167.517 212.13 177.361C208.241 187.206 209.197 200.784 216.03 207.795C222.442 214.362 231.486 213.495 239.597 212.673C273.965 209.162 307.043 215.107 341.088 220.329C347.843 221.362 355.01 221.418 360.988 217.429C366.866 213.506 369.699 206.306 369.988 198.706H369.977Z" fill="#008987"/>
<path d="M358.232 172.628C350.566 168.117 341.777 168.806 333.454 169.984C325.132 171.161 316.554 172.695 308.476 169.628C302.832 167.495 297.832 163.239 292.576 159.828C273.753 147.616 250.853 146.45 231.631 156.717C223.653 160.972 216.008 167.517 212.119 177.361C211.986 177.706 211.853 178.061 211.73 178.417C214.064 176.606 216.53 175.039 219.03 173.706C238.253 163.439 261.153 164.606 279.976 176.817C285.231 180.228 290.243 184.473 295.876 186.617C303.954 189.684 312.532 188.151 320.854 186.973C329.176 185.795 337.965 185.106 345.632 189.617C353.432 194.206 357.766 205.328 357.366 215.695C357.321 216.962 357.199 218.218 357.01 219.44C358.377 218.929 359.699 218.262 360.977 217.418C366.855 213.495 369.688 206.295 369.977 198.695C370.377 188.328 366.033 177.206 358.244 172.617L358.232 172.628Z" fill="#179491"/>
<path d="M391.888 81.9497C381.222 66.0828 363.61 56.1383 342.788 56.0494C337.688 56.0272 329.621 56.6272 325.232 58.9494C315.71 63.9829 313.21 71.6274 305.765 78.9164C298.609 85.9387 287.631 88.6387 278.742 93.8832C275.453 95.8277 272.142 98.6834 272.409 102.183C272.653 105.383 275.831 107.761 278.998 109.295C291.72 115.461 307.11 114.206 321.599 114.05C335.999 113.895 350.421 114.984 364.588 117.306C370.422 118.261 376.266 119.428 382.188 119.295C392.2 119.072 404.266 112.406 410.789 106.217C412.167 104.906 413.489 103.439 413.989 101.694C416.655 92.3277 396.289 88.5165 391.877 81.9608L391.888 81.9497Z" fill="#32AB9E"/>
<path d="M154.341 157.25C161.485 151.495 163.796 140.239 164.741 131.561C165.763 122.016 163.096 111.527 155.607 105.527C152.007 102.649 147.585 100.994 143.096 99.927C134.185 97.8159 124.751 97.927 115.884 100.249C103.806 103.405 92.7288 110.572 80.273 111.361C68.7284 112.094 57.6726 107.26 46.5057 104.238C35.3389 101.227 22.2164 100.394 13.3496 107.838C9.21619 111.305 6.53851 116.172 4.32738 121.083C1.80511 126.661 -0.261566 132.972 1.57179 138.805C3.78294 145.872 10.9164 150.017 17.461 153.494C24.0388 156.983 31.0166 160.572 38.4612 160.295C49.6391 159.884 59.1058 150.894 70.2837 150.417C82.2172 149.905 89.6174 158.65 99.7731 162.795C112.851 168.139 122.729 167.795 136.729 164.306C142.474 162.872 148.352 161.384 153.241 158.061C153.618 157.806 153.985 157.528 154.341 157.239V157.25Z" fill="#32AB9E"/>
<path d="M155.607 105.527C152.007 102.649 147.585 100.994 143.096 99.927C134.185 97.8159 124.751 97.927 115.884 100.249C103.806 103.405 92.7288 110.572 80.273 111.361C68.7284 112.094 57.6726 107.26 46.5057 104.238C35.3389 101.227 22.2164 100.394 13.3496 107.838C9.21619 111.305 6.53851 116.172 4.32738 121.083C4.16071 121.461 3.98297 121.849 3.8163 122.238C12.3164 117.916 23.2055 118.894 32.6945 121.461C43.8613 124.472 54.9169 129.316 66.4615 128.583C78.9173 127.794 89.9952 120.627 102.073 117.472C110.94 115.161 120.373 115.049 129.285 117.149C133.763 118.205 138.196 119.861 141.796 122.75C149.285 128.75 151.952 139.239 150.929 148.783C150.541 152.45 149.896 156.572 148.752 160.55C150.307 159.85 151.818 159.039 153.241 158.072C153.618 157.817 153.985 157.539 154.341 157.25C161.485 151.494 163.796 140.239 164.741 131.561C165.763 122.016 163.096 111.527 155.607 105.527Z" fill="#58BBB0"/>
<path d="M335.287 393.554C335.365 393.554 335.365 393.443 335.287 393.443C335.21 393.443 335.21 393.554 335.287 393.554Z" fill="white"/>
<path d="M298.175 218.65C299.075 220.383 300.453 221.861 301.598 223.439C302.698 224.961 303.831 226.45 304.92 227.983C306.009 229.517 307.087 231.061 308.131 232.617C309.164 234.15 310.042 235.884 311.287 237.25C311.931 237.95 313.331 237.217 312.953 236.272C312.265 234.55 311.076 233.028 310.031 231.494C308.864 229.772 307.653 228.083 306.398 226.428C304.187 223.528 301.887 220.072 298.931 217.883C298.453 217.528 297.953 218.194 298.175 218.639V218.65Z" fill="#8F7765"/>
<path d="M314.865 243.117C315.654 244.739 316.631 246.262 317.409 247.895C318.087 249.328 318.587 251.062 319.632 252.262C319.865 252.54 320.287 252.295 320.298 251.984C320.387 250.317 319.476 248.562 318.765 247.095C317.965 245.417 317.076 243.75 315.876 242.328C315.376 241.739 314.554 242.495 314.865 243.106V243.117Z" fill="#8F7765"/>
<path d="M326.12 268.805C326.632 273.917 327.409 278.983 327.809 284.106C328.209 289.261 328.043 294.395 328.187 299.55C328.22 300.706 329.854 300.672 329.954 299.55C330.443 294.361 330.043 288.972 329.598 283.795C329.154 278.694 328.498 273.594 327.031 268.683C326.887 268.194 326.054 268.261 326.109 268.805H326.12Z" fill="#8F7765"/>
<path d="M329.376 256.751C331.543 265.118 332.809 273.663 333.843 282.23C333.976 283.363 335.743 283.418 335.665 282.23C335.087 273.452 332.998 264.818 330.154 256.54C329.987 256.051 329.243 256.24 329.376 256.751Z" fill="#8F7765"/>
<path d="M355.543 320.329C355.087 328.74 356.332 337.418 357.554 345.729C357.743 347.04 359.732 346.485 359.543 345.185C358.354 336.896 357.854 328.462 356.432 320.218C356.343 319.696 355.576 319.851 355.554 320.34L355.543 320.329Z" fill="#8F7765"/>
<path d="M351.71 339.308C351.71 343.219 352.554 347.186 352.899 351.086C353.065 352.952 353.188 354.83 353.277 356.708C353.365 358.53 353.043 360.842 353.71 362.542C353.988 363.242 354.899 363.275 355.166 362.542C355.788 360.83 355.321 358.508 355.21 356.708C355.088 354.73 354.91 352.752 354.699 350.775C354.288 346.963 353.921 342.808 352.543 339.197C352.388 338.775 351.721 338.808 351.721 339.308H351.71Z" fill="#8F7765"/>
<path d="M334.854 389.163C334.743 392.697 334.543 396.23 334.498 399.764C334.476 401.475 334.454 403.186 334.443 404.908C334.443 406.33 334.065 408.108 334.843 409.341C335.054 409.675 335.532 409.675 335.743 409.341C336.476 408.164 336.143 406.575 336.143 405.23C336.143 403.408 336.109 401.586 336.087 399.775C336.043 396.241 335.843 392.708 335.732 389.174C335.709 388.619 334.887 388.619 334.876 389.174L334.854 389.163Z" fill="#8F7765"/>
<path d="M340.31 396.963C340.465 400.396 340.632 403.818 340.843 407.252C340.943 408.963 341.065 410.685 341.198 412.396C341.31 413.941 341.254 415.585 341.687 417.074C341.91 417.852 342.91 417.607 343.01 416.896C343.232 415.241 342.876 413.418 342.754 411.752C342.632 410.141 342.498 408.541 342.365 406.93C342.076 403.607 341.732 400.285 341.387 396.963C341.321 396.296 340.287 396.263 340.321 396.963H340.31Z" fill="#8F7765"/>
<path d="M202.952 128.792C208.186 133.77 213.719 138.771 219.952 142.493C220.952 143.093 221.741 141.626 220.841 140.959C215.063 136.704 209.085 132.77 203.597 128.137C203.152 127.759 202.508 128.37 202.941 128.792H202.952Z" fill="#8F7765"/>
<path d="M224.93 146.671C225.841 147.382 226.752 148.104 227.663 148.826C228.352 149.371 229.108 150.182 230.008 150.204C230.241 150.204 230.463 149.949 230.386 149.715C230.086 148.86 229.108 148.382 228.374 147.893C227.408 147.248 226.441 146.593 225.486 145.937C225.063 145.648 224.508 146.338 224.93 146.66V146.671Z" fill="#8F7765"/>
<path d="M310.854 160.816C312.598 158.827 314.087 156.66 315.498 154.416C316.243 153.238 316.954 152.038 317.643 150.827C318.254 149.749 319.021 148.66 319.287 147.449C319.421 146.86 318.665 146.326 318.221 146.826C317.387 147.76 316.92 148.971 316.332 150.06C315.709 151.193 315.076 152.326 314.409 153.438C313.032 155.749 311.554 157.982 310.187 160.305C309.943 160.716 310.532 161.205 310.865 160.827L310.854 160.816Z" fill="#8F7765"/>
<path d="M322.198 143.327C323.343 140.405 324.921 137.716 326.421 134.972C326.832 134.216 325.743 133.583 325.276 134.305C323.51 137.016 322.365 140.05 321.343 143.094C321.154 143.639 321.998 143.85 322.198 143.327Z" fill="#8F7765"/>
<path d="M158.707 72.77C159.94 75.8478 161.407 78.8145 163.073 81.6812C164.696 84.459 166.34 87.6592 168.585 89.9814C169.029 90.437 169.707 89.8591 169.44 89.3258C167.973 86.448 165.818 83.8369 164.162 81.0479C162.496 78.2368 160.907 75.37 159.318 72.5144C159.14 72.1922 158.562 72.4144 158.707 72.77Z" fill="#8F7765"/>
<path d="M167.785 83.7034C168.529 85.1812 169.263 86.659 170.007 88.1479C170.663 89.459 171.252 90.8924 172.241 91.9924C172.529 92.3257 173.063 91.9701 172.963 91.5701C172.574 90.1368 171.696 88.8702 170.952 87.6035C170.118 86.1812 169.285 84.7589 168.44 83.3255C168.196 82.9033 167.563 83.2701 167.785 83.7034Z" fill="#8F7765"/>
<path d="M185.485 134.07C188.707 134.182 192.363 134.693 195.529 134.026C195.84 133.959 195.84 133.47 195.529 133.404C192.363 132.726 188.707 133.248 185.485 133.359C185.018 133.371 185.018 134.07 185.485 134.082V134.07Z" fill="#8F7765"/>
<path d="M191.107 130.627C193.329 130.771 196.574 131.127 198.607 130.016C198.818 129.905 198.796 129.516 198.541 129.472C197.385 129.294 196.24 129.605 195.085 129.716C193.763 129.838 192.44 129.894 191.118 129.883C190.629 129.883 190.64 130.594 191.118 130.627H191.107Z" fill="#8F7765"/>
<path d="M278.742 93.8824C277.942 94.3602 277.131 94.8825 276.387 95.4603C278.542 94.3714 280.609 93.1936 282.531 91.838C281.242 92.4825 279.976 93.1602 278.742 93.8824Z" fill="#32AB9E"/>
<path d="M391.888 81.9497C381.221 66.0828 363.61 56.1383 342.787 56.0494C337.687 56.0272 329.621 56.6272 325.232 58.9494C321.343 61.005 318.62 63.494 316.254 66.2274C318.787 65.9718 321.265 65.8829 323.276 65.894C344.11 65.9829 361.71 75.9163 372.377 91.7943C376.788 98.3499 397.155 102.161 394.488 111.528C393.988 113.272 392.677 114.739 391.288 116.05C390.466 116.828 389.566 117.606 388.588 118.384C396.955 116.328 405.622 111.128 410.799 106.206C412.177 104.895 413.5 103.428 414 101.683C416.666 92.3165 396.299 88.5054 391.888 81.9497Z" fill="#58BBB0"/>
<path d="M424.805 389.676C424.663 379.807 416.879 371.927 407.401 372.058C407.1 372.065 406.804 372.1 406.505 372.117C406.607 371.407 406.664 370.675 406.658 369.922C406.563 363.212 401.691 357.846 395.764 357.93C394.231 357.956 392.783 358.341 391.48 359.016C391.484 358.914 391.489 358.813 391.492 358.702C391.399 352.395 386.375 347.343 380.257 347.426C379.133 347.44 378.058 347.636 377.043 347.964C376.81 333.286 365.374 321.559 351.465 321.763C339.109 321.938 328.988 331.477 327.012 343.895C325.059 342.126 322.688 341.097 320.142 341.139C317.184 341.185 314.507 342.656 312.463 345.033C308.409 340.987 302.913 338.531 296.874 338.613C284.639 338.789 274.874 349.328 275.06 362.144C275.07 362.535 275.11 362.92 275.129 363.299C266.287 364.297 259.478 371.855 259.609 380.941C259.672 385.565 261.544 389.737 264.525 392.824C257.819 393.913 252.733 399.756 252.833 406.757C252.931 413.747 258.165 419.439 264.889 420.347C271.327 426.285 291.142 429.237 341.718 426.568C400.828 423.452 415.042 418.597 415.314 411.59C415.881 410.577 417.556 407.443 418.828 403.457C422.544 400.127 424.872 395.173 424.793 389.667L424.805 389.676Z" fill="#F37C56"/>
<path d="M396.276 385.692C395.278 385.736 394.319 385.904 393.39 386.199C392.981 385.639 392.543 385.084 392.068 384.544C392.067 384.152 392.087 383.757 392.065 383.359C391.581 372.579 383.295 364.183 373.564 364.625C370.61 364.761 367.86 365.699 365.475 367.235C365.473 367.225 365.472 367.215 365.469 367.196C364.937 355.197 356.889 345.809 347.496 346.229C339.461 346.589 333.062 354.013 331.714 363.67C328.412 359.357 323.868 356.754 318.947 356.974C309.554 357.393 302.394 367.88 302.957 380.407C303.024 381.874 303.205 383.303 303.46 384.691C302.242 384.418 300.965 384.284 299.657 384.346C291.681 384.697 285.488 391.435 285.534 399.519C276.058 400.243 269.542 405.545 269 411.589C266.052 444.531 397.842 420.98 397.842 420.98C405.669 420.632 411.659 412.457 411.225 402.714C410.792 392.971 404.095 385.365 396.269 385.713L396.276 385.692Z" fill="#E86240"/>
<path d="M380.815 398.72C380.156 398.752 379.52 398.861 378.907 399.056C378.639 398.686 378.351 398.318 378.033 397.955C378.033 397.694 378.042 397.431 378.032 397.171C377.708 390.015 372.212 384.454 365.754 384.741C363.787 384.824 361.973 385.447 360.383 386.467L360.38 386.447C360.02 378.482 354.685 372.263 348.455 372.535C343.125 372.777 338.882 377.696 337.985 384.107C335.792 381.24 332.781 379.516 329.517 379.659C323.288 379.941 318.536 386.899 318.908 395.204C318.949 396.182 319.066 397.129 319.248 398.046C318.437 397.87 317.598 397.778 316.729 397.813C311.439 398.049 307.326 402.516 307.363 407.877C301.075 408.359 296.755 411.873 296.402 415.887C294.451 437.749 381.876 422.116 381.876 422.116C387.067 421.885 391.04 416.455 390.753 409.996C390.466 403.537 386.025 398.486 380.835 398.717L380.815 398.72Z" fill="#D75434"/>
<path d="M252.384 341.304C263.731 341.436 274.828 350.713 275.189 362.065C282.395 357.129 292.506 356.869 299.956 361.424C307.406 365.979 311.783 375.091 310.682 383.755C309.271 394.889 302.509 407.686 282.551 417.311C259.245 428.55 203.82 438.07 180.287 413.392C152.349 384.088 188.69 341.762 225.082 358.157C231.233 349.073 240.794 341.169 252.385 341.314L252.384 341.304Z" fill="#F9A91A"/>
</svg>
